SplineFontDB: 3.0
FontName: Souvenyr
FullName: Souvenyr
FamilyName: Souvenyr
Weight: Light
Copyright: Under the GNU Copyleft
Version: 0.1
ItalicAngle: 0
UnderlinePosition: -105
UnderlineWidth: 50
Ascent: 800
Descent: 200
InvalidEm: 0
sfntRevision: 0x0000199a
LayerCount: 2
Layer: 0 1 "Back" 1
Layer: 1 1 "Fore" 0
XUID: [1021 934 1227823300 9743]
StyleMap: 0x0040
FSType: 0
OS2Version: 1
OS2_WeightWidthSlopeOnly: 0
OS2_UseTypoMetrics: 0
CreationTime: 1304461431
ModificationTime: 1589701437
PfmFamily: 81
TTFWeight: 400
TTFWidth: 5
LineGap: 0
VLineGap: 0
Panose: 0 0 0 0 0 0 0 0 0 0
OS2TypoAscent: 800
OS2TypoAOffset: 0
OS2TypoDescent: -200
OS2TypoDOffset: 0
OS2TypoLinegap: 0
OS2WinAscent: 737
OS2WinAOffset: 0
OS2WinDescent: 215
OS2WinDOffset: 0
HheadAscent: 737
HheadAOffset: 0
HheadDescent: -215
HheadDOffset: 0
OS2SubXSize: 750
OS2SubYSize: 750
OS2SubXOff: 0
OS2SubYOff: 200
OS2SupXSize: 750
OS2SupYSize: 750
OS2SupXOff: 0
OS2SupYOff: 300
OS2StrikeYSize: 50
OS2StrikeYPos: 246
OS2Vendor: 'ATEC'
OS2CodePages: 00000000.00000000
OS2UnicodeRanges: 00000000.00000000.00000000.00000000
Lookup: 258 0 0 "'kern' Horizontal Kerning in Latin lookup 0" { "'kern' Horizontal Kerning in Latin lookup 0 subtable"  } ['kern' ('DFLT' <'dflt' > 'latn' <'dflt' > ) ]
MarkAttachClasses: 1
DEI: 91125
ShortTable: maxp 16
  1
  0
  233
  235
  5
  0
  0
  2
  0
  1
  1
  0
  64
  0
  0
  0
EndShort
LangName: 1033 "" "" "Regular" "" "" "OpenVersion"
GaspTable: 1 65535 15 1
Encoding: UnicodeFull
Compacted: 1
UnicodeInterp: none
NameList: AGL For New Fonts
DisplaySize: -72
AntiAlias: 1
FitToEm: 0
WinInfo: 0 38 13
BeginPrivate: 0
EndPrivate
Grid
-755.15020752 1300 m 0
 -755.15020752 -700 l 1024
-257 1300 m 0
 -257 -700 l 1024
-1000 863.199996948 m 0
 2000 863.199996948 l 1024
-1000 646 m 0
 2000 646 l 1024
  Named: "CTop"
-1000 421.299999237 m 0
 2000 421.299999237 l 1024
EndSplineSet

StartChar: exclam
Encoding: 33 33 4
Width: 269
GlyphClass: 2
Flags: W
LayerCount: 2
Fore
SplineSet
78 35 m 128,-1,1
 78 55 78 55 91.5 68 c 128,-1,2
 105 81 105 81 124 81 c 0,3,4
 127 81 127 81 130.5 80.5 c 128,-1,5
 134 80 134 80 137 79 c 0,6,7
 150 76 150 76 160.5 66.5 c 128,-1,8
 171 57 171 57 171 41 c 0,9,10
 171 16 171 16 156.5 5 c 128,-1,11
 142 -6 142 -6 124 -6 c 0,12,13
 107 -6 107 -6 92.5 4.5 c 128,-1,0
 78 15 78 15 78 35 c 128,-1,1
104 181 m 2,14,-1
 85 595 l 2,15,16
 85 618 85 618 97 628 c 128,-1,17
 109 638 109 638 124 638 c 128,-1,18
 139 638 139 638 151.5 628.5 c 128,-1,19
 164 619 164 619 164 602 c 2,20,-1
 138 181 l 2,21,22
 138 168 138 168 133.5 160.5 c 128,-1,23
 129 153 129 153 123 151 c 2,24,-1
 122 151 l 1,25,-1
 121 151 l 1,26,-1
 120 151 l 1,27,-1
 119 151 l 2,28,29
 113 153 113 153 108.5 160.5 c 128,-1,30
 104 168 104 168 104 181 c 2,14,-1
EndSplineSet
EndChar

StartChar: quotedbl
Encoding: 34 34 5
Width: 309
GlyphClass: 2
Flags: W
LayerCount: 2
Fore
SplineSet
51 449 m 6,0,-1
 32 595 l 6,1,2
 32 596 32 596 31.5 596.5 c 132,-1,3
 31 597 31 597 31 598 c 132,-1,4
 31 599 31 599 31 599 c 5,5,-1
 30 600 l 5,6,7
 30 614 30 614 40 622.5 c 132,-1,8
 50 631 50 631 62 632 c 6,9,-1
 64 632 l 5,10,-1
 65 632 l 5,11,-1
 69 632 l 6,12,13
 70 632 70 632 72 631 c 4,14,15
 81 629 81 629 89.5 621 c 132,-1,16
 98 613 98 613 98 600 c 6,17,-1
 98 595 l 5,18,-1
 78 449 l 6,19,20
 78 442 78 442 75.5 436 c 132,-1,21
 73 430 73 430 70 427 c 6,22,-1
 67 426 l 6,23,24
 66 425 66 425 65 425 c 132,-1,25
 64 425 64 425 63 426 c 6,26,-1
 60 427 l 6,27,28
 57 430 57 430 54.5 435.5 c 132,-1,29
 52 441 52 441 51 449 c 6,0,-1
204 449 m 2,30,-1
 184 595 l 2,31,32
 184 596 184 596 183.5 596.5 c 128,-1,33
 183 597 183 597 183 598 c 128,-1,34
 183 599 183 599 183 599 c 1,35,-1
 182 600 l 1,36,37
 182 615 182 615 192.5 622.5 c 128,-1,38
 203 630 203 630 216 630 c 2,39,-1
 220 630 l 2,40,41
 222 630 222 630 224 629 c 0,42,43
 235 627 235 627 243.5 620 c 128,-1,44
 252 613 252 613 252 602 c 2,45,-1
 232 449 l 2,46,47
 232 441 232 441 229 435.5 c 128,-1,48
 226 430 226 430 223 428 c 2,49,-1
 221 428 l 2,50,51
 220 428 220 428 218 429 c 128,-1,52
 216 430 216 430 214 432 c 0,53,54
 211 434 211 434 208 438.5 c 128,-1,55
 205 443 205 443 204 449 c 2,30,-1
EndSplineSet
EndChar

StartChar: numbersign
Encoding: 35 35 6
Width: 531
GlyphClass: 2
Flags: W
LayerCount: 2
Fore
SplineSet
101 222 m 1,0,-1
 35 222 l 2,1,2
 25 222 25 222 20 228.5 c 128,-1,3
 15 235 15 235 15 242 c 0,4,5
 15 250 15 250 20 256 c 128,-1,6
 25 262 25 262 35 262 c 2,7,-1
 114 262 l 1,8,-1
 161 408 l 1,9,-1
 95 408 l 2,10,11
 82 408 82 408 76 414.5 c 128,-1,12
 70 421 70 421 70 428 c 2,13,-1
 70 429 l 1,14,-1
 70 431 l 2,15,16
 71 437 71 437 77 443 c 128,-1,17
 83 449 83 449 95 449 c 2,18,-1
 174 449 l 1,19,-1
 207 549 l 2,20,21
 210 557 210 557 214.5 563 c 128,-1,22
 219 569 219 569 224 572 c 0,23,24
 227 573 227 573 229.5 574 c 128,-1,25
 232 575 232 575 235 575 c 0,26,27
 243 575 243 575 249 567.5 c 128,-1,28
 255 560 255 560 255 549 c 2,29,-1
 255 542 l 1,30,-1
 229 449 l 1,31,-1
 355 449 l 1,32,-1
 381 542 l 2,33,34
 384 556 384 556 390.5 564 c 128,-1,35
 397 572 397 572 404 575 c 0,36,37
 407 576 407 576 409 576.5 c 128,-1,38
 411 577 411 577 413 577 c 0,39,40
 422 577 422 577 429 568.5 c 128,-1,41
 436 560 436 560 436 549 c 2,42,-1
 436 542 l 1,43,-1
 408 449 l 1,44,-1
 469 449 l 2,45,46
 481 449 481 449 487 443 c 128,-1,47
 493 437 493 437 494 431 c 2,48,-1
 494 429 l 1,49,-1
 494 428 l 2,50,51
 494 421 494 421 488 414.5 c 128,-1,52
 482 408 482 408 469 408 c 2,53,-1
 395 408 l 1,54,-1
 348 262 l 1,55,-1
 415 262 l 2,56,57
 425 262 425 262 429.5 256 c 128,-1,58
 434 250 434 250 434 242 c 0,59,60
 434 235 434 235 429.5 228.5 c 128,-1,61
 425 222 425 222 415 222 c 2,62,-1
 335 222 l 1,63,-1
 295 108 l 2,64,65
 294 103 294 103 289 99.5 c 128,-1,66
 284 96 284 96 278 94 c 0,67,68
 276 94 276 94 274 93.5 c 128,-1,69
 272 93 272 93 270 93 c 2,70,-1
 268 93 l 1,71,-1
 267 93 l 2,72,73
 260 94 260 94 253.5 99.5 c 128,-1,74
 247 105 247 105 247 114 c 0,75,76
 247 115 247 115 247.5 116 c 128,-1,77
 248 117 248 117 248 118 c 2,78,-1
 248 119 l 2,79,80
 249 120 249 120 249 121 c 2,81,-1
 282 222 l 1,82,-1
 154 222 l 1,83,-1
 128 128 l 2,84,85
 126 116 126 116 119.5 107.5 c 128,-1,86
 113 99 113 99 105 95 c 0,87,88
 102 92 102 92 98 91 c 128,-1,89
 94 90 94 90 91 90 c 0,90,91
 84 90 84 90 77.5 96 c 128,-1,92
 71 102 71 102 71 113 c 0,93,94
 71 114 71 114 71.5 116 c 128,-1,95
 72 118 72 118 73 120 c 2,96,-1
 73 121 l 2,97,98
 74 123 74 123 74.5 125 c 128,-1,99
 75 127 75 127 75 128 c 2,100,-1
 101 222 l 1,0,-1
167 262 m 1,101,-1
 295 262 l 1,102,-1
 342 408 l 1,103,-1
 216 408 l 1,104,-1
 167 262 l 1,101,-1
EndSplineSet
EndChar

StartChar: dollar
Encoding: 36 36 7
Width: 531
GlyphClass: 2
Flags: W
LayerCount: 2
Fore
SplineSet
235 -5 m 2,0,1
 234 -4 234 -4 231.5 -4.5 c 128,-1,2
 229 -5 229 -5 226 -5 c 2,3,-1
 224 -5 l 1,4,-1
 222 -5 l 2,5,6
 220 -6 220 -6 218 -6 c 2,7,-1
 214 -6 l 2,8,9
 207 -6 207 -6 199 -5 c 2,10,-1
 185 -3 l 2,11,12
 139 6 139 6 100 42 c 128,-1,13
 61 78 61 78 61 121 c 0,14,15
 61 138 61 138 67.5 146 c 128,-1,16
 74 154 74 154 81 154 c 0,17,18
 83 154 83 154 85 153.5 c 128,-1,19
 87 153 87 153 89 152 c 0,20,21
 95 150 95 150 100.5 143.5 c 128,-1,22
 106 137 106 137 108 128 c 0,23,24
 109 121 109 121 111 114 c 128,-1,25
 113 107 113 107 116 100 c 0,26,27
 130 73 130 73 159 50 c 128,-1,28
 188 27 188 27 224 27 c 2,29,-1
 226 27 l 2,30,31
 228 27 228 27 230 28 c 2,32,-1
 232 28 l 1,33,-1
 235 28 l 1,34,-1
 235 295 l 1,35,-1
 203 312 l 2,36,37
 185 322 185 322 166 334 c 0,38,39
 129 356 129 356 98.5 389.5 c 128,-1,40
 68 423 68 423 68 476 c 0,41,42
 68 541 68 541 113.5 586 c 128,-1,43
 159 631 159 631 235 635 c 1,44,-1
 235 723 l 2,45,46
 235 731 235 731 241.5 734.5 c 128,-1,47
 248 738 248 738 255 738 c 0,48,49
 263 738 263 738 269 734.5 c 128,-1,50
 275 731 275 731 275 723 c 2,51,-1
 275 635 l 1,52,53
 286 635 286 635 299 632.5 c 128,-1,54
 312 630 312 630 325 626 c 0,55,56
 359 614 359 614 387 589.5 c 128,-1,57
 415 565 415 565 415 529 c 0,58,59
 415 515 415 515 405.5 504 c 128,-1,60
 396 493 396 493 385 490 c 0,61,62
 383 489 383 489 381 489 c 2,63,-1
 378 489 l 1,64,-1
 376 489 l 1,65,-1
 375 489 l 2,66,67
 368 490 368 490 361.5 498.5 c 128,-1,68
 355 507 355 507 355 522 c 2,69,-1
 355 537 l 2,70,71
 355 571 355 571 335 584.5 c 128,-1,72
 315 598 315 598 275 602 c 1,73,-1
 275 362 l 1,74,75
 360 338 360 338 408 285 c 128,-1,76
 456 232 456 232 456 161 c 2,77,-1
 456 148 l 2,78,79
 453 100 453 100 418 63 c 128,-1,80
 383 26 383 26 342 8 c 0,81,82
 327 2 327 2 312 -1 c 128,-1,83
 297 -4 297 -4 284 -4 c 2,84,-1
 275 -5 l 1,85,-1
 275 -91 l 2,86,87
 275 -100 275 -100 269 -105 c 128,-1,88
 263 -110 263 -110 255 -110 c 0,89,90
 248 -110 248 -110 241.5 -105 c 128,-1,91
 235 -100 235 -100 235 -90 c 2,92,-1
 235 -5 l 2,0,1
275 28 m 1,93,94
 330 28 330 28 363.5 59 c 128,-1,95
 397 90 397 90 401 134 c 0,96,97
 401 143 401 143 399.5 153 c 128,-1,98
 398 163 398 163 395 173 c 0,99,100
 385 204 385 204 356.5 233.5 c 128,-1,101
 328 263 328 263 275 282 c 1,102,-1
 275 28 l 1,93,94
235 381 m 1,103,-1
 235 602 l 1,104,105
 174 597 174 597 147.5 563 c 128,-1,106
 121 529 121 529 121 489 c 0,107,108
 121 461 121 461 141 441.5 c 128,-1,109
 161 422 161 422 185 408 c 0,110,111
 199 399 199 399 212.5 392.5 c 128,-1,112
 226 386 226 386 235 381 c 1,103,-1
EndSplineSet
EndChar

StartChar: percent
Encoding: 37 37 8
Width: 714
GlyphClass: 2
Flags: W
LayerCount: 2
Fore
SplineSet
406 181 m 0,0,1
 406 270 406 270 447.5 318.5 c 128,-1,2
 489 367 489 367 538 368 c 2,3,-1
 540 368 l 1,4,-1
 541 368 l 1,5,-1
 544 368 l 1,6,-1
 547 368 l 2,7,8
 595 365 595 365 635 320 c 128,-1,9
 675 275 675 275 675 187 c 2,10,-1
 675 177 l 2,11,12
 675 91 675 91 636 46.5 c 128,-1,13
 597 2 597 2 550 -1 c 0,14,15
 547 -2 547 -2 544 -2 c 2,16,-1
 539 -2 l 1,17,-1
 538 -2 l 1,18,-1
 536 -2 l 2,19,20
 487 -1 487 -1 446.5 44.5 c 128,-1,21
 406 90 406 90 406 181 c 0,0,1
454 181 m 0,22,23
 454 107 454 107 476.5 64 c 128,-1,24
 499 21 499 21 525 11 c 2,25,-1
 533 9 l 2,26,27
 537 8 537 8 541 8 c 0,28,29
 545 9 545 9 549.5 10.5 c 128,-1,30
 554 12 554 12 558 14 c 0,31,32
 584 27 584 27 605.5 68 c 128,-1,33
 627 109 627 109 627 181 c 0,34,35
 627 266 627 266 600 308 c 128,-1,36
 573 350 573 350 541 350 c 2,37,-1
 540 350 l 1,38,-1
 538 350 l 2,39,40
 507 348 507 348 480.5 306 c 128,-1,41
 454 264 454 264 454 181 c 0,22,23
146 22 m 2,42,-1
 501 609 l 2,43,44
 504 613 504 613 509.5 617.5 c 128,-1,45
 515 622 515 622 521 625 c 0,46,47
 525 627 525 627 529 628 c 128,-1,48
 533 629 533 629 536 629 c 2,49,-1
 538 629 l 1,50,51
 538 629 538 629 539 628 c 128,-1,52
 540 627 540 627 541.5 626 c 128,-1,53
 543 625 543 625 543 624 c 0,54,55
 544 623 544 623 544 622 c 256,56,57
 544 621 544 621 543.5 619 c 128,-1,58
 543 617 543 617 542 614 c 2,59,-1
 542 612 l 2,60,61
 542 611 542 611 541.5 610.5 c 128,-1,62
 541 610 541 610 541 609 c 2,63,-1
 179 15 l 2,64,65
 177 11 177 11 171.5 8 c 128,-1,66
 166 5 166 5 160 4 c 0,67,68
 158 3 158 3 156 3 c 2,69,-1
 153 3 l 1,70,-1
 151 3 l 1,71,-1
 149 3 l 2,72,73
 146 4 146 4 143.5 5.5 c 128,-1,74
 141 7 141 7 141 10 c 0,75,76
 141 11 141 11 141.5 13 c 128,-1,77
 142 15 142 15 143 18 c 0,78,79
 144 19 144 19 144.5 20 c 128,-1,80
 145 21 145 21 146 22 c 2,42,-1
20 456 m 0,81,82
 20 545 20 545 61.5 590 c 128,-1,83
 103 635 103 635 153 635 c 0,84,85
 204 635 204 635 245.5 590 c 128,-1,86
 287 545 287 545 287 456 c 0,87,88
 286 362 286 362 245 312.5 c 128,-1,89
 204 263 204 263 155 260 c 2,90,-1
 152 260 l 1,91,-1
 149 260 l 1,92,-1
 145 260 l 1,93,-1
 141 260 l 1,94,95
 95 264 95 264 56.5 311.5 c 128,-1,96
 18 359 18 359 18 446 c 0,97,98
 18 447 18 447 18.5 448.5 c 128,-1,99
 19 450 19 450 19 451 c 0,100,101
 19 453 19 453 19.5 454 c 128,-1,102
 20 455 20 455 20 456 c 0,81,82
66 456 m 0,103,104
 66 371 66 371 92 326.5 c 128,-1,105
 118 282 118 282 153 282 c 0,106,107
 158 282 158 282 162.5 283 c 128,-1,108
 167 284 167 284 172 286 c 0,109,110
 197 297 197 297 218.5 338.5 c 128,-1,111
 240 380 240 380 240 456 c 0,112,113
 240 534 240 534 214.5 576.5 c 128,-1,114
 189 619 189 619 159 624 c 0,115,116
 157 625 157 625 155 625 c 2,117,-1
 151 625 l 1,118,-1
 150 625 l 1,119,-1
 148 625 l 2,120,121
 117 623 117 623 91.5 581.5 c 128,-1,122
 66 540 66 540 66 456 c 0,103,104
EndSplineSet
EndChar

StartChar: ampersand
Encoding: 38 38 9
Width: 674
GlyphClass: 2
Flags: W
LayerCount: 2
Fore
SplineSet
393 68 m 5,0,1
 368 49 368 49 341.5 34 c 128,-1,2
 315 19 315 19 288 9 c 0,3,4
 263 0 263 0 238.5 -4.5 c 128,-1,5
 214 -9 214 -9 191 -9 c 0,6,7
 148 -9 148 -9 109 8 c 128,-1,8
 70 25 70 25 40 61 c 0,9,10
 30 74 30 74 23 89 c 128,-1,11
 16 104 16 104 13 120 c 0,12,13
 11 126 11 126 10.5 132 c 128,-1,14
 10 138 10 138 10 144 c 0,15,16
 10 154 10 154 11.5 163.5 c 128,-1,17
 13 173 13 173 15 183 c 0,18,19
 27 228 27 228 64.5 270.5 c 128,-1,20
 102 313 102 313 159 342 c 1,21,22
 135 369 135 369 116 402.5 c 128,-1,23
 97 436 97 436 91 471 c 0,24,25
 91 476 91 476 90.5 481 c 128,-1,26
 90 486 90 486 90 491 c 0,27,28
 90 499 90 499 91 507 c 128,-1,29
 92 515 92 515 94 524 c 0,30,31
 96 532 96 532 99 540.5 c 128,-1,32
 102 549 102 549 106 556 c 0,33,34
 129 593 129 593 166.5 613.5 c 128,-1,35
 204 634 204 634 246 637 c 0,36,37
 250 638 250 638 254 638 c 2,38,-1
 262 638 l 2,39,40
 315 638 315 638 358.5 608 c 128,-1,41
 402 578 402 578 406 516 c 1,42,-1
 406 512 l 1,43,-1
 406 509 l 1,44,45
 402 470 402 470 363.5 432 c 128,-1,46
 325 394 325 394 280 365 c 2,47,-1
 260 353 l 2,48,49
 250 347 250 347 240 342 c 1,50,-1
 413 148 l 5,51,-1
 481 249 l 2,52,53
 486 257 486 257 487.5 264 c 128,-1,54
 489 271 489 271 489 277 c 0,55,56
 489 292 489 292 479.5 305.5 c 128,-1,57
 470 319 470 319 458 325 c 0,58,59
 455 326 455 326 452.5 327 c 128,-1,60
 450 328 450 328 448 328 c 0,61,62
 440 329 440 329 435 333 c 128,-1,63
 430 337 430 337 428 342 c 2,64,-1
 428 343 l 1,65,-1
 428 345 l 1,66,-1
 428 346 l 1,67,-1
 428 347 l 2,68,69
 430 353 430 353 438 357.5 c 128,-1,70
 446 362 446 362 461 362 c 2,71,-1
 600 362 l 2,72,73
 614 362 614 362 620.5 357.5 c 128,-1,74
 627 353 627 353 627 348 c 0,75,76
 627 346 627 346 625.5 343.5 c 128,-1,77
 624 341 624 341 622 338 c 0,78,79
 619 335 619 335 615.5 332.5 c 128,-1,80
 612 330 612 330 607 328 c 0,81,82
 605 327 605 327 603 326.5 c 128,-1,83
 601 326 601 326 599 326 c 0,84,85
 597 325 597 325 594 324 c 128,-1,86
 591 323 591 323 589 322 c 0,87,88
 580 319 580 319 570.5 310.5 c 128,-1,89
 561 302 561 302 547 282 c 2,90,-1
 441 121 l 5,91,92
 458 100 458 100 482 85.5 c 132,-1,93
 506 71 506 71 531 62 c 4,94,95
 548 57 548 57 564 54 c 132,-1,96
 580 51 580 51 594 51 c 6,97,-1
 598 51 l 5,98,-1
 603 51 l 6,99,100
 615 52 615 52 625.5 55 c 132,-1,101
 636 58 636 58 642 61 c 4,102,103
 643 62 643 62 644 62 c 132,-1,104
 645 62 645 62 646 63 c 6,105,-1
 649 63 l 5,106,-1
 652 63 l 6,107,108
 658 63 658 63 662.5 58 c 132,-1,109
 667 53 667 53 667 46 c 4,110,111
 667 43 667 43 666 40 c 132,-1,112
 665 37 665 37 663 34 c 4,113,114
 659 29 659 29 652.5 24 c 132,-1,115
 646 19 646 19 635 15 c 4,116,117
 633 14 633 14 631 13.5 c 132,-1,118
 629 13 629 13 626 13 c 6,119,-1
 606 7 l 6,120,121
 595 4 595 4 584 2 c 4,122,123
 575 0 575 0 565 -0.5 c 132,-1,124
 555 -1 555 -1 546 -1 c 4,125,126
 515 -1 515 -1 477 13.5 c 132,-1,127
 439 28 439 28 393 68 c 5,0,1
367 95 m 1,128,-1
 179 308 l 1,129,130
 137 285 137 285 112.5 252 c 128,-1,131
 88 219 88 219 83 184 c 0,132,133
 82 179 82 179 81.5 173.5 c 128,-1,134
 81 168 81 168 81 163 c 0,135,136
 81 145 81 145 86 128 c 128,-1,137
 91 111 91 111 100 95 c 0,138,139
 114 67 114 67 144.5 53.5 c 128,-1,140
 175 40 175 40 212 40 c 0,141,142
 228 40 228 40 244.5 42.5 c 128,-1,143
 261 45 261 45 278 50 c 0,144,145
 301 56 301 56 324 67.5 c 128,-1,146
 347 79 347 79 367 95 c 1,128,-1
221 375 m 1,147,148
 260 392 260 392 293.5 420 c 128,-1,149
 327 448 327 448 343 479 c 0,150,151
 349 489 349 489 352 500 c 128,-1,152
 355 511 355 511 355 521 c 0,153,154
 355 522 355 522 354.5 524 c 128,-1,155
 354 526 354 526 354 528 c 2,156,-1
 354 529 l 2,157,158
 354 531 354 531 353.5 533 c 128,-1,159
 353 535 353 535 353 536 c 0,160,161
 346 565 346 565 320 580.5 c 128,-1,162
 294 596 294 596 265 598 c 0,163,164
 262 599 262 599 258 599 c 2,165,-1
 252 599 l 1,166,-1
 248 599 l 1,167,-1
 243 599 l 2,168,169
 208 596 208 596 178 576 c 128,-1,170
 148 556 148 556 146 522 c 0,171,172
 146 509 146 509 150 493.5 c 128,-1,173
 154 478 154 478 161 462 c 0,174,175
 170 442 170 442 183 422 c 128,-1,176
 196 402 196 402 209 387 c 2,177,-1
 215 381 l 1,178,-1
 221 375 l 1,147,148
EndSplineSet
EndChar

StartChar: quotesingle
Encoding: 39 39 10
Width: 155
GlyphClass: 2
Flags: W
LayerCount: 2
Fore
SplineSet
51 449 m 2,0,-1
 32 595 l 2,1,2
 32 596 32 596 31.5 596.5 c 128,-1,3
 31 597 31 597 31 598 c 128,-1,4
 31 599 31 599 31 599 c 1,5,-1
 30 600 l 1,6,7
 30 614 30 614 40 622.5 c 128,-1,8
 50 631 50 631 62 632 c 2,9,-1
 64 632 l 1,10,-1
 65 632 l 1,11,-1
 69 632 l 2,12,13
 70 632 70 632 72 631 c 0,14,15
 81 629 81 629 89.5 621 c 128,-1,16
 98 613 98 613 98 600 c 2,17,-1
 98 595 l 1,18,-1
 78 449 l 2,19,20
 78 442 78 442 75.5 436 c 128,-1,21
 73 430 73 430 70 427 c 2,22,-1
 67 426 l 2,23,24
 66 425 66 425 65 425 c 128,-1,25
 64 425 64 425 63 426 c 2,26,-1
 60 427 l 2,27,28
 57 430 57 430 54.5 435.5 c 128,-1,29
 52 441 52 441 51 449 c 2,0,-1
EndSplineSet
EndChar

StartChar: parenleft
Encoding: 40 40 11
Width: 206
GlyphClass: 2
Flags: W
LayerCount: 2
Fore
SplineSet
126 -111 m 1,0,1
 78 -39 78 -39 52.5 41.5 c 128,-1,2
 27 122 27 122 22 205 c 0,3,4
 21 217 21 217 20.5 228.5 c 128,-1,5
 20 240 20 240 20 252 c 2,6,-1
 20 256 l 1,7,-1
 20 260 l 2,8,9
 21 366 21 366 50.5 466 c 128,-1,10
 80 566 80 566 126 635 c 0,11,12
 129 639 129 639 133 642.5 c 128,-1,13
 137 646 137 646 141 648 c 128,-1,14
 145 650 145 650 148 651 c 128,-1,15
 151 652 151 652 154 652 c 0,16,17
 161 652 161 652 166 646.5 c 128,-1,18
 171 641 171 641 171 633 c 0,19,20
 171 630 171 630 169.5 625 c 128,-1,21
 168 620 168 620 166 615 c 0,22,23
 132 546 132 546 110.5 463.5 c 128,-1,24
 89 381 89 381 84 296 c 0,25,26
 84 284 84 284 83.5 272.5 c 128,-1,27
 83 261 83 261 83 249 c 0,28,29
 83 159 83 159 103 72.5 c 128,-1,30
 123 -14 123 -14 166 -90 c 0,31,32
 170 -97 170 -97 171 -103 c 128,-1,33
 172 -109 172 -109 172 -113 c 0,34,35
 172 -120 172 -120 167 -123.5 c 128,-1,36
 162 -127 162 -127 156 -127 c 0,37,38
 154 -127 154 -127 151 -126.5 c 128,-1,39
 148 -126 148 -126 145 -125 c 0,40,41
 140 -123 140 -123 135 -119 c 128,-1,42
 130 -115 130 -115 126 -110 c 1,43,-1
 126 -111 l 1,0,1
EndSplineSet
EndChar

StartChar: parenright
Encoding: 41 41 12
Width: 206
GlyphClass: 2
Flags: W
LayerCount: 2
Fore
SplineSet
13 -98 m 1,0,1
 48 -22 48 -22 67 68 c 128,-1,2
 86 158 86 158 86 252 c 0,3,4
 86 268 86 268 85.5 283.5 c 128,-1,5
 85 299 85 299 84 315 c 0,6,7
 78 395 78 395 58 472 c 128,-1,8
 38 549 38 549 0 615 c 0,9,10
 -1 620 -1 620 -1.5 624 c 128,-1,11
 -2 628 -2 628 -2 632 c 0,12,13
 -2 640 -2 640 2.5 644 c 128,-1,14
 7 648 7 648 13 648 c 0,15,16
 16 648 16 648 19.5 647.5 c 128,-1,17
 23 647 23 647 27 645 c 0,18,19
 33 643 33 643 38 639 c 128,-1,20
 43 635 43 635 46 629 c 0,21,22
 90 553 90 553 117.5 464 c 128,-1,23
 145 375 145 375 150 283 c 0,24,25
 150 273 150 273 150.5 262.5 c 128,-1,26
 151 252 151 252 151 242 c 128,-1,27
 151 232 151 232 150.5 221.5 c 128,-1,28
 150 211 150 211 150 201 c 0,29,30
 145 118 145 118 119.5 37 c 128,-1,31
 94 -44 94 -44 46 -117 c 0,32,33
 44 -120 44 -120 39.5 -122.5 c 128,-1,34
 35 -125 35 -125 31 -126 c 0,35,36
 28 -127 28 -127 25 -127.5 c 128,-1,37
 22 -128 22 -128 20 -128 c 2,38,-1
 18 -128 l 2,39,40
 13 -127 13 -127 9 -124.5 c 128,-1,41
 5 -122 5 -122 5 -117 c 0,42,43
 5 -114 5 -114 7 -108.5 c 128,-1,44
 9 -103 9 -103 13 -97 c 1,45,-1
 13 -98 l 1,0,1
EndSplineSet
EndChar

StartChar: asterisk
Encoding: 42 42 13
Width: 309
GlyphClass: 2
Flags: W
LayerCount: 2
Fore
SplineSet
138 509 m 0,0,1
 135 512 135 512 127 513.5 c 128,-1,2
 119 515 119 515 108 516 c 0,3,4
 102 517 102 517 95.5 517.5 c 128,-1,5
 89 518 89 518 82 519 c 0,6,7
 61 522 61 522 43 528.5 c 128,-1,8
 25 535 25 535 25 551 c 0,9,10
 25 555 25 555 27 559.5 c 128,-1,11
 29 564 29 564 32 569 c 0,12,13
 37 577 37 577 42.5 581 c 128,-1,14
 48 585 48 585 55 585 c 128,-1,15
 62 585 62 585 69.5 581 c 128,-1,16
 77 577 77 577 85 570 c 0,17,18
 90 566 90 566 95.5 561 c 128,-1,19
 101 556 101 556 106 551 c 2,20,-1
 128 527 l 2,21,22
 138 516 138 516 144 516 c 1,23,-1
 144 519 l 2,24,25
 144 528 144 528 140 540 c 128,-1,26
 136 552 136 552 131 565 c 0,27,28
 130 567 130 567 129.5 568.5 c 128,-1,29
 129 570 129 570 129 572 c 0,30,31
 124 584 124 584 121 595 c 128,-1,32
 118 606 118 606 118 615 c 0,33,34
 118 626 118 626 126 634.5 c 128,-1,35
 134 643 134 643 151 643 c 0,36,37
 167 643 167 643 174 635 c 128,-1,38
 181 627 181 627 181 617 c 0,39,40
 181 608 181 608 178 597.5 c 128,-1,41
 175 587 175 587 171 576 c 2,42,-1
 169 572 l 1,43,-1
 167 568 l 2,44,45
 162 555 162 555 158 543.5 c 128,-1,46
 154 532 154 532 154 524 c 2,47,-1
 154 522 l 2,48,49
 155 520 155 520 156 518.5 c 128,-1,50
 157 517 157 517 158 516 c 0,51,52
 166 519 166 519 176 529 c 2,53,-1
 195 552 l 2,54,55
 199 558 199 558 204 563 c 128,-1,56
 209 568 209 568 213 573 c 0,57,58
 220 580 220 580 227.5 585 c 128,-1,59
 235 590 235 590 242 590 c 0,60,61
 244 590 244 590 246.5 589.5 c 128,-1,62
 249 589 249 589 252 587 c 0,63,64
 256 585 256 585 259 582 c 128,-1,65
 262 579 262 579 265 575 c 0,66,67
 266 574 266 574 267 572 c 128,-1,68
 268 570 268 570 268 569 c 0,69,70
 269 566 269 566 269.5 563 c 128,-1,71
 270 560 270 560 270 557 c 0,72,73
 270 541 270 541 252.5 533.5 c 128,-1,74
 235 526 235 526 214 522 c 0,75,76
 205 520 205 520 197 519 c 128,-1,77
 189 518 189 518 182 516 c 0,78,79
 173 515 173 515 166.5 513 c 128,-1,80
 160 511 160 511 158 509 c 0,81,82
 160 502 160 502 172.5 498 c 128,-1,83
 185 494 185 494 202 491 c 0,84,85
 205 490 205 490 208 489.5 c 128,-1,86
 211 489 211 489 214 488 c 0,87,88
 235 484 235 484 252.5 477.5 c 128,-1,89
 270 471 270 471 270 458 c 0,90,91
 270 456 270 456 269.5 453.5 c 128,-1,92
 269 451 269 451 268 448 c 0,93,94
 268 447 268 447 267 445.5 c 128,-1,95
 266 444 266 444 265 443 c 0,96,97
 263 440 263 440 260 437 c 2,98,-1
 255 432 l 2,99,100
 250 427 250 427 245 424 c 128,-1,101
 240 421 240 421 235 421 c 0,102,103
 223 421 223 421 212.5 432.5 c 128,-1,104
 202 444 202 444 192 459 c 2,105,-1
 174 484 l 2,106,107
 165 496 165 496 158 496 c 1,108,-1
 158 494 l 2,109,110
 158 493 158 493 157 492 c 0,111,112
 157 490 157 490 157 489 c 2,113,-1
 156 488 l 1,114,115
 156 481 156 481 159.5 469.5 c 128,-1,116
 163 458 163 458 168 445 c 0,117,118
 168 443 168 443 168.5 442 c 128,-1,119
 169 441 169 441 169 439 c 0,120,121
 173 428 173 428 176 417 c 128,-1,122
 179 406 179 406 179 398 c 0,123,124
 179 388 179 388 173 381.5 c 128,-1,125
 167 375 167 375 151 375 c 0,126,127
 134 375 134 375 126 382 c 128,-1,128
 118 389 118 389 118 400 c 0,129,130
 118 408 118 408 121 418.5 c 128,-1,131
 124 429 124 429 128 440 c 0,132,133
 129 442 129 442 129.5 444 c 128,-1,134
 130 446 130 446 131 448 c 0,135,136
 136 461 136 461 140 472.5 c 128,-1,137
 144 484 144 484 144 491 c 2,138,-1
 144 496 l 1,139,140
 138 496 138 496 128 485 c 2,141,-1
 106 461 l 2,142,143
 101 455 101 455 96 450 c 2,144,-1
 85 440 l 2,145,146
 77 434 77 434 69.5 429.5 c 128,-1,147
 62 425 62 425 55 425 c 128,-1,148
 48 425 48 425 42.5 429.5 c 128,-1,149
 37 434 37 434 32 443 c 0,150,151
 31 444 31 444 30.5 445 c 128,-1,152
 30 446 30 446 30 447 c 0,153,154
 28 450 28 450 26.5 453.5 c 128,-1,155
 25 457 25 457 25 459 c 0,156,157
 25 474 25 474 43 479.5 c 128,-1,158
 61 485 61 485 82 488 c 2,159,-1
 84 488 l 1,160,161
 84 488 84 488 85 489 c 0,162,163
 103 491 103 491 118.5 495 c 128,-1,164
 134 499 134 499 138 509 c 0,0,1
EndSplineSet
EndChar

StartChar: plus
Encoding: 43 43 14
Width: 571
GlyphClass: 2
Flags: W
LayerCount: 2
Fore
SplineSet
255 2 m 1,0,-1
 255 194 l 1,1,-1
 61 194 l 1,2,-1
 61 249 l 1,3,-1
 255 249 l 1,4,-1
 255 443 l 1,5,-1
 315 443 l 1,6,-1
 315 249 l 1,7,-1
 509 249 l 1,8,-1
 509 194 l 1,9,-1
 315 194 l 1,10,-1
 315 2 l 1,11,-1
 255 2 l 1,0,-1
EndSplineSet
EndChar

StartChar: comma
Encoding: 44 44 15
Width: 269
GlyphClass: 2
Flags: W
LayerCount: 2
Fore
SplineSet
144 2 m 0,0,1
 134 -1 134 -1 125 -2.5 c 128,-1,2
 116 -4 116 -4 108 -4 c 0,3,4
 89 -4 89 -4 79.5 6.5 c 128,-1,5
 70 17 70 17 70 30 c 0,6,7
 70 33 70 33 70.5 35.5 c 128,-1,8
 71 38 71 38 71 41 c 0,9,10
 75 56 75 56 89 68.5 c 128,-1,11
 103 81 103 81 124 81 c 0,12,13
 154 81 154 81 167.5 59.5 c 128,-1,14
 181 38 181 38 181 8 c 0,15,16
 181 -2 181 -2 179.5 -14 c 128,-1,17
 178 -26 178 -26 175 -38 c 0,18,19
 167 -67 167 -67 152 -94.5 c 128,-1,20
 137 -122 137 -122 118 -137 c 0,21,22
 111 -142 111 -142 105.5 -144.5 c 128,-1,23
 100 -147 100 -147 96 -147 c 0,24,25
 93 -147 93 -147 90.5 -144.5 c 128,-1,26
 88 -142 88 -142 87 -139 c 0,27,28
 86 -138 86 -138 86 -137 c 2,29,-1
 86 -135 l 2,30,31
 86 -133 86 -133 86.5 -131 c 128,-1,32
 87 -129 87 -129 88 -127 c 0,33,34
 90 -124 90 -124 92.5 -121 c 128,-1,35
 95 -118 95 -118 98 -117 c 0,36,37
 110 -110 110 -110 121 -93 c 128,-1,38
 132 -76 132 -76 139 -58 c 0,39,40
 143 -46 143 -46 145.5 -35.5 c 128,-1,41
 148 -25 148 -25 148 -16 c 2,42,-1
 148 -14 l 1,43,-1
 148 -12 l 2,44,45
 147 -7 147 -7 146 -3.5 c 128,-1,46
 145 0 145 0 144 2 c 0,0,1
EndSplineSet
EndChar

StartChar: hyphen
Encoding: 45 45 16
Width: 269
GlyphClass: 2
Flags: W
LayerCount: 2
Fore
SplineSet
130 222 m 5,0,-1
 38 222 l 6,1,2
 26 222 26 222 19.5 230.5 c 132,-1,3
 13 239 13 239 13 249 c 132,-1,4
 13 259 13 259 19.5 267 c 4,5,6
 25 275 25 275 38 275 c 6,7,-1
 130 275 l 5,8,-1
 222 275 l 6,9,10
 234 275 234 275 240.5 267 c 132,-1,11
 247 259 247 259 247 249 c 132,-1,12
 247 239 247 239 240.5 230.5 c 132,-1,13
 234 222 234 222 222 222 c 6,14,-1
 130 222 l 5,0,-1
EndSplineSet
EndChar

StartChar: period
Encoding: 46 46 17
Width: 269
GlyphClass: 2
Flags: W
LayerCount: 2
Fore
SplineSet
78 35 m 128,-1,1
 78 55 78 55 91.5 68 c 128,-1,2
 105 81 105 81 124 81 c 0,3,4
 144.473684211 81 144.473684211 81 157.736842105 69 c 128,-1,5
 171 57 171 57 171 36.5 c 128,-1,6
 171 16 171 16 156.5 5 c 128,-1,7
 142 -6 142 -6 124.5 -6 c 128,-1,8
 107 -6 107 -6 92.5 4.5 c 128,-1,0
 78 15 78 15 78 35 c 128,-1,1
EndSplineSet
EndChar

StartChar: slash
Encoding: 47 47 18
Width: 452
GlyphClass: 2
Flags: W
LayerCount: 2
Fore
SplineSet
8 -51 m 1,0,-1
 388 629 l 2,1,2
 391 636 391 636 398.5 641.5 c 128,-1,3
 406 647 406 647 415 649 c 0,4,5
 417 649 417 649 420 649.5 c 128,-1,6
 423 650 423 650 425 650 c 2,7,-1
 428 650 l 2,8,9
 429 650 429 650 431 649 c 0,10,11
 436 648 436 648 441 643.5 c 128,-1,12
 446 639 446 639 446 632 c 0,13,14
 446 631 446 631 445.5 628 c 128,-1,15
 445 625 445 625 444 622 c 2,16,-1
 444 621 l 2,17,18
 444 619 444 619 443.5 617.5 c 128,-1,19
 443 616 443 616 443 615 c 2,20,-1
 55 -78 l 2,21,22
 52 -83 52 -83 47 -87.5 c 128,-1,23
 42 -92 42 -92 36 -94 c 0,24,25
 33 -95 33 -95 29.5 -96 c 128,-1,26
 26 -97 26 -97 23 -97 c 0,27,28
 22 -97 22 -97 20.5 -96.5 c 128,-1,29
 19 -96 19 -96 17 -96 c 0,30,31
 11 -93 11 -93 5.5 -86.5 c 128,-1,32
 0 -80 0 -80 0 -72 c 0,33,34
 0 -68 0 -68 2 -62.5 c 128,-1,35
 4 -57 4 -57 8 -50 c 1,36,-1
 8 -51 l 1,0,-1
EndSplineSet
EndChar

StartChar: zero
Encoding: 48 48 19
Width: 531
GlyphClass: 2
Flags: W
LayerCount: 2
Fore
SplineSet
255 -12 m 1,0,1
 145 -11 145 -11 93 88.5 c 128,-1,2
 41 188 41 188 41 308 c 0,3,4
 41 434 41 434 92 539.5 c 128,-1,5
 143 645 143 645 249 650 c 1,6,-1
 252 650 l 2,7,8
 364 650 364 650 419.5 548.5 c 128,-1,9
 475 447 475 447 476 326 c 2,10,-1
 476 322 l 1,11,-1
 476 320 l 1,12,-1
 476 314 l 1,13,-1
 476 309 l 2,14,15
 473 188 473 188 420 88.5 c 128,-1,16
 367 -11 367 -11 267 -11 c 1,17,-1
 255 -12 l 1,0,1
255 28 m 0,18,19
 320 28 320 28 354 108.5 c 128,-1,20
 388 189 388 189 388 287 c 2,21,-1
 388 315 l 2,22,23
 388 426 388 426 354 517.5 c 128,-1,24
 320 609 320 609 255 609 c 0,25,26
 190 608 190 608 156 520 c 128,-1,27
 122 432 122 432 121 327 c 2,28,-1
 121 323 l 1,29,-1
 121 318 l 1,30,-1
 121 316 l 1,31,-1
 121 312 l 2,32,33
 122 206 122 206 156.5 117 c 128,-1,34
 191 28 191 28 255 28 c 0,18,19
EndSplineSet
EndChar

StartChar: one
Encoding: 49 49 20
Width: 531
GlyphClass: 2
Flags: W
LayerCount: 2
Fore
SplineSet
235 95 m 2,0,-1
 235 496 l 2,1,2
 235 525 235 525 218.5 533.5 c 128,-1,3
 202 542 202 542 181 542 c 2,4,-1
 171 542 l 2,5,6
 166 542 166 542 160 541 c 2,7,-1
 155 541 l 1,8,-1
 150 541 l 2,9,10
 142 540 142 540 134.5 539.5 c 128,-1,11
 127 539 127 539 121 539 c 0,12,13
 110 539 110 539 102.5 543 c 128,-1,14
 95 547 95 547 95 556 c 2,15,-1
 95 557 l 2,16,17
 94 558 94 558 94 559 c 128,-1,18
 94 560 94 560 94 561 c 2,19,-1
 93 562 l 1,20,21
 93 571 93 571 101 575 c 128,-1,22
 109 579 109 579 126 581 c 2,23,-1
 160 586 l 2,24,25
 180 589 180 589 207 595 c 0,26,27
 210 596 210 596 212.5 597 c 128,-1,28
 215 598 215 598 218 599 c 0,29,30
 227 603 227 603 235.5 608 c 128,-1,31
 244 613 244 613 253 619 c 2,32,-1
 279 637 l 2,33,34
 291 645 291 645 299 645 c 0,35,36
 306 645 306 645 310.5 635 c 128,-1,37
 315 625 315 625 315 602 c 2,38,-1
 315 95 l 2,39,40
 315 65 315 65 339 53 c 128,-1,41
 363 41 363 41 408 41 c 0,42,43
 420 41 420 41 427.5 35 c 128,-1,44
 435 29 435 29 436 23 c 2,45,-1
 436 22 l 1,46,-1
 436 20 l 1,47,-1
 436 18 l 2,48,49
 436 17 436 17 435 16 c 0,50,51
 433 11 433 11 426 6.5 c 128,-1,52
 419 2 419 2 408 2 c 2,53,-1
 141 2 l 2,54,55
 128 2 128 2 122 8.5 c 128,-1,56
 116 15 116 15 116 22 c 0,57,58
 116 30 116 30 122 35.5 c 128,-1,59
 128 41 128 41 141 41 c 0,60,61
 202 46 202 46 218.5 58 c 128,-1,62
 235 70 235 70 235 95 c 2,0,-1
EndSplineSet
EndChar

StartChar: two
Encoding: 50 50 21
Width: 531
GlyphClass: 2
Flags: W
LayerCount: 2
Fore
SplineSet
134 68 m 1,0,-1
 355 68 l 2,1,2
 378 68 378 68 392.5 77.5 c 128,-1,3
 407 87 407 87 418 98 c 0,4,5
 425 105 425 105 430.5 111.5 c 128,-1,6
 436 118 436 118 442 122 c 0,7,8
 445 125 445 125 448.5 126.5 c 128,-1,9
 452 128 452 128 456 128 c 0,10,11
 464 128 464 128 467.5 123.5 c 128,-1,12
 471 119 471 119 471 114 c 0,13,14
 471 107 471 107 467 96 c 2,15,-1
 458 74 l 2,16,17
 458 72 458 72 458 71 c 2,18,-1
 456 68 l 1,19,-1
 452 58 l 1,20,-1
 448 48 l 2,21,22
 448 46 448 46 447.5 44 c 128,-1,23
 447 42 447 42 446 40 c 0,24,25
 442 25 442 25 435.5 13.5 c 128,-1,26
 429 2 429 2 415 2 c 2,27,-1
 75 2 l 2,28,29
 60 2 60 2 52.5 7.5 c 128,-1,30
 45 13 45 13 45 22 c 0,31,32
 45 36 45 36 58.5 58 c 128,-1,33
 72 80 72 80 89 104 c 0,34,35
 92 107 92 107 95 111 c 2,36,-1
 101 119 l 1,37,-1
 119 141 l 1,38,-1
 134 161 l 2,39,40
 151 185 151 185 183 216 c 2,41,-1
 250 281 l 2,42,43
 279 310 279 310 306.5 340.5 c 128,-1,44
 334 371 334 371 352 401 c 0,45,46
 366 423 366 423 373.5 444 c 128,-1,47
 381 465 381 465 381 486 c 0,48,49
 381 493 381 493 380 500 c 128,-1,50
 379 507 379 507 377 514 c 0,51,52
 374 525 374 525 368.5 535.5 c 128,-1,53
 363 546 363 546 355 556 c 0,54,55
 340 574 340 574 320.5 582 c 128,-1,56
 301 590 301 590 281 592 c 2,57,-1
 276 592 l 1,58,-1
 272 592 l 2,59,60
 268 592 268 592 264.5 591.5 c 128,-1,61
 261 591 261 591 257 591 c 0,62,63
 220 586 220 586 186.5 563 c 128,-1,64
 153 540 153 540 141 514 c 0,65,66
 139 508 139 508 137.5 502.5 c 128,-1,67
 136 497 136 497 136 491 c 0,68,69
 136 484 136 484 139.5 476.5 c 128,-1,70
 143 469 143 469 148 463 c 0,71,72
 149 462 149 462 150 460 c 128,-1,73
 151 458 151 458 152 457 c 0,74,75
 158 448 158 448 161 439.5 c 128,-1,76
 164 431 164 431 164 425 c 0,77,78
 164 411 164 411 152 403 c 128,-1,79
 140 395 140 395 121 395 c 0,80,81
 91 397 91 397 77 417 c 128,-1,82
 63 437 63 437 63 463 c 0,83,84
 63 470 63 470 64.5 477.5 c 128,-1,85
 66 485 66 485 68 493 c 2,86,-1
 70 499 l 2,87,88
 71 502 71 502 71 504 c 2,89,-1
 73 510 l 1,90,-1
 75 516 l 2,91,92
 97 573 97 573 145 601.5 c 128,-1,93
 193 630 193 630 246 636 c 0,94,95
 254 637 254 637 261.5 637.5 c 128,-1,96
 269 638 269 638 277 638 c 0,97,98
 326 638 326 638 369 621 c 128,-1,99
 412 604 412 604 430 575 c 0,100,101
 447 547 447 547 455 520 c 128,-1,102
 463 493 463 493 463 469 c 0,103,104
 463 414 463 414 427.5 368.5 c 128,-1,105
 392 323 392 323 342 280 c 2,106,-1
 313 255 l 1,107,-1
 283 230 l 2,108,109
 240 194 240 194 200 154.5 c 128,-1,110
 160 115 160 115 134 68 c 1,0,-1
EndSplineSet
EndChar

StartChar: three
Encoding: 51 51 22
Width: 531
GlyphClass: 2
Flags: W
LayerCount: 2
Fore
SplineSet
302 342 m 1,0,-1
 303 342 l 1,1,-1
 305 342 l 1,2,3
 366 332 366 332 417.5 286.5 c 128,-1,4
 469 241 469 241 469 171 c 2,5,-1
 469 161 l 2,6,7
 467 83 467 83 402 40 c 128,-1,8
 337 -3 337 -3 260 -10 c 0,9,10
 254 -10 254 -10 247.5 -10.5 c 128,-1,11
 241 -11 241 -11 234 -11 c 2,12,-1
 227 -11 l 1,13,-1
 220 -11 l 2,14,15
 196 -10 196 -10 172 -5 c 128,-1,16
 148 0 148 0 128 8 c 0,17,18
 102 20 102 20 82.5 37.5 c 128,-1,19
 63 55 63 55 53 75 c 0,20,21
 47 85 47 85 44 96 c 128,-1,22
 41 107 41 107 41 116 c 0,23,24
 41 133 41 133 51.5 146.5 c 128,-1,25
 62 160 62 160 81 161 c 0,26,27
 102 161 102 161 108 148.5 c 128,-1,28
 114 136 114 136 117 118 c 0,29,30
 118 114 118 114 119 109.5 c 128,-1,31
 120 105 120 105 121 100 c 0,32,33
 124 88 124 88 130 76 c 128,-1,34
 136 64 136 64 148 55 c 0,35,36
 161 46 161 46 175.5 39 c 128,-1,37
 190 32 190 32 205 29 c 0,38,39
 213 27 213 27 220.5 26 c 128,-1,40
 228 25 228 25 235 25 c 0,41,42
 291 25 291 25 337 64.5 c 128,-1,43
 383 104 383 104 383 167 c 0,44,45
 383 180 383 180 381 193.5 c 128,-1,46
 379 207 379 207 375 222 c 2,47,-1
 369 238 l 2,48,49
 366 247 366 247 362 255 c 0,50,51
 348 282 348 282 322 292.5 c 128,-1,52
 296 303 296 303 268 305 c 0,53,54
 257 306 257 306 245.5 306.5 c 128,-1,55
 234 307 234 307 223 307 c 0,56,57
 197 308 197 308 179 311 c 128,-1,58
 161 314 161 314 161 328 c 0,59,60
 161 346 161 346 175.5 349.5 c 128,-1,61
 190 353 190 353 212 354 c 0,62,63
 225 354 225 354 239 355 c 128,-1,64
 253 356 253 356 268 360 c 0,65,66
 293 366 293 366 316.5 384 c 128,-1,67
 340 402 340 402 355 443 c 1,68,-1
 357 451 l 2,69,70
 358 455 358 455 359 460 c 0,71,72
 359 464 359 464 359.5 468 c 128,-1,73
 360 472 360 472 360 476 c 2,74,-1
 360 480 l 1,75,-1
 360 484 l 1,76,77
 356 526 356 526 322.5 560.5 c 128,-1,78
 289 595 289 595 242 595 c 0,79,80
 211 595 211 595 187.5 581 c 128,-1,81
 164 567 164 567 153 551 c 0,82,83
 149 544 149 544 146.5 538 c 128,-1,84
 144 532 144 532 144 526 c 0,85,86
 144 523 144 523 145.5 520.5 c 128,-1,87
 147 518 147 518 148 516 c 0,88,89
 150 509 150 509 151.5 503 c 128,-1,90
 153 497 153 497 153 493 c 0,91,92
 153 480 153 480 142.5 473 c 128,-1,93
 132 466 132 466 119 466 c 0,94,95
 116 466 116 466 113.5 466.5 c 128,-1,96
 111 467 111 467 108 467 c 0,97,98
 93 471 93 471 80.5 482 c 128,-1,99
 68 493 68 493 68 509 c 0,100,101
 68 577 68 577 118.5 608.5 c 128,-1,102
 169 640 169 640 232 640 c 0,103,104
 240 640 240 640 248.5 639.5 c 128,-1,105
 257 639 257 639 265 638 c 0,106,107
 324 631 324 631 375 601 c 128,-1,108
 426 571 426 571 436 522 c 0,109,110
 437 517 437 517 437.5 511.5 c 128,-1,111
 438 506 438 506 438 501 c 0,112,113
 439 496 439 496 439 492 c 2,114,-1
 439 484 l 2,115,116
 439 436 439 436 406 395 c 128,-1,117
 373 354 373 354 302 342 c 1,0,-1
EndSplineSet
EndChar

StartChar: four
Encoding: 52 52 23
Width: 531
GlyphClass: 2
Flags: W
LayerCount: 2
Fore
SplineSet
289 161 m 1,0,-1
 41 161 l 2,1,2
 31 161 31 161 24.5 167 c 128,-1,3
 18 173 18 173 18 186 c 0,4,5
 18 211 18 211 38 258.5 c 128,-1,6
 58 306 58 306 88 362 c 0,7,8
 99 383 99 383 116 408 c 2,9,-1
 151 458 l 1,10,-1
 180 494 l 1,11,-1
 209 528 l 2,12,13
 247 570 247 570 282 599.5 c 128,-1,14
 317 629 317 629 335 629 c 0,15,16
 360 629 360 629 364 611.5 c 128,-1,17
 368 594 368 594 368 569 c 2,18,-1
 368 207 l 1,19,-1
 463 207 l 2,20,21
 477 207 477 207 484.5 201 c 128,-1,22
 492 195 492 195 493 189 c 2,23,-1
 493 187 l 1,24,-1
 493 186 l 1,25,-1
 493 184 l 1,26,-1
 493 183 l 2,27,28
 491 175 491 175 482.5 168 c 128,-1,29
 474 161 474 161 463 161 c 2,30,-1
 368 161 l 1,31,-1
 368 75 l 2,32,33
 368 60 368 60 379 47.5 c 128,-1,34
 390 35 390 35 415 35 c 0,35,36
 423 35 423 35 426.5 30 c 128,-1,37
 430 25 430 25 430 18 c 0,38,39
 430 12 430 12 426.5 7 c 128,-1,40
 423 2 423 2 415 2 c 2,41,-1
 255 2 l 2,42,43
 245 2 245 2 239 6 c 128,-1,44
 233 10 233 10 232 15 c 2,45,-1
 232 17 l 1,46,-1
 232 19 l 2,47,48
 232 20 232 20 233 21 c 0,49,50
 235 26 235 26 241 30.5 c 128,-1,51
 247 35 247 35 255 35 c 0,52,53
 275 35 275 35 282 47.5 c 128,-1,54
 289 60 289 60 289 75 c 2,55,-1
 289 161 l 1,0,-1
289 207 m 1,56,-1
 289 549 l 1,57,58
 240 494 240 494 202.5 442.5 c 128,-1,59
 165 391 165 391 137 339 c 0,60,61
 119 306 119 306 103.5 273.5 c 128,-1,62
 88 241 88 241 75 207 c 1,63,-1
 289 207 l 1,56,-1
EndSplineSet
EndChar

StartChar: five
Encoding: 53 53 24
Width: 531
GlyphClass: 2
Flags: W
LayerCount: 2
Fore
SplineSet
134 355 m 1,0,1
 150 364 150 364 167 371 c 128,-1,2
 184 378 184 378 202 382 c 0,3,4
 219 387 219 387 236 389 c 128,-1,5
 253 391 253 391 269 391 c 0,6,7
 353 391 353 391 414.5 338.5 c 128,-1,8
 476 286 476 286 476 209 c 0,9,10
 476 175 476 175 461.5 137.5 c 128,-1,11
 447 100 447 100 415 61 c 0,12,13
 389 32 389 32 343 15 c 128,-1,14
 297 -2 297 -2 247 -5 c 0,15,16
 242 -6 242 -6 236 -6 c 2,17,-1
 226 -6 l 2,18,19
 159 -6 159 -6 102.5 23.5 c 128,-1,20
 46 53 46 53 41 114 c 1,21,-1
 40 118 l 2,22,23
 40 133 40 133 51.5 143.5 c 128,-1,24
 63 154 63 154 77 157 c 0,25,26
 79 158 79 158 81 158 c 2,27,-1
 86 158 l 1,28,-1
 89 158 l 2,29,30
 91 158 91 158 93 157 c 0,31,32
 104 155 104 155 113.5 146 c 128,-1,33
 123 137 123 137 123 119 c 0,34,35
 123 117 123 117 122.5 115 c 128,-1,36
 122 113 122 113 122 111 c 128,-1,37
 122 109 122 109 121.5 106.5 c 128,-1,38
 121 104 121 104 121 101 c 2,39,-1
 120 100 l 2,40,41
 120 99 120 99 120 97 c 0,42,43
 119 96 119 96 119 95 c 2,44,-1
 119 93 l 2,45,46
 119 65 119 65 152.5 48.5 c 128,-1,47
 186 32 186 32 229 32 c 0,48,49
 236 32 236 32 242.5 32.5 c 128,-1,50
 249 33 249 33 256 34 c 0,51,52
 288 38 288 38 317.5 53.5 c 128,-1,53
 347 69 347 69 362 95 c 0,54,55
 376 122 376 122 383 148.5 c 128,-1,56
 390 175 390 175 390 199 c 0,57,58
 390 261 390 261 350 303 c 128,-1,59
 310 345 310 345 254 345 c 0,60,61
 240 345 240 345 224.5 341.5 c 128,-1,62
 209 338 209 338 193 332 c 2,63,-1
 177 324 l 2,64,65
 169 320 169 320 161 315 c 2,66,-1
 121 294 l 2,67,68
 105 285 105 285 96 285 c 0,69,70
 88 285 88 285 84.5 295 c 128,-1,71
 81 305 81 305 81 322 c 2,72,-1
 101 635 l 1,73,74
 135 631 135 631 167.5 629 c 128,-1,75
 200 627 200 627 231 627 c 0,76,77
 261 627 261 627 290.5 628.5 c 128,-1,78
 320 630 320 630 347 632 c 0,79,80
 358 633 358 633 368 633.5 c 128,-1,81
 378 634 378 634 388 635 c 2,82,-1
 400 635 l 2,83,84
 411 635 411 635 416.5 631 c 128,-1,85
 422 627 422 627 423 622 c 2,86,-1
 423 620 l 2,87,88
 423 616 423 616 420.5 610.5 c 128,-1,89
 418 605 418 605 412 600 c 0,90,91
 405 593 405 593 394 586 c 128,-1,92
 383 579 383 579 368 575 c 0,93,94
 345 569 345 569 319 564.5 c 128,-1,95
 293 560 293 560 266 558 c 0,96,97
 256 558 256 558 246.5 557.5 c 128,-1,98
 237 557 237 557 227 557 c 0,99,100
 220 557 220 557 212.5 557.5 c 128,-1,101
 205 558 205 558 197 558 c 0,102,103
 193 559 193 559 189 559 c 128,-1,104
 185 559 185 559 181 560 c 0,105,106
 172 560 172 560 164 561 c 128,-1,107
 156 562 156 562 148 562 c 1,108,-1
 134 355 l 1,0,1
EndSplineSet
EndChar

StartChar: six
Encoding: 54 54 25
Width: 531
GlyphClass: 2
Flags: W
LayerCount: 2
Fore
SplineSet
121 308 m 1,0,1
 146 331 146 331 172 346 c 128,-1,2
 198 361 198 361 224 370 c 0,3,4
 242 375 242 375 259.5 378 c 128,-1,5
 277 381 277 381 294 381 c 0,6,7
 359 381 359 381 410 341 c 128,-1,8
 461 301 461 301 469 229 c 1,9,-1
 469 209 l 2,10,11
 469 139 469 139 434 80 c 128,-1,12
 399 21 399 21 328 2 c 0,13,14
 321 0 321 0 314 -1 c 2,15,-1
 299 -3 l 2,16,17
 287 -5 287 -5 275 -6 c 128,-1,18
 263 -7 263 -7 252 -7 c 0,19,20
 165 -7 165 -7 103 55.5 c 128,-1,21
 41 118 41 118 41 242 c 0,22,23
 41 256 41 256 42.5 272 c 128,-1,24
 44 288 44 288 46 305 c 0,25,26
 46 306 46 306 46.5 307.5 c 128,-1,27
 47 309 47 309 47 310 c 0,28,29
 47 313 47 313 47.5 316 c 128,-1,30
 48 319 48 319 48 322 c 0,31,32
 62 428 62 428 122.5 499 c 128,-1,33
 183 570 183 570 252 604 c 0,34,35
 281 618 281 618 309 626 c 128,-1,36
 337 634 337 634 362 635 c 0,37,38
 382 635 382 635 394 630 c 128,-1,39
 406 625 406 625 410 619 c 0,40,41
 410 618 410 618 410.5 617 c 128,-1,42
 411 616 411 616 411 615 c 2,43,-1
 411 614 l 2,44,45
 411 613 411 613 410 612 c 0,46,47
 408 609 408 609 402.5 606 c 128,-1,48
 397 603 397 603 388 602 c 0,49,50
 279 587 279 587 207.5 510.5 c 128,-1,51
 136 434 136 434 121 308 c 1,0,1
121 262 m 1,52,-1
 121 258 l 2,53,54
 121 255 121 255 120 252 c 2,55,-1
 120 251 l 1,56,-1
 120 250 l 2,57,58
 120 247 120 247 119.5 244 c 128,-1,59
 119 241 119 241 119 239 c 0,60,61
 119 139 119 139 157 88 c 128,-1,62
 195 37 195 37 242 28 c 1,63,-1
 244 28 l 1,64,-1
 247 28 l 2,65,66
 248 27 248 27 250 27 c 2,67,-1
 252 27 l 1,68,-1
 258 27 l 2,69,70
 262 27 262 27 266 28 c 0,71,72
 310 33 310 33 347.5 72.5 c 128,-1,73
 385 112 385 112 388 181 c 2,74,-1
 388 189 l 2,75,76
 388 249 388 249 351.5 291 c 128,-1,77
 315 333 315 333 262 333 c 0,78,79
 231 333 231 333 195 316.5 c 128,-1,80
 159 300 159 300 121 262 c 1,52,-1
EndSplineSet
EndChar

StartChar: seven
Encoding: 55 55 26
Width: 531
GlyphClass: 2
Flags: W
LayerCount: 2
Fore
SplineSet
395 562 m 1,0,-1
 174 562 l 2,1,2
 168 562 168 562 161.5 561.5 c 128,-1,3
 155 561 155 561 148 559 c 0,4,5
 132 556 132 556 118.5 545 c 128,-1,6
 105 534 105 534 101 509 c 0,7,8
 101 499 101 499 95.5 491 c 128,-1,9
 90 483 90 483 84 480 c 0,10,11
 82 480 82 480 80.5 479.5 c 128,-1,12
 79 479 79 479 78 479 c 2,13,-1
 76 479 l 2,14,15
 70 480 70 480 65.5 486.5 c 128,-1,16
 61 493 61 493 61 502 c 2,17,-1
 61 589 l 2,18,19
 61 614 61 614 74 618 c 128,-1,20
 87 622 87 622 121 622 c 2,21,-1
 415 622 l 2,22,23
 440 622 440 622 452 619 c 128,-1,24
 464 616 464 616 464 605 c 0,25,26
 464 601 464 601 462 593.5 c 128,-1,27
 460 586 460 586 456 575 c 2,28,-1
 242 15 l 1,29,-1
 242 13 l 1,30,31
 236 -5 236 -5 226 -11 c 128,-1,32
 216 -17 216 -17 181 -17 c 0,33,34
 168 -17 168 -17 159.5 -13.5 c 128,-1,35
 151 -10 151 -10 151 0 c 0,36,37
 151 5 151 5 153.5 14.5 c 128,-1,38
 156 24 156 24 161 35 c 2,39,-1
 395 562 l 1,0,-1
EndSplineSet
EndChar

StartChar: eight
Encoding: 56 56 27
Width: 531
GlyphClass: 2
Flags: W
LayerCount: 2
Fore
SplineSet
201 315 m 1,0,1
 141 337 141 337 109 374.5 c 128,-1,2
 77 412 77 412 72 452 c 0,3,4
 72 457 72 457 71.5 461 c 128,-1,5
 71 465 71 465 71 469 c 2,6,-1
 71 476 l 2,7,8
 71 479 71 479 72 483 c 0,9,10
 78 542 78 542 131 591.5 c 128,-1,11
 184 641 184 641 269 643 c 2,12,-1
 279 643 l 2,13,14
 365 643 365 643 414 602 c 128,-1,15
 463 561 463 561 463 507 c 0,16,17
 463 497 463 497 461 487 c 128,-1,18
 459 477 459 477 456 467 c 0,19,20
 444 434 444 434 411 402.5 c 128,-1,21
 378 371 378 371 322 348 c 1,22,23
 398 327 398 327 436 284 c 128,-1,24
 474 241 474 241 480 194 c 0,25,26
 480 189 480 189 480.5 184.5 c 128,-1,27
 481 180 481 180 481 176 c 2,28,-1
 481 174 l 1,29,-1
 481 170 l 2,30,31
 478 102 478 102 416.5 45.5 c 128,-1,32
 355 -11 355 -11 249 -11 c 0,33,34
 143 -8 143 -8 90.5 37 c 128,-1,35
 38 82 38 82 38 138 c 0,36,37
 38 146 38 146 39 153.5 c 128,-1,38
 40 161 40 161 42 169 c 0,39,40
 53 214 53 214 93.5 254.5 c 128,-1,41
 134 295 134 295 201 315 c 1,0,1
235 295 m 1,42,43
 184 277 184 277 148 238 c 128,-1,44
 112 199 112 199 108 155 c 1,45,-1
 108 151 l 1,46,-1
 108 146 l 2,47,48
 108 142 108 142 108.5 137.5 c 128,-1,49
 109 133 109 133 110 129 c 0,50,51
 111 120 111 120 114 111.5 c 128,-1,52
 117 103 117 103 121 95 c 0,53,54
 136 64 136 64 171.5 47 c 128,-1,55
 207 30 207 30 247 30 c 0,56,57
 253 30 253 30 259.5 30.5 c 128,-1,58
 266 31 266 31 273 32 c 0,59,60
 323 38 323 38 365.5 68 c 128,-1,61
 408 98 408 98 408 148 c 2,62,-1
 408 154 l 1,63,64
 404 199 404 199 372 226.5 c 128,-1,65
 340 254 340 254 301 271 c 0,66,67
 284 278 284 278 266 284 c 2,68,-1
 235 295 l 1,42,43
289 368 m 1,69,70
 320 381 320 381 346 404.5 c 128,-1,71
 372 428 372 428 387 454 c 0,72,73
 393 466 393 466 397 478 c 128,-1,74
 401 490 401 490 401 501 c 2,75,-1
 401 509 l 1,76,77
 392 554 392 554 355.5 577 c 128,-1,78
 319 600 319 600 277 602 c 2,79,-1
 273 602 l 1,80,-1
 270 602 l 2,81,82
 227 602 227 602 189 580 c 128,-1,83
 151 558 151 558 141 516 c 0,84,85
 141 513 141 513 140.5 510.5 c 128,-1,86
 140 508 140 508 140 505 c 0,87,88
 139 502 139 502 138.5 499.5 c 128,-1,89
 138 497 138 497 138 494 c 0,90,91
 138 446 138 446 179 418.5 c 128,-1,92
 220 391 220 391 289 368 c 1,69,70
EndSplineSet
EndChar

StartChar: nine
Encoding: 57 57 28
Width: 531
GlyphClass: 2
Flags: W
LayerCount: 2
Fore
SplineSet
388 322 m 1,0,1
 377 312 377 312 366 303.5 c 128,-1,2
 355 295 355 295 344 288 c 0,3,4
 311 266 311 266 278.5 255.5 c 128,-1,5
 246 245 246 245 217 245 c 0,6,7
 143 245 143 245 92 300 c 128,-1,8
 41 355 41 355 41 431 c 0,9,10
 41 450 41 450 45 470 c 128,-1,11
 49 490 49 490 57 511 c 0,12,13
 62 526 62 526 70 540.5 c 128,-1,14
 78 555 78 555 88 569 c 0,15,16
 113 607 113 607 158 627 c 128,-1,17
 203 647 203 647 252 647 c 0,18,19
 259 647 259 647 266.5 646.5 c 128,-1,20
 274 646 274 646 282 645 c 0,21,22
 354 635 354 635 415 573 c 128,-1,23
 476 511 476 511 476 386 c 2,24,-1
 476 368 l 1,25,26
 472 228 472 228 404 141.5 c 128,-1,27
 336 55 336 55 255 17 c 0,28,29
 223 3 223 3 192 -4 c 128,-1,30
 161 -11 161 -11 134 -11 c 0,31,32
 116 -11 116 -11 106.5 -6.5 c 128,-1,33
 97 -2 97 -2 95 3 c 2,34,-1
 95 4 l 1,35,-1
 95 5 l 2,36,37
 95 6 95 6 95.5 7.5 c 128,-1,38
 96 9 96 9 97 11 c 0,39,40
 100 17 100 17 109 22.5 c 128,-1,41
 118 28 118 28 128 28 c 0,42,43
 234 36 234 36 299 107.5 c 128,-1,44
 364 179 364 179 382 263 c 0,45,46
 385 278 385 278 386.5 292.5 c 128,-1,47
 388 307 388 307 388 322 c 1,0,1
388 368 m 1,48,-1
 388 391 l 2,49,50
 388 498 388 498 351.5 545.5 c 128,-1,51
 315 593 315 593 269 602 c 1,52,-1
 255 602 l 2,53,54
 251 602 251 602 247 601.5 c 128,-1,55
 243 601 243 601 239 601 c 0,56,57
 199 595 199 595 165 566.5 c 128,-1,58
 131 538 131 538 128 496 c 0,59,60
 127 491 127 491 126.5 485.5 c 128,-1,61
 126 480 126 480 125 475 c 0,62,63
 125 469 125 469 124.5 463.5 c 128,-1,64
 124 458 124 458 124 453 c 0,65,66
 124 377 124 377 160 333.5 c 128,-1,67
 196 290 196 290 247 290 c 0,68,69
 265 290 265 290 285 296 c 128,-1,70
 305 302 305 302 325 314 c 0,71,72
 341 324 341 324 357 337.5 c 128,-1,73
 373 351 373 351 388 368 c 1,48,-1
EndSplineSet
EndChar

StartChar: colon
Encoding: 58 58 29
Width: 269
GlyphClass: 2
Flags: W
LayerCount: 2
Fore
SplineSet
78 316 m 128,-1,1
 78 336 78 336 91.5 349 c 128,-1,2
 105 362 105 362 124 362 c 0,3,4
 144.473684211 362 144.473684211 362 157.736842105 350 c 128,-1,5
 171 338 171 338 171 317.5 c 128,-1,6
 171 297 171 297 156.5 286 c 128,-1,7
 142 275 142 275 124.5 275 c 128,-1,8
 107 275 107 275 92.5 285.5 c 128,-1,0
 78 296 78 296 78 316 c 128,-1,1
78 35 m 128,-1,10
 78 55 78 55 91.5 68 c 128,-1,11
 105 81 105 81 124 81 c 0,12,13
 144.473684211 81 144.473684211 81 157.736842105 69 c 128,-1,14
 171 57 171 57 171 36.5 c 128,-1,15
 171 16 171 16 156.5 5 c 128,-1,16
 142 -6 142 -6 124.5 -6 c 128,-1,17
 107 -6 107 -6 92.5 4.5 c 128,-1,9
 78 15 78 15 78 35 c 128,-1,10
EndSplineSet
EndChar

StartChar: semicolon
Encoding: 59 59 30
Width: 269
GlyphClass: 2
Flags: W
LayerCount: 2
Fore
SplineSet
148 -9 m 2,0,-1
 148 -5 l 1,1,2
 145.5 5 145.5 5 144 8 c 0,3,4
 97.9864864865 -10.4054054054 97.9864864865 -10.4054054054 79.5 11 c 0,5,6
 70 22 70 22 70 30 c 0,7,8
 70 56.5185185185 70 56.5185185185 87 72.2592592593 c 128,-1,9
 104 88 104 88 129 88 c 128,-1,10
 154 88 154 88 167.5 66.5 c 128,-1,11
 181 45 181 45 181 24.5 c 0,12,13
 181 -35.8 181 -35.8 152 -88 c 0,14,15
 130.918918919 -125.945945946 130.918918919 -125.945945946 105.5 -137.5 c 0,16,17
 100 -140 100 -140 96.5 -140 c 0,18,19
 89.6666666667 -140 89.6666666667 -140 87 -132 c 0,20,21
 86 -131 86 -131 86 -130 c 2,22,-1
 86 -128 l 2,23,24
 86 -121.8 86 -121.8 90.5 -116.4 c 128,-1,25
 95 -111 95 -111 102.5 -107 c 128,-1,26
 110 -103 110 -103 121 -86 c 128,-1,27
 132 -69 132 -69 137.5 -54 c 0,28,29
 148 -25.3636363636 148 -25.3636363636 148 -9 c 2,0,-1
118 254 m 2,30,-1
 115 254 l 1,31,32
 99 255 99 255 85 265.5 c 128,-1,33
 71 276 71 276 71 295.5 c 128,-1,34
 71 315 71 315 84.5 328.5 c 128,-1,35
 98 342 98 342 118 342 c 1,36,-1
 130 341 l 1,37,38
 164 330.538461538 164 330.538461538 164 303.769230769 c 128,-1,39
 164 277 164 277 149.5 265.5 c 128,-1,40
 135 254 135 254 118 254 c 2,30,-1
EndSplineSet
EndChar

StartChar: less
Encoding: 60 60 31
Width: 571
GlyphClass: 2
Flags: W
LayerCount: 2
Fore
SplineSet
48 194 m 1,0,-1
 48 249 l 1,1,-1
 522 469 l 1,2,-1
 522 408 l 1,3,-1
 108 222 l 1,4,-1
 522 41 l 1,5,-1
 522 -18 l 1,6,-1
 48 194 l 1,0,-1
EndSplineSet
EndChar

StartChar: equal
Encoding: 61 61 32
Width: 571
GlyphClass: 2
Flags: W
LayerCount: 2
Fore
SplineSet
55 128 m 1,0,-1
 55 187 l 1,1,-1
 509 187 l 1,2,-1
 509 128 l 1,3,-1
 55 128 l 1,0,-1
55 262 m 1,4,-1
 55 322 l 1,5,-1
 509 322 l 1,6,-1
 509 262 l 1,7,-1
 55 262 l 1,4,-1
EndSplineSet
EndChar

StartChar: greater
Encoding: 62 62 33
Width: 571
GlyphClass: 2
Flags: W
LayerCount: 2
Fore
SplineSet
41 -25 m 1,0,-1
 41 35 l 1,1,-1
 456 222 l 1,2,-1
 41 408 l 1,3,-1
 41 469 l 1,4,-1
 516 249 l 1,5,-1
 516 194 l 1,6,-1
 41 -25 l 1,0,-1
EndSplineSet
EndChar

StartChar: question
Encoding: 63 63 34
Width: 389
GlyphClass: 2
Flags: W
LayerCount: 2
Fore
SplineSet
98 41 m 0,0,1
 98 61 98 61 111.5 74.5 c 128,-1,2
 125 88 125 88 144 88 c 0,3,4
 147 88 147 88 150.5 87.5 c 128,-1,5
 154 87 154 87 157 86 c 0,6,7
 170 83 170 83 180.5 73.5 c 128,-1,8
 191 64 191 64 191 48 c 0,9,10
 191 24 191 24 177 12.5 c 128,-1,11
 163 1 163 1 147 0 c 2,12,-1
 146 0 l 1,13,-1
 144 0 l 2,14,15
 127 0 127 0 112.5 11 c 128,-1,16
 98 22 98 22 98 41 c 0,0,1
118 181 m 2,17,-1
 118 295 l 2,18,19
 118 305 118 305 124 310.5 c 128,-1,20
 130 316 130 316 141 320 c 2,21,-1
 187 341 l 2,22,23
 216 353 216 353 246 390 c 1,24,-1
 252 399 l 2,25,26
 256 403 256 403 259 408 c 0,27,28
 267 421 267 421 272 438 c 128,-1,29
 277 455 277 455 279 473 c 0,30,31
 279 478 279 478 279.5 483 c 128,-1,32
 280 488 280 488 280 493 c 2,33,-1
 280 503 l 2,34,35
 280 507 280 507 279 512 c 0,36,37
 276 540 276 540 263 565 c 128,-1,38
 250 590 250 590 226 602 c 0,39,40
 217 606 217 606 206 608.5 c 128,-1,41
 195 611 195 611 184 613 c 0,42,43
 180 613 180 613 175.5 613.5 c 128,-1,44
 171 614 171 614 167 614 c 2,45,-1
 164 614 l 1,46,-1
 162 614 l 2,47,48
 132 612 132 612 107.5 596 c 128,-1,49
 83 580 83 580 83 549 c 0,50,51
 83 548 83 548 83 547 c 2,52,-1
 84 546 l 2,53,54
 84 545 84 545 84.5 544 c 128,-1,55
 85 543 85 543 85 542 c 2,56,-1
 85 531 l 2,57,58
 85 516 85 516 75.5 507 c 128,-1,59
 66 498 66 498 53 498 c 2,60,-1
 49 498 l 2,61,62
 48 498 48 498 46 499 c 0,63,64
 44 499 44 499 42.5 499.5 c 128,-1,65
 41 500 41 500 40 500 c 0,66,67
 38 501 38 501 36 501.5 c 128,-1,68
 34 502 34 502 32 502 c 0,69,70
 31 502 31 502 30 503 c 0,71,72
 25 506 25 506 21 514 c 128,-1,73
 17 522 17 522 17 532 c 128,-1,74
 17 542 17 542 20.5 554.5 c 128,-1,75
 24 567 24 567 32 580 c 0,76,77
 38 591 38 591 48 602 c 128,-1,78
 58 613 58 613 71 622 c 0,79,80
 95 638 95 638 121.5 646.5 c 128,-1,81
 148 655 148 655 176 655 c 0,82,83
 242 655 242 655 297 612 c 128,-1,84
 352 569 352 569 352 498 c 2,85,-1
 352 483 l 1,86,87
 345 403 345 403 316.5 364.5 c 128,-1,88
 288 326 288 326 256 308 c 0,89,90
 242 300 242 300 228 295 c 2,91,-1
 202 284 l 2,92,93
 183 275 183 275 170.5 265 c 128,-1,94
 158 255 158 255 158 235 c 2,95,-1
 158 181 l 2,96,97
 158 171 158 171 152 166 c 128,-1,98
 146 161 146 161 138 161 c 0,99,100
 131 161 131 161 124.5 166 c 128,-1,101
 118 171 118 171 118 181 c 2,17,-1
EndSplineSet
EndChar

StartChar: at
Encoding: 64 64 35
Width: 714
GlyphClass: 2
Flags: W
LayerCount: 2
Fore
SplineSet
360 650 m 2,0,1
 379 650 379 650 414.5 643 c 128,-1,2
 450 636 450 636 488 617 c 0,3,4
 540 592 540 592 583.5 539.5 c 128,-1,5
 627 487 627 487 633 395 c 1,6,-1
 633 368 l 2,7,8
 633 287 633 287 592.5 229.5 c 128,-1,9
 552 172 552 172 504 145 c 0,10,11
 484 134 484 134 465 128.5 c 128,-1,12
 446 123 446 123 430 123 c 0,13,14
 406 123 406 123 388.5 138 c 128,-1,15
 371 153 371 153 371 181 c 0,16,17
 371 182 371 182 371.5 184 c 128,-1,18
 372 186 372 186 372 188 c 0,19,20
 372 189 372 189 372.5 191 c 128,-1,21
 373 193 373 193 373 194 c 1,22,23
 359 172 359 172 341 157.5 c 128,-1,24
 323 143 323 143 304 136 c 0,25,26
 293 132 293 132 283 130 c 128,-1,27
 273 128 273 128 264 128 c 0,28,29
 236 128 236 128 210.5 144 c 128,-1,30
 185 160 185 160 172 187 c 0,31,32
 171 189 171 189 170.5 190.5 c 128,-1,33
 170 192 170 192 170 194 c 0,34,35
 167 204 167 204 164 219 c 128,-1,36
 161 234 161 234 161 252 c 0,37,38
 161 277 161 277 166.5 307 c 128,-1,39
 172 337 172 337 186 368 c 0,40,41
 202 405 202 405 231 440 c 128,-1,42
 260 475 260 475 307 502 c 0,43,44
 314 507 314 507 325.5 510 c 128,-1,45
 337 513 337 513 349 514 c 2,46,-1
 352 514 l 1,47,-1
 355 514 l 2,48,49
 363 514 363 514 372 512.5 c 128,-1,50
 381 511 381 511 390 509 c 0,51,52
 408 503 408 503 425 492 c 128,-1,53
 442 481 442 481 454 463 c 1,54,-1
 468 502 l 1,55,-1
 527 502 l 1,56,-1
 428 201 l 2,57,58
 427 199 427 199 426.5 196.5 c 128,-1,59
 426 194 426 194 426 192 c 0,60,61
 425 189 425 189 425 186 c 2,62,-1
 425 182 l 2,63,64
 425 170 425 170 432.5 163 c 128,-1,65
 440 156 440 156 451 156 c 0,66,67
 463 156 463 156 479.5 163 c 128,-1,68
 496 170 496 170 513 183 c 0,69,70
 543 207 543 207 569.5 252.5 c 128,-1,71
 596 298 596 298 600 362 c 1,72,-1
 600 371 l 2,73,74
 600 387 600 387 597 404.5 c 128,-1,75
 594 422 594 422 587 439 c 0,76,77
 565 503 565 503 505.5 556 c 128,-1,78
 446 609 446 609 360 609 c 0,79,80
 224 609 224 609 155 517.5 c 128,-1,81
 86 426 86 426 86 315 c 0,82,83
 86 179 86 179 170.5 103.5 c 128,-1,84
 255 28 255 28 357 28 c 0,85,86
 363 28 363 28 369.5 28.5 c 128,-1,87
 376 29 376 29 383 29 c 0,88,89
 443 35 443 35 500 71 c 128,-1,90
 557 107 557 107 594 174 c 1,91,-1
 627 174 l 1,92,93
 590 87 590 87 520.5 43 c 128,-1,94
 451 -1 451 -1 375 -6 c 0,95,96
 370 -7 370 -7 365 -7 c 2,97,-1
 355 -7 l 1,98,-1
 350 -7 l 1,99,-1
 346 -7 l 2,100,101
 235 -4 235 -4 142 78.5 c 128,-1,102
 49 161 49 161 46 315 c 2,103,-1
 46 318 l 1,104,-1
 46 321 l 2,105,106
 45 321 45 321 45 322 c 2,107,-1
 45 323 l 1,108,-1
 45 325 l 1,109,-1
 45 327 l 2,110,111
 45 458 45 458 137.5 554 c 128,-1,112
 230 650 230 650 348 650 c 2,113,-1
 360 650 l 2,0,1
294 421 m 0,114,115
 288 415 288 415 281.5 404 c 128,-1,116
 275 393 275 393 268 378 c 0,117,118
 259 360 259 360 251 339 c 128,-1,119
 243 318 243 318 237 296 c 0,120,121
 232 278 232 278 229 260.5 c 128,-1,122
 226 243 226 243 226 227 c 0,123,124
 226 208 226 208 232.5 191 c 128,-1,125
 239 174 239 174 254 167 c 0,126,127
 256 167 256 167 257.5 166.5 c 128,-1,128
 259 166 259 166 260 165 c 0,129,130
 263 164 263 164 266 163.5 c 128,-1,131
 269 163 269 163 272 163 c 0,132,133
 277 163 277 163 282.5 164 c 128,-1,134
 288 165 288 165 294 168 c 0,135,136
 325 181 325 181 353.5 222.5 c 128,-1,137
 382 264 382 264 400 311 c 0,138,139
 411 338 411 338 417 364 c 128,-1,140
 423 390 423 390 423 411 c 2,141,-1
 423 414 l 1,142,-1
 423 416 l 2,143,144
 423 421 423 421 422.5 425.5 c 128,-1,145
 422 430 422 430 421 434 c 0,146,147
 421 437 421 437 420.5 439 c 128,-1,148
 420 441 420 441 420 443 c 0,149,150
 414 458 414 458 403.5 466.5 c 128,-1,151
 393 475 393 475 381 477 c 0,152,153
 379 478 379 478 377 478 c 2,154,-1
 373 478 l 2,155,156
 364 478 364 478 355 475 c 128,-1,157
 346 472 346 472 337 466 c 0,158,159
 326 459 326 459 315 447.5 c 128,-1,160
 304 436 304 436 294 421 c 0,114,115
EndSplineSet
EndChar

StartChar: A
Encoding: 65 65 36
Width: 614
GlyphClass: 2
Flags: W
LayerCount: 2
Fore
SplineSet
143 222 m 1,0,-1
 137 205 l 1,1,-1
 129 185 l 1,2,-1
 121 159 l 1,3,-1
 113 131 l 2,4,5
 110 118 110 118 107.5 105.5 c 128,-1,6
 105 93 105 93 103 81 c 0,7,8
 103 68 103 68 110 59.5 c 128,-1,9
 117 51 117 51 126 46 c 2,10,-1
 134 41 l 2,11,12
 137 38 137 38 141 36 c 0,13,14
 144 34 144 34 146.5 31 c 128,-1,15
 149 28 149 28 149 25 c 2,16,-1
 149 22 l 2,17,18
 149 7 149 7 123.5 4.5 c 128,-1,19
 98 2 98 2 63 2 c 0,20,21
 29 2 29 2 10 4.5 c 128,-1,22
 -9 7 -9 7 -9 22 c 0,23,24
 -9 31 -9 31 -6.5 34.5 c 128,-1,25
 -4 38 -4 38 0 41 c 0,26,27
 6 45 6 45 17 54.5 c 128,-1,28
 28 64 28 64 40 99 c 0,29,30
 41 101 41 101 41.5 103.5 c 128,-1,31
 42 106 42 106 43 108 c 0,32,33
 55 149 55 149 73 196 c 2,34,-1
 109 290 l 1,35,-1
 126 330 l 1,36,-1
 142 369 l 2,37,38
 178 453 178 453 210.5 520 c 128,-1,39
 243 587 243 587 257 609 c 0,40,41
 267 624 267 624 274 631 c 128,-1,42
 281 638 281 638 287 638 c 128,-1,43
 293 638 293 638 300 631 c 128,-1,44
 307 624 307 624 317 609 c 0,45,46
 353 556 353 556 386 488.5 c 128,-1,47
 419 421 419 421 447 351 c 0,48,49
 477 277 477 277 502 206 c 2,50,-1
 544 81 l 2,51,52
 548 68 548 68 553 61 c 128,-1,53
 558 54 558 54 563 50 c 0,54,55
 568 47 568 47 572.5 45.5 c 128,-1,56
 577 44 577 44 582 43 c 0,57,58
 588 42 588 42 592.5 38.5 c 128,-1,59
 597 35 597 35 597 22 c 0,60,61
 597 7 597 7 574 4.5 c 128,-1,62
 551 2 551 2 511 2 c 128,-1,63
 471 2 471 2 448 4.5 c 128,-1,64
 425 7 425 7 425 22 c 0,65,66
 425 33 425 33 431.5 37.5 c 128,-1,67
 438 42 438 42 447 45 c 0,68,69
 455 48 455 48 461.5 53 c 128,-1,70
 468 58 468 58 468 68 c 0,71,72
 468 70 468 70 467.5 73.5 c 128,-1,73
 467 77 467 77 466 81 c 0,74,75
 465 83 465 83 464.5 84.5 c 128,-1,76
 464 86 464 86 464 88 c 0,77,78
 459 101 459 101 453 119 c 2,79,-1
 440 157 l 2,80,81
 439 159 439 159 438 161.5 c 128,-1,82
 437 164 437 164 436 167 c 2,83,-1
 426 196 l 2,84,85
 421 211 421 211 416 222 c 1,86,-1
 143 222 l 1,0,-1
156 269 m 1,87,-1
 396 269 l 1,88,-1
 277 542 l 1,89,-1
 156 269 l 1,87,-1
EndSplineSet
EndChar

StartChar: B
Encoding: 66 66 37
Width: 594
GlyphClass: 2
Flags: W
LayerCount: 2
Fore
SplineSet
73 68 m 2,0,-1
 73 569 l 2,1,2
 73 583 73 583 64.5 587 c 128,-1,3
 56 591 56 591 47 593 c 0,4,5
 45 593 45 593 44 593.5 c 128,-1,6
 43 594 43 594 42 594 c 0,7,8
 33 595 33 595 26.5 598 c 128,-1,9
 20 601 20 601 20 609 c 0,10,11
 20 623 20 623 61.5 626 c 128,-1,12
 103 629 103 629 152 629 c 2,13,-1
 162 629 l 1,14,-1
 172 629 l 1,15,-1
 360 629 l 2,16,17
 416 629 416 629 461.5 596.5 c 128,-1,18
 507 564 507 564 507 509 c 128,-1,19
 507 454 507 454 469.5 408.5 c 128,-1,20
 432 363 432 363 367 348 c 1,21,22
 462 335 462 335 508 284 c 128,-1,23
 554 233 554 233 554 167 c 2,24,-1
 554 154 l 1,25,26
 549 84 549 84 484 43 c 128,-1,27
 419 2 419 2 333 2 c 2,28,-1
 126 2 l 2,29,30
 77 2 77 2 48.5 4.5 c 128,-1,31
 20 7 20 7 20 22 c 0,32,33
 20 34 20 34 27.5 37 c 128,-1,34
 35 40 35 40 44 42 c 2,35,-1
 45 42 l 1,36,-1
 46 42 l 2,37,38
 56 44 56 44 64.5 48.5 c 128,-1,39
 73 53 73 53 73 68 c 2,0,-1
153 282 m 1,40,-1
 153 81 l 2,41,42
 153 62 153 62 180 53.5 c 128,-1,43
 207 45 207 45 244 45 c 0,44,45
 254 45 254 45 264 45.5 c 128,-1,46
 274 46 274 46 284 47 c 0,47,48
 313 49 313 49 340.5 55 c 128,-1,49
 368 61 368 61 386 68 c 0,50,51
 416 78 416 78 436 105.5 c 128,-1,52
 456 133 456 133 461 164 c 0,53,54
 462 170 462 170 462.5 175.5 c 128,-1,55
 463 181 463 181 463 186 c 2,56,-1
 463 190 l 1,57,-1
 463 195 l 2,58,59
 462 204 462 204 459.5 213 c 128,-1,60
 457 222 457 222 454 229 c 0,61,62
 429 274 429 274 393 293 c 128,-1,63
 357 312 357 312 307 322 c 1,64,-1
 153 282 l 1,40,-1
153 328 m 1,65,-1
 206 339 l 2,66,67
 240 346 240 346 275 358 c 0,68,69
 330 375 330 375 375 406 c 128,-1,70
 420 437 420 437 420 489 c 0,71,72
 420 544 420 544 369.5 569.5 c 128,-1,73
 319 595 319 595 254 595 c 0,74,75
 213 595 213 595 183 589.5 c 128,-1,76
 153 584 153 584 153 569 c 2,77,-1
 153 328 l 1,65,-1
EndSplineSet
EndChar

StartChar: C
Encoding: 67 67 38
Width: 614
GlyphClass: 2
Flags: W
LayerCount: 2
Fore
SplineSet
23 315 m 1,0,1
 34 464 34 464 134.5 554.5 c 128,-1,2
 235 645 235 645 357 645 c 4,3,4
 368 645 368 645 379 644 c 2,5,-1
 401 642 l 1,6,-1
 430 636 l 2,7,8
 444 633 444 633 458 629 c 0,9,10
 459 629 459 629 459.5 628.5 c 128,-1,11
 460 628 460 628 461 628 c 0,12,13
 501 614 501 614 536 592.5 c 128,-1,14
 571 571 571 571 576 549 c 0,15,16
 577 547 577 547 577 546 c 2,17,-1
 577 542 l 1,18,-1
 577 463 l 2,19,20
 577 454 577 454 572 446.5 c 128,-1,21
 567 439 567 439 561 439 c 128,-1,22
 555 439 555 439 547.5 445.5 c 128,-1,23
 540 452 540 452 532 466 c 2,24,-1
 528 474 l 2,25,26
 526 478 526 478 524 483 c 0,27,28
 501 539 501 539 454.5 565.5 c 128,-1,29
 408 592 408 592 355 592 c 0,30,31
 347 592 347 592 338 591.5 c 128,-1,32
 329 591 329 591 321 589 c 0,33,34
 241 576 241 576 175 506 c 128,-1,35
 109 436 109 436 109 315 c 0,36,37
 109 179 109 179 183 108.5 c 128,-1,38
 257 38 257 38 348 38 c 0,39,40
 357 38 357 38 366 38.5 c 128,-1,41
 375 39 375 39 384 41 c 0,42,43
 425 47 425 47 463.5 67 c 128,-1,44
 502 87 502 87 531 121 c 0,45,46
 533 124 533 124 535.5 126 c 128,-1,47
 538 128 538 128 540 130 c 0,48,49
 548 137 548 137 555 140 c 128,-1,50
 562 143 562 143 567 143 c 0,51,52
 575 143 575 143 579.5 137.5 c 128,-1,53
 584 132 584 132 584 124 c 0,54,55
 584 121 584 121 583 116.5 c 128,-1,56
 582 112 582 112 579 108 c 0,57,58
 578 104 578 104 575.5 101 c 128,-1,59
 573 98 573 98 570 95 c 0,60,61
 530 47 530 47 472.5 21.5 c 128,-1,62
 415 -4 415 -4 355 -8 c 0,63,64
 349 -9 349 -9 344 -9 c 2,65,-1
 332 -9 l 2,66,67
 216 -9 216 -9 119 69 c 128,-1,68
 22 147 22 147 22 299 c 2,69,-1
 22 302 l 2,70,71
 22 304 22 304 23 307 c 2,72,-1
 23 308 l 1,73,-1
 23 312 l 1,74,-1
 23 315 l 1,0,1
EndSplineSet
EndChar

StartChar: D
Encoding: 68 68 39
Width: 634
GlyphClass: 2
Flags: W
LayerCount: 2
Fore
SplineSet
73 75 m 2,0,-1
 73 575 l 2,1,2
 73 588 73 588 66 591 c 128,-1,3
 59 594 59 594 50 595 c 2,4,-1
 48 595 l 2,5,6
 40 595 40 595 33.5 597 c 128,-1,7
 27 599 27 599 27 609 c 128,-1,8
 27 619 27 619 38 623 c 128,-1,9
 49 627 49 627 62 628 c 0,10,11
 69 629 69 629 75 629 c 2,12,-1
 86 629 l 1,13,-1
 287 629 l 2,14,15
 446 629 446 629 525 532.5 c 128,-1,16
 604 436 604 436 605 321 c 2,17,-1
 605 320 l 1,18,-1
 605 318 l 1,19,-1
 605 316 l 1,20,-1
 605 312 l 2,21,22
 603 196 603 196 524 99 c 128,-1,23
 445 2 445 2 294 2 c 2,24,-1
 66 2 l 2,25,26
 37 2 37 2 28.5 4.5 c 128,-1,27
 20 7 20 7 20 22 c 0,28,29
 20 33 20 33 27 36.5 c 128,-1,30
 34 40 34 40 42 42 c 0,31,32
 43 43 43 43 44 43 c 2,33,-1
 47 43 l 2,34,35
 56 46 56 46 64.5 51.5 c 128,-1,36
 73 57 73 57 73 75 c 2,0,-1
153 95 m 2,37,38
 153 91 153 91 154 87 c 128,-1,39
 155 83 155 83 158 79 c 0,40,41
 165 66 165 66 185.5 55.5 c 128,-1,42
 206 45 206 45 244 45 c 0,43,44
 259 45 259 45 279 48 c 128,-1,45
 299 51 299 51 320 55 c 0,46,47
 415 75 415 75 463 147 c 128,-1,48
 511 219 511 219 516 302 c 0,49,50
 517 307 517 307 517 312 c 2,51,-1
 517 323 l 1,52,-1
 517 328 l 1,53,-1
 517 333 l 2,54,55
 515 404 515 404 483.5 468 c 128,-1,56
 452 532 452 532 393 562 c 0,57,58
 374 570 374 570 351 577 c 128,-1,59
 328 584 328 584 303 589 c 0,60,61
 288 592 288 592 273 593.5 c 128,-1,62
 258 595 258 595 244 595 c 0,63,64
 207 595 207 595 180 581.5 c 128,-1,65
 153 568 153 568 153 536 c 2,66,-1
 153 95 l 2,37,38
EndSplineSet
EndChar

StartChar: E
Encoding: 69 69 40
Width: 531
GlyphClass: 2
Flags: W
LayerCount: 2
Fore
SplineSet
148 322 m 1,0,-1
 148 154 l 2,1,2
 148 105 148 105 163 76.5 c 128,-1,3
 178 48 178 48 229 48 c 2,4,-1
 328 48 l 2,5,6
 367 48 367 48 389 55 c 128,-1,7
 411 62 411 62 430 75 c 2,8,-1
 446 87 l 1,9,-1
 463 101 l 2,10,11
 465 102 465 102 466.5 103 c 128,-1,12
 468 104 468 104 469 105 c 0,13,14
 475 109 475 109 481 111.5 c 128,-1,15
 487 114 487 114 491 114 c 2,16,-1
 492 114 l 1,17,-1
 493 114 l 2,18,19
 496 113 496 113 499 108.5 c 128,-1,20
 502 104 502 104 502 98 c 2,21,-1
 502 88 l 1,22,-1
 489 22 l 2,23,24
 487 8 487 8 468 3 c 128,-1,25
 449 -2 449 -2 426 -2 c 2,26,-1
 424 -2 l 1,27,-1
 423 -2 l 1,28,-1
 421 -2 l 1,29,-1
 419 -2 l 2,30,31
 408 -2 408 -2 397.5 -1 c 128,-1,32
 387 0 387 0 377 0 c 128,-1,33
 367 0 367 0 359.5 1 c 128,-1,34
 352 2 352 2 348 2 c 2,35,-1
 134 2 l 2,36,37
 128 2 128 2 120 1.5 c 128,-1,38
 112 1 112 1 104 1 c 2,39,-1
 100 1 l 1,40,-1
 97 1 l 2,41,42
 90 0 90 0 83 0 c 2,43,-1
 70 0 l 2,44,45
 50 0 50 0 36 4 c 128,-1,46
 22 8 22 8 22 22 c 0,47,48
 22 33 22 33 29 36.5 c 128,-1,49
 36 40 36 40 44 42 c 0,50,51
 45 43 45 43 46 43 c 2,52,-1
 49 43 l 2,53,54
 58 46 58 46 66.5 51.5 c 128,-1,55
 75 57 75 57 75 75 c 2,56,-1
 75 569 l 2,57,58
 75 584 75 584 67.5 587.5 c 128,-1,59
 60 591 60 591 52 591 c 2,60,-1
 50 591 l 2,61,62
 42 592 42 592 35 594.5 c 128,-1,63
 28 597 28 597 28 609 c 0,64,65
 28 623 28 623 43.5 626 c 128,-1,66
 59 629 59 629 78 629 c 2,67,-1
 79 629 l 1,68,-1
 81 629 l 1,69,-1
 415 629 l 2,70,71
 436 629 436 629 449.5 623 c 128,-1,72
 463 617 463 617 463 602 c 2,73,-1
 469 549 l 2,74,75
 469 539 469 539 465.5 532.5 c 128,-1,76
 462 526 462 526 456 526 c 0,77,78
 451 526 451 526 441.5 532 c 128,-1,79
 432 538 432 538 421 549 c 0,80,81
 406 564 406 564 389.5 576.5 c 128,-1,82
 373 589 373 589 348 589 c 2,83,-1
 201 589 l 2,84,85
 197 589 197 589 192 588.5 c 128,-1,86
 187 588 187 588 182 587 c 0,87,88
 169 583 169 583 158.5 572 c 128,-1,89
 148 561 148 561 148 536 c 2,90,-1
 148 368 l 1,91,-1
 322 368 l 2,92,93
 342 368 342 368 350 372 c 128,-1,94
 358 376 358 376 363 382 c 2,95,-1
 364 383 l 2,96,97
 364 384 364 384 365 385 c 0,98,99
 368 389 368 389 373 392 c 128,-1,100
 378 395 378 395 388 395 c 0,101,102
 396 395 396 395 402 381 c 128,-1,103
 408 367 408 367 409 350 c 0,104,105
 410 346 410 346 410 343 c 2,106,-1
 410 337 l 2,107,108
 410 318 410 318 404.5 303.5 c 128,-1,109
 399 289 399 289 388 289 c 0,110,111
 384 289 384 289 381 290.5 c 128,-1,112
 378 292 378 292 375 294 c 0,113,114
 372 297 372 297 368.5 299.5 c 128,-1,115
 365 302 365 302 362 306 c 0,116,117
 354 312 354 312 343.5 317 c 128,-1,118
 333 322 333 322 315 322 c 2,119,-1
 148 322 l 1,0,-1
EndSplineSet
EndChar

StartChar: F
Encoding: 70 70 41
Width: 492
GlyphClass: 2
Flags: W
LayerCount: 2
Fore
SplineSet
148 302 m 1,0,-1
 148 81 l 2,1,2
 148 59 148 59 156.5 52.5 c 128,-1,3
 165 46 165 46 175 44 c 0,4,5
 176 44 176 44 177 43.5 c 128,-1,6
 178 43 178 43 179 43 c 0,7,8
 188 42 188 42 194.5 38.5 c 128,-1,9
 201 35 201 35 201 22 c 0,10,11
 201 7 201 7 191 4.5 c 128,-1,12
 181 2 181 2 161 2 c 2,13,-1
 95 2 l 1,14,-1
 88 2 l 1,15,-1
 81 2 l 2,16,17
 78 1 78 1 75 1 c 2,18,-1
 69 1 l 2,19,20
 62 1 62 1 56.5 0.5 c 128,-1,21
 51 0 51 0 46 0 c 0,22,23
 36 0 36 0 29 4 c 128,-1,24
 22 8 22 8 22 22 c 0,25,26
 22 32 22 32 28 35.5 c 128,-1,27
 34 39 34 39 42 40 c 0,28,29
 44 41 44 41 45.5 41 c 128,-1,30
 47 41 47 41 49 42 c 0,31,32
 58 44 58 44 66.5 51.5 c 128,-1,33
 75 59 75 59 75 81 c 2,34,-1
 75 569 l 2,35,36
 75 584 75 584 66.5 587.5 c 128,-1,37
 58 591 58 591 49 592 c 0,38,39
 39 593 39 593 30.5 596.5 c 128,-1,40
 22 600 22 600 22 615 c 0,41,42
 22 622 22 622 33 625 c 128,-1,43
 44 628 44 628 57 629 c 2,44,-1
 70 629 l 1,45,-1
 81 629 l 1,46,-1
 415 629 l 2,47,48
 436 629 436 629 449.5 623 c 128,-1,49
 463 617 463 617 463 602 c 2,50,-1
 469 549 l 2,51,52
 469 538 469 538 464 530 c 128,-1,53
 459 522 459 522 453 522 c 0,54,55
 448 522 448 522 442 527 c 128,-1,56
 436 532 436 532 430 542 c 0,57,58
 428 545 428 545 425 548.5 c 128,-1,59
 422 552 422 552 418 555 c 0,60,61
 406 567 406 567 388.5 577 c 128,-1,62
 371 587 371 587 353 589 c 2,63,-1
 350 589 l 1,64,-1
 348 589 l 1,65,-1
 201 589 l 2,66,67
 166 589 166 589 157 582.5 c 128,-1,68
 148 576 148 576 148 556 c 2,69,-1
 148 348 l 1,70,-1
 322 348 l 2,71,72
 339 348 339 348 348 352 c 128,-1,73
 357 356 357 356 363 362 c 0,74,75
 364 362 364 362 365 363 c 128,-1,76
 366 364 366 364 367 364 c 0,77,78
 372 369 372 369 378 372 c 128,-1,79
 384 375 384 375 395 375 c 0,80,81
 403 375 403 375 408.5 361 c 128,-1,82
 414 347 414 347 416 331 c 2,83,-1
 416 326 l 1,84,-1
 416 320 l 1,85,-1
 416 316 l 1,86,-1
 416 313 l 2,87,88
 415 299 415 299 410 287 c 128,-1,89
 405 275 405 275 395 275 c 0,90,91
 388 275 388 275 383.5 277 c 128,-1,92
 379 279 379 279 375 282 c 0,93,94
 374 284 374 284 372 285.5 c 128,-1,95
 370 287 370 287 367 288 c 0,96,97
 361 294 361 294 349.5 298 c 128,-1,98
 338 302 338 302 315 302 c 2,99,-1
 148 302 l 1,0,-1
EndSplineSet
EndChar

StartChar: G
Encoding: 71 71 42
Width: 654
GlyphClass: 2
Flags: W
LayerCount: 2
Fore
SplineSet
23 322 m 1,0,1
 35 473 35 473 114 546 c 128,-1,2
 193 619 193 619 285 637 c 0,3,4
 305 641 305 641 324 643 c 128,-1,5
 343 645 343 645 362 645 c 2,6,-1
 367 645 l 1,7,-1
 373 645 l 2,8,9
 399 644 399 644 425 639.5 c 128,-1,10
 451 635 451 635 471 629 c 0,11,12
 487 624 487 624 500 619 c 128,-1,13
 513 614 513 614 524 609 c 0,14,15
 555 595 555 595 569.5 579.5 c 128,-1,16
 584 564 584 564 584 542 c 2,17,-1
 584 496 l 2,18,19
 584 483 584 483 579.5 475.5 c 128,-1,20
 575 468 575 468 569 466 c 2,21,-1
 568 466 l 1,22,-1
 567 466 l 2,23,24
 563 466 563 466 558 469.5 c 128,-1,25
 553 473 553 473 547 479 c 0,26,27
 545 483 545 483 542 487 c 2,28,-1
 537 496 l 1,29,30
 516 544 516 544 467.5 571.5 c 128,-1,31
 419 599 419 599 365 600 c 2,32,-1
 362 600 l 1,33,-1
 360 600 l 2,34,35
 353 600 353 600 345.5 599.5 c 128,-1,36
 338 599 338 599 331 598 c 0,37,38
 253 588 253 588 187 520.5 c 128,-1,39
 121 453 121 453 116 315 c 0,40,41
 116 314 116 314 115.5 312.5 c 128,-1,42
 115 311 115 311 115 309 c 2,43,-1
 115 307 l 2,44,45
 114 306 114 306 114 305 c 2,46,-1
 114 303 l 2,47,48
 114 185 114 185 170 125.5 c 128,-1,49
 226 66 226 66 293 47 c 0,50,51
 313 41 313 41 333 38.5 c 128,-1,52
 353 36 353 36 371 36 c 0,53,54
 393 36 393 36 412 39.5 c 128,-1,55
 431 43 431 43 444 48 c 0,56,57
 447 49 447 49 449.5 50 c 128,-1,58
 452 51 452 51 454 52 c 0,59,60
 490 66 490 66 508 90.5 c 128,-1,61
 526 115 526 115 531 194 c 0,62,63
 531 249 531 249 511.5 262 c 128,-1,64
 492 275 492 275 464 275 c 2,65,-1
 431 275 l 2,66,67
 412 275 412 275 402.5 281.5 c 128,-1,68
 393 288 393 288 393 295 c 0,69,70
 393 297 393 297 393.5 298.5 c 128,-1,71
 394 300 394 300 395 302 c 0,72,73
 398 307 398 307 406 311 c 128,-1,74
 414 315 414 315 425 315 c 2,75,-1
 577 315 l 2,76,77
 598 315 598 315 605 308 c 128,-1,78
 612 301 612 301 612 290 c 0,79,80
 612 283 612 283 611 274.5 c 128,-1,81
 610 266 610 266 608 255 c 0,82,83
 607 244 607 244 605.5 230.5 c 128,-1,84
 604 217 604 217 604 201 c 2,85,-1
 604 196 l 2,86,87
 604 193 604 193 603 191 c 2,88,-1
 603 188 l 1,89,-1
 603 185 l 2,90,91
 603 181 603 181 602.5 177.5 c 128,-1,92
 602 174 602 174 602 171 c 0,93,94
 602 156 602 156 603 143 c 128,-1,95
 604 130 604 130 606 119 c 0,96,97
 607 108 607 108 608 99.5 c 128,-1,98
 609 91 609 91 609 85 c 0,99,100
 609 76 609 76 606 70 c 128,-1,101
 603 64 603 64 597 61 c 0,102,103
 556 32 556 32 509 15 c 128,-1,104
 462 -2 462 -2 414 -8 c 0,105,106
 401 -10 401 -10 387.5 -11 c 128,-1,107
 374 -12 374 -12 360 -12 c 0,108,109
 230 -12 230 -12 126 70.5 c 128,-1,110
 22 153 22 153 22 312 c 2,111,-1
 22 314 l 2,112,113
 22 315 22 315 23 317 c 2,114,-1
 23 320 l 1,115,-1
 23 322 l 1,0,1
EndSplineSet
EndChar

StartChar: H
Encoding: 72 72 43
Width: 674
GlyphClass: 2
Flags: W
LayerCount: 2
Fore
SplineSet
153 322 m 1,0,-1
 153 75 l 2,1,2
 153 57 153 57 160 52 c 128,-1,3
 167 47 167 47 176 46 c 0,4,5
 176 45 176 45 177 45 c 2,6,-1
 178 45 l 2,7,8
 186 43 186 43 192.5 39.5 c 128,-1,9
 199 36 199 36 199 22 c 0,10,11
 199 7 199 7 179 4.5 c 128,-1,12
 159 2 159 2 119 2 c 2,13,-1
 73 2 l 2,14,15
 48 2 48 2 34 4.5 c 128,-1,16
 20 7 20 7 20 22 c 0,17,18
 20 36 20 36 27.5 39.5 c 128,-1,19
 35 43 35 43 44 45 c 2,20,-1
 46 45 l 1,21,22
 46 45 46 45 46 46 c 0,23,24
 56 47 56 47 64.5 52 c 128,-1,25
 73 57 73 57 73 75 c 2,26,-1
 73 562 l 2,27,28
 73 580 73 580 64.5 584.5 c 128,-1,29
 56 589 56 589 47 591 c 2,30,-1
 46 591 l 1,31,-1
 45 591 l 2,32,33
 35 593 35 593 27.5 597 c 128,-1,34
 20 601 20 601 20 615 c 0,35,36
 20 624 20 624 30.5 626.5 c 128,-1,37
 41 629 41 629 54 629 c 2,38,-1
 60 629 l 1,39,-1
 66 629 l 1,40,-1
 146 629 l 2,41,42
 171 629 171 629 185 627.5 c 128,-1,43
 199 626 199 626 199 615 c 128,-1,44
 199 604 199 604 193 600.5 c 128,-1,45
 187 597 187 597 180 595 c 0,46,47
 179 594 179 594 178 594 c 2,48,-1
 176 594 l 2,49,50
 167 591 167 591 160 585.5 c 128,-1,51
 153 580 153 580 153 562 c 2,52,-1
 153 368 l 1,53,-1
 514 368 l 1,54,-1
 514 569 l 2,55,56
 514 584 514 584 505.5 587.5 c 128,-1,57
 497 591 497 591 488 592 c 0,58,59
 478 593 478 593 469.5 596.5 c 128,-1,60
 461 600 461 600 461 615 c 0,61,62
 461 625 461 625 476.5 627 c 128,-1,63
 492 629 492 629 511 629 c 2,64,-1
 512 629 l 1,65,-1
 514 629 l 1,66,-1
 594 629 l 1,67,-1
 596 629 l 1,68,-1
 599 629 l 2,69,70
 618 629 618 629 633 627 c 128,-1,71
 648 625 648 625 648 615 c 0,72,73
 648 603 648 603 639.5 598.5 c 128,-1,74
 631 594 631 594 621 592 c 128,-1,75
 611 590 611 590 602.5 585.5 c 128,-1,76
 594 581 594 581 594 569 c 2,77,-1
 594 81 l 2,78,79
 594 61 594 61 602.5 53 c 128,-1,80
 611 45 611 45 621 41 c 0,81,82
 623 41 623 41 625.5 40 c 128,-1,83
 628 39 628 39 630 38 c 0,84,85
 637 36 637 36 642.5 33 c 128,-1,86
 648 30 648 30 648 22 c 0,87,88
 648 7 648 7 632.5 4.5 c 128,-1,89
 617 2 617 2 587 2 c 2,90,-1
 514 2 l 2,91,92
 489 2 489 2 478.5 4.5 c 128,-1,93
 468 7 468 7 468 22 c 0,94,95
 468 33 468 33 473.5 36.5 c 128,-1,96
 479 40 479 40 486 42 c 0,97,98
 487 43 487 43 488.5 43.5 c 128,-1,99
 490 44 490 44 491 44 c 0,100,101
 500 47 500 47 507 54 c 128,-1,102
 514 61 514 61 514 81 c 2,103,-1
 514 322 l 1,104,-1
 153 322 l 1,0,-1
EndSplineSet
EndChar

StartChar: I
Encoding: 73 73 44
Width: 230
GlyphClass: 2
Flags: W
LayerCount: 2
Fore
SplineSet
71 75 m 2,0,-1
 71 569 l 2,1,2
 71 586 71 586 62.5 590 c 128,-1,3
 54 594 54 594 45 594 c 2,4,-1
 44 594 l 1,5,-1
 43 594 l 2,6,7
 33 595 33 595 25.5 598 c 128,-1,8
 18 601 18 601 18 615 c 0,9,10
 18 626 18 626 30.5 627.5 c 128,-1,11
 43 629 43 629 58 629 c 2,12,-1
 144 629 l 1,13,-1
 150 629 l 1,14,-1
 157 629 l 2,15,16
 174 629 174 629 189 626.5 c 128,-1,17
 204 624 204 624 204 615 c 0,18,19
 204 600 204 600 195.5 596.5 c 128,-1,20
 187 593 187 593 178 592 c 0,21,22
 168 591 168 591 159.5 587.5 c 128,-1,23
 151 584 151 584 151 569 c 2,24,-1
 151 75 l 2,25,26
 151 57 151 57 159.5 51.5 c 128,-1,27
 168 46 168 46 178 43 c 2,28,-1
 180 43 l 2,29,30
 181 43 181 43 182 42 c 0,31,32
 190 40 190 40 197 36.5 c 128,-1,33
 204 33 204 33 204 22 c 0,34,35
 204 8 204 8 188.5 5 c 128,-1,36
 173 2 173 2 154 2 c 2,37,-1
 153 2 l 1,38,-1
 151 2 l 1,39,-1
 65 2 l 1,40,-1
 59 2 l 1,41,-1
 52 2 l 2,42,43
 39 3 39 3 28.5 6.5 c 128,-1,44
 18 10 18 10 18 22 c 0,45,46
 18 33 18 33 24.5 36 c 128,-1,47
 31 39 31 39 39 40 c 0,48,49
 41 40 41 40 42 40.5 c 128,-1,50
 43 41 43 41 45 41 c 0,51,52
 54 43 54 43 62.5 49 c 128,-1,53
 71 55 71 55 71 75 c 2,0,-1
EndSplineSet
EndChar

StartChar: J
Encoding: 74 74 45
Width: 412
GlyphClass: 2
Flags: W
LayerCount: 2
Fore
SplineSet
257 148 m 2,0,-1
 257 569 l 2,1,2
 257 584 257 584 248.5 587.5 c 128,-1,3
 240 591 240 591 230 591 c 2,4,-1
 228 591 l 2,5,6
 218 592 218 592 210 594.5 c 128,-1,7
 202 597 202 597 202 609 c 0,8,9
 202 624 202 624 220.5 626.5 c 128,-1,10
 239 629 239 629 264 629 c 2,11,-1
 330 629 l 2,12,13
 355 629 355 629 372.5 627.5 c 128,-1,14
 390 626 390 626 390 615 c 0,15,16
 390 598 390 598 382 595 c 128,-1,17
 374 592 374 592 364 592 c 2,18,-1
 362 592 l 2,19,20
 352 592 352 592 344.5 589 c 128,-1,21
 337 586 337 586 337 569 c 2,22,-1
 337 174 l 2,23,24
 337 74 337 74 286 31.5 c 128,-1,25
 235 -11 235 -11 149 -11 c 0,26,27
 75 -11 75 -11 38.5 24.5 c 128,-1,28
 2 60 2 60 -3 104 c 0,29,30
 -3 108 -3 108 -3.5 112.5 c 128,-1,31
 -4 117 -4 117 -4 121 c 0,32,33
 -4 162 -4 162 19 195.5 c 128,-1,34
 42 229 42 229 83 229 c 0,35,36
 98 229 98 229 109.5 218.5 c 128,-1,37
 121 208 121 208 125 196 c 0,38,39
 125 193 125 193 125.5 191 c 128,-1,40
 126 189 126 189 126 187 c 2,41,-1
 126 184 l 2,42,43
 126 183 126 183 125 182 c 0,44,45
 123 175 123 175 115 168.5 c 128,-1,46
 107 162 107 162 90 161 c 0,47,48
 70 159 70 159 58.5 147 c 128,-1,49
 47 135 47 135 45 122 c 2,50,-1
 45 118 l 1,51,-1
 45 116 l 2,52,53
 45 111 45 111 46 105.5 c 128,-1,54
 47 100 47 100 49 95 c 0,55,56
 58 72 58 72 83 52.5 c 128,-1,57
 108 33 108 33 141 33 c 2,58,-1
 143 33 l 2,59,60
 144 33 144 33 145 34 c 0,61,62
 147 34 147 34 148 34 c 2,63,-1
 149 35 l 1,64,65
 156 35 156 35 162.5 36 c 128,-1,66
 169 37 169 37 176 39 c 0,67,68
 207 46 207 46 232 72.5 c 128,-1,69
 257 99 257 99 257 148 c 2,0,-1
EndSplineSet
EndChar

StartChar: K
Encoding: 75 75 46
Width: 594
GlyphClass: 2
Flags: W
LayerCount: 2
Fore
SplineSet
146 222 m 1,0,-1
 146 81 l 2,1,2
 146 61 146 61 154.5 55 c 128,-1,3
 163 49 163 49 173 46 c 2,4,-1
 174 46 l 2,5,6
 175 46 175 46 176 45 c 0,7,8
 185 43 185 43 192 39 c 128,-1,9
 199 35 199 35 199 22 c 0,10,11
 199 7 199 7 184 4.5 c 128,-1,12
 169 2 169 2 139 2 c 2,13,-1
 66 2 l 2,14,15
 47 2 47 2 33.5 5.5 c 128,-1,16
 20 9 20 9 20 28 c 0,17,18
 20 39 20 39 26.5 42 c 128,-1,19
 33 45 33 45 41 46 c 0,20,21
 43 46 43 46 44 46.5 c 128,-1,22
 45 47 45 47 47 47 c 0,23,24
 56 49 56 49 64.5 55 c 128,-1,25
 73 61 73 61 73 81 c 2,26,-1
 73 562 l 2,27,28
 73 577 73 577 64.5 581.5 c 128,-1,29
 56 586 56 586 47 588 c 2,30,-1
 46 588 l 1,31,-1
 45 588 l 2,32,33
 35 590 35 590 27.5 593.5 c 128,-1,34
 20 597 20 597 20 609 c 128,-1,35
 20 621 20 621 30.5 624.5 c 128,-1,36
 41 628 41 628 54 629 c 2,37,-1
 60 629 l 1,38,-1
 66 629 l 1,39,-1
 146 629 l 1,40,-1
 148 629 l 1,41,-1
 149 629 l 2,42,43
 168 629 168 629 183.5 627 c 128,-1,44
 199 625 199 625 199 615 c 0,45,46
 199 600 199 600 190.5 595.5 c 128,-1,47
 182 591 182 591 173 589 c 0,48,49
 163 586 163 586 154.5 581.5 c 128,-1,50
 146 577 146 577 146 562 c 2,51,-1
 146 289 l 1,52,-1
 353 489 l 2,53,54
 385 521 385 521 398 540 c 128,-1,55
 411 559 411 559 411 567 c 0,56,57
 411 574 411 574 405 578 c 128,-1,58
 399 582 399 582 391 585 c 2,59,-1
 388 587 l 2,60,61
 387 587 387 587 386 587 c 0,62,63
 376 591 376 591 368 597 c 128,-1,64
 360 603 360 603 360 615 c 0,65,66
 360 626 360 626 376 627.5 c 128,-1,67
 392 629 392 629 428 629 c 2,68,-1
 494 629 l 2,69,70
 519 629 519 629 533 627.5 c 128,-1,71
 547 626 547 626 547 615 c 0,72,73
 547 601 547 601 541.5 595.5 c 128,-1,74
 536 590 536 590 526 585 c 0,75,76
 515 580 515 580 500.5 572.5 c 128,-1,77
 486 565 486 565 471 546 c 0,78,79
 470 545 470 545 469.5 544 c 128,-1,80
 469 543 469 543 468 542 c 0,81,82
 455 522 455 522 429 494 c 2,83,-1
 374 436 l 2,84,85
 371 434 371 434 369 432 c 128,-1,86
 367 430 367 430 365 427 c 0,87,88
 351 414 351 414 338 400 c 2,89,-1
 313 375 l 2,90,91
 314 374 314 374 315 373.5 c 128,-1,92
 316 373 316 373 317 372 c 0,93,94
 325 365 325 365 332 358 c 2,95,-1
 346 342 l 2,96,97
 358 328 358 328 371.5 310.5 c 128,-1,98
 385 293 385 293 406 269 c 0,99,100
 417 257 417 257 430 240 c 2,101,-1
 455 206 l 2,102,103
 461 198 461 198 466.5 189.5 c 128,-1,104
 472 181 472 181 478 173 c 0,105,106
 496 145 496 145 511 118.5 c 128,-1,107
 526 92 526 92 534 75 c 0,108,109
 538 67 538 67 543 62 c 128,-1,110
 548 57 548 57 553 54 c 0,111,112
 557 52 557 52 561 50.5 c 128,-1,113
 565 49 565 49 568 48 c 0,114,115
 576 46 576 46 581.5 41.5 c 128,-1,116
 587 37 587 37 587 22 c 128,-1,117
 587 7 587 7 570 4.5 c 128,-1,118
 553 2 553 2 527 2 c 2,119,-1
 461 2 l 2,120,121
 436 2 436 2 421 4.5 c 128,-1,122
 406 7 406 7 406 22 c 0,123,124
 406 32 406 32 412 36.5 c 128,-1,125
 418 41 418 41 425 45 c 2,126,-1
 426 46 l 1,127,128
 426 46 426 46 427 46 c 0,129,130
 434 49 434 49 439 53 c 128,-1,131
 444 57 444 57 444 65 c 0,132,133
 444 66 444 66 443.5 69 c 128,-1,134
 443 72 443 72 443 75 c 0,135,136
 442 76 442 76 442 78 c 128,-1,137
 442 80 442 80 441 81 c 0,138,139
 428 106 428 106 407.5 137.5 c 128,-1,140
 387 169 387 169 363 202 c 2,141,-1
 334 238 l 1,142,-1
 304 274 l 1,143,-1
 282 299 l 1,144,-1
 260 322 l 1,145,-1
 146 222 l 1,0,-1
EndSplineSet
EndChar

StartChar: L
Encoding: 76 76 47
Width: 531
GlyphClass: 2
Flags: W
LayerCount: 2
Fore
SplineSet
75 68 m 1,0,-1
 75 542 l 2,1,2
 75 567 75 567 66.5 574 c 128,-1,3
 58 581 58 581 49 582 c 0,4,5
 47 582 47 582 46 582.5 c 128,-1,6
 45 583 45 583 43 583 c 0,7,8
 35 583 35 583 28.5 586 c 128,-1,9
 22 589 22 589 22 602 c 0,10,11
 22 619 22 619 36 623.5 c 128,-1,12
 50 628 50 628 67 629 c 2,13,-1
 74 629 l 1,14,-1
 81 629 l 1,15,-1
 141 629 l 2,16,17
 166 629 166 629 180 626.5 c 128,-1,18
 194 624 194 624 194 609 c 0,19,20
 194 596 194 596 188.5 591.5 c 128,-1,21
 183 587 183 587 175 584 c 0,22,23
 174 584 174 584 173 583.5 c 128,-1,24
 172 583 172 583 171 583 c 0,25,26
 162 580 162 580 155 572.5 c 128,-1,27
 148 565 148 565 148 542 c 2,28,-1
 148 101 l 2,29,30
 148 65 148 65 161.5 55.5 c 128,-1,31
 175 46 175 46 201 46 c 0,32,33
 203 46 203 46 206.5 46.5 c 128,-1,34
 210 47 210 47 214 47 c 2,35,-1
 216 47 l 1,36,-1
 217 47 l 2,37,38
 220 48 220 48 223 48 c 2,39,-1
 229 48 l 1,40,-1
 362 48 l 2,41,42
 374 48 374 48 391 51 c 128,-1,43
 408 54 408 54 425 62 c 0,44,45
 435 66 435 66 444.5 72.5 c 128,-1,46
 454 79 454 79 463 88 c 0,47,48
 471 97 471 97 478 100.5 c 128,-1,49
 485 104 485 104 489 104 c 0,50,51
 496 104 496 104 499 98 c 128,-1,52
 502 92 502 92 502 81 c 2,53,-1
 496 35 l 2,54,55
 496 10 496 10 483.5 6 c 128,-1,56
 471 2 471 2 436 2 c 2,57,-1
 95 2 l 2,58,59
 60 2 60 2 44 4.5 c 128,-1,60
 28 7 28 7 28 22 c 0,61,62
 28 36 28 36 35.5 39.5 c 128,-1,63
 43 43 43 43 52 44 c 2,64,-1
 53 44 l 1,65,-1
 54 44 l 2,66,67
 62 46 62 46 68.5 48.5 c 128,-1,68
 75 51 75 51 75 61 c 2,69,-1
 75 68 l 1,0,-1
EndSplineSet
EndChar

StartChar: M
Encoding: 77 77 48
Width: 734
GlyphClass: 2
Flags: W
LayerCount: 2
Fore
SplineSet
357 201 m 1,0,-1
 531 595 l 1,1,-1
 535 602 l 2,2,3
 536 605 536 605 538 608 c 0,4,5
 545 620 545 620 554.5 624.5 c 128,-1,6
 564 629 564 629 584 629 c 2,7,-1
 645 629 l 2,8,9
 665 629 665 629 678.5 627.5 c 128,-1,10
 692 626 692 626 692 615 c 0,11,12
 692 598 692 598 684 593 c 128,-1,13
 676 588 676 588 667 585 c 2,14,-1
 666 585 l 1,15,-1
 665 585 l 2,16,17
 655 582 655 582 646.5 575.5 c 128,-1,18
 638 569 638 569 638 549 c 2,19,-1
 638 81 l 2,20,21
 638 61 638 61 647.5 55 c 128,-1,22
 657 49 657 49 668 47 c 0,23,24
 669 47 669 47 670.5 46.5 c 128,-1,25
 672 46 672 46 674 46 c 0,26,27
 683 45 683 45 690.5 42 c 128,-1,28
 698 39 698 39 698 28 c 0,29,30
 698 9 698 9 685 5.5 c 128,-1,31
 672 2 672 2 652 2 c 2,32,-1
 577 2 l 2,33,34
 552 2 552 2 534.5 5.5 c 128,-1,35
 517 9 517 9 517 28 c 0,36,37
 517 38 517 38 522.5 41 c 128,-1,38
 528 44 528 44 535 45 c 0,39,40
 536 45 536 45 536 45 c 1,41,-1
 537 46 l 1,42,43
 545 48 545 48 551 52 c 128,-1,44
 557 56 557 56 557 68 c 2,45,-1
 557 529 l 1,46,-1
 376 121 l 2,47,48
 369 102 369 102 360.5 91.5 c 128,-1,49
 352 81 352 81 343 81 c 0,50,51
 340 81 340 81 337.5 82 c 128,-1,52
 335 83 335 83 332 86 c 0,53,54
 326 90 326 90 320.5 99 c 128,-1,55
 315 108 315 108 310 121 c 2,56,-1
 129 542 l 1,57,-1
 129 75 l 2,58,59
 129 60 129 60 138.5 55.5 c 128,-1,60
 148 51 148 51 159 49 c 2,61,-1
 160 49 l 2,62,63
 161 49 161 49 162 48 c 0,64,65
 172 47 172 47 180.5 43.5 c 128,-1,66
 189 40 189 40 189 28 c 0,67,68
 189 9 189 9 178.5 5.5 c 128,-1,69
 168 2 168 2 143 2 c 2,70,-1
 76 2 l 2,71,72
 51 2 51 2 40.5 5.5 c 128,-1,73
 30 9 30 9 30 28 c 0,74,75
 30 37 30 37 35.5 40 c 128,-1,76
 41 43 41 43 49 45 c 0,77,78
 50 46 50 46 51 46 c 128,-1,79
 52 46 52 46 53 47 c 0,80,81
 62 49 62 49 69 54.5 c 128,-1,82
 76 60 76 60 76 75 c 2,83,-1
 76 569 l 2,84,85
 76 586 76 586 67.5 590 c 128,-1,86
 59 594 59 594 50 594 c 2,87,-1
 48 594 l 2,88,89
 38 595 38 595 30.5 598 c 128,-1,90
 23 601 23 601 23 615 c 0,91,92
 23 625 23 625 38.5 627 c 128,-1,93
 54 629 54 629 73 629 c 2,94,-1
 74 629 l 1,95,-1
 76 629 l 1,96,-1
 143 629 l 2,97,98
 158 629 158 629 168 625.5 c 128,-1,99
 178 622 178 622 182 602 c 1,100,-1
 357 201 l 1,0,-1
EndSplineSet
EndChar

StartChar: N
Encoding: 78 78 49
Width: 634
GlyphClass: 2
Flags: W
LayerCount: 2
Fore
SplineSet
501 161 m 1,0,-1
 501 556 l 2,1,2
 501 578 501 578 491.5 583.5 c 128,-1,3
 482 589 482 589 471 590 c 0,4,5
 470 590 470 590 469.5 590.5 c 128,-1,6
 469 591 469 591 468 591 c 0,7,8
 458 592 458 592 449.5 595.5 c 128,-1,9
 441 599 441 599 441 615 c 0,10,11
 441 626 441 626 454.5 627.5 c 128,-1,12
 468 629 468 629 488 629 c 2,13,-1
 561 629 l 2,14,15
 581 629 581 629 590.5 626.5 c 128,-1,16
 600 624 600 624 600 609 c 0,17,18
 600 596 600 596 594.5 593 c 128,-1,19
 589 590 589 590 582 589 c 2,20,-1
 579 589 l 1,21,-1
 577 589 l 2,22,23
 568 587 568 587 561 580.5 c 128,-1,24
 554 574 554 574 554 549 c 2,25,-1
 554 28 l 2,26,27
 554 7 554 7 549 -2 c 128,-1,28
 544 -11 544 -11 536 -11 c 0,29,30
 532 -11 532 -11 527.5 -8.5 c 128,-1,31
 523 -6 523 -6 519 -2 c 0,32,33
 514 2 514 2 509.5 8.5 c 128,-1,34
 505 15 505 15 501 22 c 2,35,-1
 459 93 l 1,36,-1
 414 166 l 1,37,-1
 353 256 l 1,38,-1
 290 345 l 1,39,-1
 213 449 l 1,40,-1
 139 542 l 1,41,-1
 139 81 l 2,42,43
 139 59 139 59 147.5 51.5 c 128,-1,44
 156 44 156 44 166 43 c 0,45,46
 168 42 168 42 170 42 c 128,-1,47
 172 42 172 42 174 41 c 0,48,49
 181 40 181 40 186.5 38 c 128,-1,50
 192 36 192 36 192 28 c 0,51,52
 192 9 192 9 184 5.5 c 128,-1,53
 176 2 176 2 146 2 c 2,54,-1
 86 2 l 2,55,56
 56 2 56 2 41.5 5.5 c 128,-1,57
 27 9 27 9 27 28 c 0,58,59
 27 37 27 37 34 39.5 c 128,-1,60
 41 42 41 42 50 43 c 0,61,62
 51 43 51 43 53 43.5 c 128,-1,63
 55 44 55 44 57 44 c 0,64,65
 68 46 68 46 77 51.5 c 128,-1,66
 86 57 86 57 86 75 c 2,67,-1
 86 536 l 2,68,69
 86 566 86 566 75.5 576 c 128,-1,70
 65 586 65 586 53 590 c 0,71,72
 51 591 51 591 48.5 591.5 c 128,-1,73
 46 592 46 592 43 593 c 0,74,75
 34 595 34 595 27 599 c 128,-1,76
 20 603 20 603 20 615 c 0,77,78
 20 624 20 624 30.5 626.5 c 128,-1,79
 41 629 41 629 54 629 c 2,80,-1
 60 629 l 1,81,-1
 66 629 l 1,82,-1
 133 629 l 2,83,84
 153 629 153 629 168.5 612 c 128,-1,85
 184 595 184 595 199 575 c 2,86,-1
 219 553 l 2,87,88
 229 542 229 542 238 530 c 2,89,-1
 295 460 l 1,90,-1
 350 388 l 2,91,92
 395 327 395 327 434 268 c 128,-1,93
 473 209 473 209 501 161 c 1,0,-1
EndSplineSet
EndChar

StartChar: O
Encoding: 79 79 50
Width: 674
GlyphClass: 2
Flags: W
LayerCount: 2
Fore
SplineSet
20 322 m 0,0,1
 20 477 20 477 115.5 553 c 128,-1,2
 211 629 211 629 327 629 c 0,3,4
 448 629 448 629 545 550.5 c 128,-1,5
 642 472 642 472 642 322 c 2,6,-1
 642 313 l 2,7,8
 642 155 642 155 546.5 73.5 c 128,-1,9
 451 -8 451 -8 336 -11 c 2,10,-1
 332 -11 l 1,11,-1
 327 -11 l 1,12,-1
 323 -11 l 1,13,-1
 318 -11 l 2,14,15
 206 -8 206 -8 112 72.5 c 128,-1,16
 18 153 18 153 18 313 c 0,17,18
 18 314 18 314 18.5 315 c 128,-1,19
 19 316 19 316 19 318 c 0,20,21
 19 319 19 319 19.5 320 c 128,-1,22
 20 321 20 321 20 322 c 0,0,1
106 322 m 1,23,24
 106 177 106 177 174 105 c 128,-1,25
 242 33 242 33 327 28 c 1,26,-1
 335 28 l 2,27,28
 339 28 339 28 343 29 c 0,29,30
 420 35 420 35 483.5 106 c 128,-1,31
 547 177 547 177 547 315 c 0,32,33
 547 451 547 451 479 520 c 128,-1,34
 411 589 411 589 328 589 c 2,35,-1
 321 589 l 2,36,37
 317 589 317 589 314 588 c 0,38,39
 238 583 238 583 174 516.5 c 128,-1,40
 110 450 110 450 106 322 c 1,23,24
EndSplineSet
EndChar

StartChar: P
Encoding: 80 80 51
Width: 531
GlyphClass: 2
Flags: W
LayerCount: 2
Fore
SplineSet
148 242 m 1,0,-1
 148 68 l 2,1,2
 148 56 148 56 156.5 50.5 c 128,-1,3
 165 45 165 45 175 42 c 2,4,-1
 176 42 l 2,5,6
 177 42 177 42 178 41 c 0,7,8
 187 39 187 39 194 35 c 128,-1,9
 201 31 201 31 201 22 c 0,10,11
 201 7 201 7 188.5 4.5 c 128,-1,12
 176 2 176 2 141 2 c 2,13,-1
 61 2 l 2,14,15
 46 2 46 2 34 4.5 c 128,-1,16
 22 7 22 7 22 22 c 0,17,18
 22 30 22 30 27.5 34 c 128,-1,19
 33 38 33 38 40 41 c 0,20,21
 41 42 41 42 42.5 42.5 c 128,-1,22
 44 43 44 43 45 43 c 0,23,24
 54 47 54 47 61 53.5 c 128,-1,25
 68 60 68 60 68 75 c 2,26,-1
 68 562 l 2,27,28
 68 580 68 580 61 584 c 128,-1,29
 54 588 54 588 45 589 c 128,-1,30
 36 590 36 590 29 594 c 128,-1,31
 22 598 22 598 22 615 c 0,32,33
 22 624 22 624 36 626.5 c 128,-1,34
 50 629 50 629 67 629 c 2,35,-1
 74 629 l 1,36,-1
 81 629 l 1,37,-1
 308 629 l 2,38,39
 407 629 407 629 456.5 578.5 c 128,-1,40
 506 528 506 528 510 467 c 0,41,42
 511 464 511 464 511 460 c 2,43,-1
 511 454 l 2,44,45
 511 447 511 447 510.5 439.5 c 128,-1,46
 510 432 510 432 508 424 c 0,47,48
 504 401 504 401 494 379.5 c 128,-1,49
 484 358 484 358 469 342 c 0,50,51
 439 310 439 310 393 287.5 c 128,-1,52
 347 265 347 265 298 253 c 0,53,54
 269 246 269 246 241.5 242.5 c 128,-1,55
 214 239 214 239 189 239 c 0,56,57
 178 239 178 239 167 240 c 128,-1,58
 156 241 156 241 148 242 c 1,0,-1
148 282 m 1,59,60
 170 284 170 284 194.5 286.5 c 128,-1,61
 219 289 219 289 245 293 c 0,62,63
 307 305 307 305 361 335 c 128,-1,64
 415 365 415 365 423 430 c 0,65,66
 423 433 423 433 423.5 436 c 128,-1,67
 424 439 424 439 424 442 c 128,-1,68
 424 445 424 445 424.5 447.5 c 128,-1,69
 425 450 425 450 425 453 c 0,70,71
 425 510 425 510 380.5 542.5 c 128,-1,72
 336 575 336 575 255 575 c 0,73,74
 200 575 200 575 174 567 c 128,-1,75
 148 559 148 559 148 529 c 2,76,-1
 148 282 l 1,59,60
EndSplineSet
EndChar

StartChar: Q
Encoding: 81 81 52
Width: 674
GlyphClass: 2
Flags: W
LayerCount: 2
Fore
SplineSet
360 -5 m 1,0,1
 355 -5 355 -5 349.5 -5.5 c 128,-1,2
 344 -6 344 -6 338 -6 c 0,3,4
 332 -7 332 -7 326 -7 c 2,5,-1
 315 -7 l 2,6,7
 204 -7 204 -7 113.5 84 c 128,-1,8
 23 175 23 175 23 307 c 0,9,10
 23 312 23 312 23.5 317 c 128,-1,11
 24 322 24 322 25 328 c 0,12,13
 26 333 26 333 26.5 338 c 128,-1,14
 27 343 27 343 27 348 c 0,15,16
 45 495 45 495 134.5 568.5 c 128,-1,17
 224 642 224 642 328 643 c 2,18,-1
 330 643 l 1,19,-1
 332 643 l 1,20,-1
 340 643 l 1,21,-1
 349 643 l 1,22,23
 450 637 450 637 537.5 562.5 c 128,-1,24
 625 488 625 488 642 348 c 1,25,-1
 642 322 l 2,26,27
 642 210 642 210 572 120.5 c 128,-1,28
 502 31 502 31 413 8 c 1,29,30
 427 -6 427 -6 453 -19 c 128,-1,31
 479 -32 479 -32 508 -39 c 0,32,33
 523 -43 523 -43 537 -45 c 128,-1,34
 551 -47 551 -47 564 -47 c 2,35,-1
 570 -47 l 2,36,37
 572 -47 572 -47 575 -46 c 2,38,-1
 580 -46 l 2,39,40
 583 -46 583 -46 585 -45 c 0,41,42
 588 -45 588 -45 590 -44.5 c 128,-1,43
 592 -44 592 -44 594 -44 c 0,44,45
 595 -44 595 -44 596.5 -43.5 c 128,-1,46
 598 -43 598 -43 600 -42 c 0,47,48
 601 -41 601 -41 602.5 -40.5 c 128,-1,49
 604 -40 604 -40 605 -40 c 0,50,51
 618 -40 618 -40 627.5 -48.5 c 128,-1,52
 637 -57 637 -57 639 -67 c 0,53,54
 640 -68 640 -68 640 -70 c 2,55,-1
 640 -72 l 2,56,57
 640 -74 640 -74 639.5 -76 c 128,-1,58
 639 -78 639 -78 639 -80 c 0,59,60
 636 -87 636 -87 628.5 -94 c 128,-1,61
 621 -101 621 -101 607 -103 c 0,62,63
 602 -104 602 -104 596.5 -104.5 c 128,-1,64
 591 -105 591 -105 586 -106 c 0,65,66
 580 -106 580 -106 574.5 -106.5 c 128,-1,67
 569 -107 569 -107 564 -107 c 0,68,69
 504 -107 504 -107 454 -76.5 c 128,-1,70
 404 -46 404 -46 360 -4 c 1,71,-1
 360 -5 l 1,0,1
340 35 m 1,72,73
 330 60 330 60 325 84.5 c 128,-1,74
 320 109 320 109 320 134 c 0,75,76
 320 148 320 148 326.5 156 c 128,-1,77
 333 164 333 164 340 164 c 0,78,79
 342 164 342 164 343.5 163.5 c 128,-1,80
 345 163 345 163 347 162 c 0,81,82
 351 160 351 160 355 155 c 128,-1,83
 359 150 359 150 360 141 c 0,84,85
 360 127 360 127 364.5 109 c 128,-1,86
 369 91 369 91 375 72 c 0,87,88
 377 64 377 64 380 57 c 2,89,-1
 386 41 l 1,90,91
 463 67 463 67 501.5 136 c 128,-1,92
 540 205 540 205 547 282 c 0,93,94
 548 291 548 291 548.5 300 c 128,-1,95
 549 309 549 309 549 318 c 0,96,97
 549 347 549 347 545.5 376 c 128,-1,98
 542 405 542 405 534 430 c 0,99,100
 510 514 510 514 457 553.5 c 128,-1,101
 404 593 404 593 345 595 c 2,102,-1
 343 595 l 1,103,-1
 340 595 l 1,104,-1
 333 595 l 2,105,106
 329 595 329 595 325 594 c 0,107,108
 249 588 249 588 184.5 523.5 c 128,-1,109
 120 459 120 459 113 348 c 0,110,111
 113 345 113 345 112.5 341 c 128,-1,112
 112 337 112 337 112 333 c 2,113,-1
 112 332 l 2,114,115
 112 328 112 328 111.5 324.5 c 128,-1,116
 111 321 111 321 111 318 c 0,117,118
 111 204 111 204 157.5 138.5 c 128,-1,119
 204 73 204 73 260 49 c 0,120,121
 278 41 278 41 296 37 c 128,-1,122
 314 33 314 33 330 33 c 2,123,-1
 332 33 l 2,124,125
 333 33 333 33 334 34 c 2,126,-1
 335 34 l 2,127,128
 337 34 337 34 338 34.5 c 128,-1,129
 339 35 339 35 340 35 c 1,72,73
EndSplineSet
EndChar

StartChar: R
Encoding: 82 82 53
Width: 594
GlyphClass: 2
Flags: W
LayerCount: 2
Fore
SplineSet
159 269 m 1,0,-1
 159 75 l 2,1,2
 159 55 159 55 166.5 49.5 c 128,-1,3
 174 44 174 44 183 42 c 2,4,-1
 184 42 l 2,5,6
 192 40 192 40 199 36 c 128,-1,7
 206 32 206 32 206 15 c 0,8,9
 206 6 206 6 199.5 3 c 128,-1,10
 193 0 193 0 182 0 c 0,11,12
 179 0 179 0 175.5 0.5 c 128,-1,13
 172 1 172 1 168 1 c 0,14,15
 166 1 166 1 164.5 1.5 c 128,-1,16
 163 2 163 2 161 2 c 2,17,-1
 157 2 l 1,18,-1
 153 2 l 1,19,-1
 73 2 l 2,20,21
 48 2 48 2 37.5 4.5 c 128,-1,22
 27 7 27 7 27 22 c 0,23,24
 27 33 27 33 33.5 36.5 c 128,-1,25
 40 40 40 40 48 42 c 0,26,27
 49 43 49 43 50.5 43.5 c 128,-1,28
 52 44 52 44 54 44 c 0,29,30
 63 47 63 47 71.5 54 c 128,-1,31
 80 61 80 61 80 81 c 2,32,-1
 80 542 l 2,33,34
 80 569 80 569 71.5 575.5 c 128,-1,35
 63 582 63 582 54 583 c 2,36,-1
 52 583 l 1,37,-1
 50 583 l 2,38,39
 41 584 41 584 34 587.5 c 128,-1,40
 27 591 27 591 27 609 c 0,41,42
 27 624 27 624 40 626.5 c 128,-1,43
 53 629 53 629 73 629 c 2,44,-1
 320 629 l 2,45,46
 411 629 411 629 461.5 582 c 128,-1,47
 512 535 512 535 512 476 c 0,48,49
 512 469 512 469 511 461 c 128,-1,50
 510 453 510 453 508 446 c 0,51,52
 499 407 499 407 464 371 c 128,-1,53
 429 335 429 335 367 315 c 1,54,55
 394 291 394 291 415 261 c 128,-1,56
 436 231 436 231 453 200 c 0,57,58
 475 160 475 160 491 123 c 128,-1,59
 507 86 507 86 521 61 c 0,60,61
 525 53 525 53 531.5 48.5 c 128,-1,62
 538 44 538 44 545 41 c 0,63,64
 547 40 547 40 549 39.5 c 128,-1,65
 551 39 551 39 552 38 c 0,66,67
 561 34 561 34 567.5 29.5 c 128,-1,68
 574 25 574 25 574 15 c 0,69,70
 574 6 574 6 558.5 4 c 128,-1,71
 543 2 543 2 524 2 c 2,72,-1
 523 2 l 1,73,-1
 521 2 l 1,74,-1
 454 2 l 2,75,76
 418 2 418 2 399 4.5 c 128,-1,77
 380 7 380 7 380 22 c 0,78,79
 380 32 380 32 385.5 35 c 128,-1,80
 391 38 391 38 398 40 c 0,81,82
 398 41 398 41 399 41 c 2,83,-1
 401 41 l 2,84,85
 408 44 408 44 414.5 49 c 128,-1,86
 421 54 421 54 421 68 c 2,87,-1
 421 75 l 1,88,-1
 421 83 l 2,89,90
 420 84 420 84 420 86 c 2,91,-1
 420 88 l 1,92,93
 416 107 416 107 406 128 c 128,-1,94
 396 149 396 149 383 171 c 2,95,-1
 364 198 l 1,96,-1
 346 226 l 1,97,-1
 318 262 l 1,98,-1
 294 295 l 1,99,-1
 159 269 l 1,0,-1
159 315 m 1,100,101
 180 319 180 319 211.5 324 c 128,-1,102
 243 329 243 329 277 338 c 0,103,104
 327 351 327 351 370.5 378 c 128,-1,105
 414 405 414 405 420 456 c 1,106,-1
 420 469 l 2,107,108
 420 529 420 529 376 550 c 128,-1,109
 332 571 332 571 267 575 c 0,110,111
 216 575 216 575 187.5 571 c 128,-1,112
 159 567 159 567 159 542 c 2,113,-1
 159 315 l 1,100,101
EndSplineSet
EndChar

StartChar: S
Encoding: 83 83 54
Width: 531
GlyphClass: 2
Flags: W
LayerCount: 2
Fore
SplineSet
41 463 m 1,0,1
 53 553 53 553 108.5 592 c 128,-1,2
 164 631 164 631 228 637 c 0,3,4
 235 637 235 637 241.5 637.5 c 128,-1,5
 248 638 248 638 255 638 c 0,6,7
 324 638 324 638 380 612.5 c 128,-1,8
 436 587 436 587 436 556 c 2,9,-1
 436 516 l 2,10,11
 436 503 436 503 432 495.5 c 128,-1,12
 428 488 428 488 423 488 c 0,13,14
 419 488 419 488 413 493 c 128,-1,15
 407 498 407 498 401 507 c 0,16,17
 400 509 400 509 398.5 511 c 128,-1,18
 397 513 397 513 395 516 c 0,19,20
 380 541 380 541 345.5 560.5 c 128,-1,21
 311 580 311 580 272 586 c 0,22,23
 263 588 263 588 255 588.5 c 128,-1,24
 247 589 247 589 239 589 c 0,25,26
 198 589 198 589 164 569 c 128,-1,27
 130 549 130 549 121 502 c 0,28,29
 121 500 121 500 120.5 497.5 c 128,-1,30
 120 495 120 495 120 492 c 2,31,-1
 120 491 l 2,32,33
 119 488 119 488 118.5 485.5 c 128,-1,34
 118 483 118 483 118 481 c 0,35,36
 118 428 118 428 168 405 c 128,-1,37
 218 382 218 382 279 368 c 0,38,39
 284 367 284 367 289 365.5 c 128,-1,40
 294 364 294 364 299 363 c 0,41,42
 333 355 333 355 364 346 c 128,-1,43
 395 337 395 337 415 322 c 0,44,45
 442 301 442 301 458 277 c 128,-1,46
 474 253 474 253 482 228 c 0,47,48
 485 216 485 216 486.5 204.5 c 128,-1,49
 488 193 488 193 488 182 c 0,50,51
 488 148 488 148 475 115.5 c 128,-1,52
 462 83 462 83 443 61 c 0,53,54
 412 27 412 27 371 9.5 c 128,-1,55
 330 -8 330 -8 287 -12 c 0,56,57
 279 -13 279 -13 271 -13.5 c 128,-1,58
 263 -14 263 -14 255 -14 c 0,59,60
 172 -14 172 -14 101 28 c 128,-1,61
 30 70 30 70 22 134 c 0,62,63
 22 135 22 135 21.5 136 c 128,-1,64
 21 137 21 137 21 138 c 2,65,-1
 21 139 l 2,66,67
 20 140 20 140 20 141 c 0,68,69
 20 154 20 154 26.5 159 c 128,-1,70
 33 164 33 164 41 164 c 2,71,-1
 46 164 l 2,72,73
 48 164 48 164 50 163 c 0,74,75
 59 161 59 161 66.5 157 c 128,-1,76
 74 153 74 153 75 148 c 0,77,78
 94 90 94 90 139 61.5 c 128,-1,79
 184 33 184 33 234 29 c 0,80,81
 239 28 239 28 244 28 c 2,82,-1
 254 28 l 2,83,84
 301 28 301 28 343 46.5 c 128,-1,85
 385 65 385 65 401 95 c 0,86,87
 410 115 410 115 415 132 c 128,-1,88
 420 149 420 149 420 163 c 0,89,90
 420 214 420 214 376 240 c 128,-1,91
 332 266 332 266 280 280 c 0,92,93
 261 285 261 285 243 288 c 2,94,-1
 207 295 l 2,95,96
 193 298 193 298 175.5 303.5 c 128,-1,97
 158 309 158 309 139 318 c 0,98,99
 102 335 102 335 71 367.5 c 128,-1,100
 40 400 40 400 40 453 c 2,101,-1
 40 454 l 2,102,103
 40 456 40 456 41 458 c 2,104,-1
 41 461 l 1,105,-1
 41 463 l 1,0,1
EndSplineSet
EndChar

StartChar: T
Encoding: 84 84 55
Width: 551
GlyphClass: 2
Flags: W
LayerCount: 2
Fore
SplineSet
232 75 m 2,0,-1
 232 562 l 2,1,2
 232 570 232 570 219 574.5 c 128,-1,3
 206 579 206 579 186 579 c 0,4,5
 173 579 173 579 157 576.5 c 128,-1,6
 141 574 141 574 125 570 c 0,7,8
 104 564 104 564 85 554 c 128,-1,9
 66 544 66 544 51 529 c 0,10,11
 40 518 40 518 31 512 c 128,-1,12
 22 506 22 506 17 506 c 0,13,14
 10 506 10 506 7.5 515.5 c 128,-1,15
 5 525 5 525 5 536 c 2,16,-1
 18 615 l 2,17,18
 18 626 18 626 38.5 627.5 c 128,-1,19
 59 629 59 629 138 629 c 2,20,-1
 365 629 l 2,21,22
 471 629 471 629 498.5 626.5 c 128,-1,23
 526 624 526 624 526 609 c 2,24,-1
 539 542 l 1,25,-1
 539 534 l 2,26,27
 539 524 539 524 533 518 c 128,-1,28
 527 512 527 512 519 512 c 0,29,30
 517 512 517 512 514 513 c 2,31,-1
 508 515 l 2,32,33
 504 517 504 517 500 521 c 128,-1,34
 496 525 496 525 493 529 c 0,35,36
 478 545 478 545 456.5 555.5 c 128,-1,37
 435 566 435 566 412 572 c 0,38,39
 397 575 397 575 382.5 577 c 128,-1,40
 368 579 368 579 355 579 c 0,41,42
 334 579 334 579 319.5 574.5 c 128,-1,43
 305 570 305 570 305 562 c 2,44,-1
 305 75 l 2,45,46
 305 57 305 57 313.5 50.5 c 128,-1,47
 322 44 322 44 332 41 c 0,48,49
 333 40 333 40 335 39.5 c 128,-1,50
 337 39 337 39 339 39 c 0,51,52
 347 36 347 36 352.5 33 c 128,-1,53
 358 30 358 30 358 22 c 0,54,55
 358 7 358 7 343 4.5 c 128,-1,56
 328 2 328 2 299 2 c 2,57,-1
 226 2 l 2,58,59
 200 2 200 2 188.5 4.5 c 128,-1,60
 177 7 177 7 177 22 c 0,61,62
 177 30 177 30 183 33 c 128,-1,63
 189 36 189 36 197 39 c 0,64,65
 199 39 199 39 201 39.5 c 128,-1,66
 203 40 203 40 205 41 c 0,67,68
 215 44 215 44 223.5 50.5 c 128,-1,69
 232 57 232 57 232 75 c 2,0,-1
EndSplineSet
EndChar

StartChar: U
Encoding: 85 85 56
Width: 654
GlyphClass: 2
Flags: W
LayerCount: 2
Fore
SplineSet
63 556 m 1,0,-1
 63 562 l 2,1,2
 63 575 63 575 56 580 c 128,-1,3
 49 585 49 585 40 587 c 0,4,5
 40 588 40 588 40 588 c 1,6,-1
 38 588 l 2,7,8
 30 590 30 590 23.5 594 c 128,-1,9
 17 598 17 598 17 609 c 0,10,11
 17 624 17 624 30 626.5 c 128,-1,12
 43 629 43 629 63 629 c 2,13,-1
 143 629 l 2,14,15
 163 629 163 629 176 626.5 c 128,-1,16
 189 624 189 624 189 609 c 0,17,18
 189 600 189 600 183.5 596 c 128,-1,19
 178 592 178 592 170 589 c 0,20,21
 169 588 169 588 168 587.5 c 128,-1,22
 167 587 167 587 166 587 c 0,23,24
 157 583 157 583 150 577 c 128,-1,25
 143 571 143 571 143 556 c 2,26,-1
 143 255 l 2,27,28
 143 149 143 149 188.5 92 c 128,-1,29
 234 35 234 35 330 35 c 0,30,31
 421 35 421 35 469 97 c 128,-1,32
 517 159 517 159 517 235 c 2,33,-1
 517 549 l 2,34,35
 517 566 517 566 508 573 c 128,-1,36
 499 580 499 580 488 584 c 0,37,38
 486 584 486 584 485 584.5 c 128,-1,39
 484 585 484 585 483 585 c 0,40,41
 473 588 473 588 465.5 593 c 128,-1,42
 458 598 458 598 458 609 c 0,43,44
 458 624 458 624 468.5 626.5 c 128,-1,45
 479 629 479 629 504 629 c 2,46,-1
 570 629 l 2,47,48
 596 629 596 629 606.5 627.5 c 128,-1,49
 617 626 617 626 617 615 c 0,50,51
 617 601 617 601 610 596 c 128,-1,52
 603 591 603 591 595 588 c 2,53,-1
 594 588 l 2,54,55
 585 585 585 585 577.5 579 c 128,-1,56
 570 573 570 573 570 556 c 2,57,-1
 570 255 l 2,58,59
 570 115 570 115 494.5 54.5 c 128,-1,60
 419 -6 419 -6 323 -11 c 2,61,-1
 308 -12 l 1,62,63
 190 -11 190 -11 126.5 58 c 128,-1,64
 63 127 63 127 63 229 c 2,65,-1
 63 556 l 1,0,-1
EndSplineSet
EndChar

StartChar: V
Encoding: 86 86 57
Width: 594
GlyphClass: 2
Flags: W
LayerCount: 2
Fore
SplineSet
300 75 m 1,0,1
 315 92 315 92 337 137.5 c 128,-1,2
 359 183 359 183 382 241 c 2,3,-1
 398 282 l 2,4,5
 406 302 406 302 413 323 c 0,6,7
 437 387 437 387 455.5 447 c 128,-1,8
 474 507 474 507 481 542 c 0,9,10
 481 544 481 544 481.5 546 c 128,-1,11
 482 548 482 548 482 549 c 0,12,13
 482 551 482 551 482.5 553 c 128,-1,14
 483 555 483 555 483 556 c 0,15,16
 483 571 483 571 474.5 578 c 128,-1,17
 466 585 466 585 456 590 c 0,18,19
 454 590 454 590 453 590.5 c 128,-1,20
 452 591 452 591 451 592 c 0,21,22
 442 595 442 595 435 600 c 128,-1,23
 428 605 428 605 428 615 c 0,24,25
 428 626 428 626 441.5 627.5 c 128,-1,26
 455 629 455 629 474 629 c 2,27,-1
 541 629 l 2,28,29
 561 629 561 629 574 627.5 c 128,-1,30
 587 626 587 626 587 615 c 0,31,32
 587 601 587 601 582.5 594.5 c 128,-1,33
 578 588 578 588 571 582 c 2,34,-1
 569 580 l 2,35,36
 568 579 568 579 566 578 c 0,37,38
 560 573 560 573 554.5 565.5 c 128,-1,39
 549 558 549 558 547 542 c 0,40,41
 540 501 540 501 516.5 428.5 c 128,-1,42
 493 356 493 356 462 277 c 2,43,-1
 427 194 l 2,44,45
 409 153 409 153 391 117 c 0,46,47
 373 80 373 80 355 50.5 c 128,-1,48
 337 21 337 21 320 2 c 0,49,50
 318 0 318 0 315.5 -1.5 c 128,-1,51
 313 -3 313 -3 311 -5 c 0,52,53
 304 -10 304 -10 297.5 -12 c 128,-1,54
 291 -14 291 -14 285 -14 c 0,55,56
 277 -14 277 -14 269.5 -9.5 c 128,-1,57
 262 -5 262 -5 254 2 c 0,58,59
 236 24 236 24 216 59 c 128,-1,60
 196 94 196 94 176 137 c 0,61,62
 154 184 154 184 132.5 237 c 128,-1,63
 111 290 111 290 92 344 c 0,64,65
 74 398 74 398 58.5 450.5 c 128,-1,66
 43 503 43 503 33 549 c 0,67,68
 31 567 31 567 25.5 575 c 128,-1,69
 20 583 20 583 13 588 c 0,70,71
 12 589 12 589 10 590 c 2,72,-1
 6 592 l 2,73,74
 1 595 1 595 -2.5 600 c 128,-1,75
 -6 605 -6 605 -6 615 c 0,76,77
 -6 621 -6 621 1.5 624 c 128,-1,78
 9 627 9 627 19 628 c 0,79,80
 25 629 25 629 30 629 c 2,81,-1
 40 629 l 1,82,-1
 106 629 l 2,83,84
 136 629 136 629 151 627.5 c 128,-1,85
 166 626 166 626 166 615 c 0,86,87
 166 602 166 602 159 596 c 128,-1,88
 152 590 152 590 144 586 c 0,89,90
 143 586 143 586 142 586 c 2,91,-1
 142 585 l 1,92,93
 133 580 133 580 125.5 573 c 128,-1,94
 118 566 118 566 118 551 c 2,95,-1
 118 549 l 2,96,97
 118 548 118 548 119 547 c 2,98,-1
 119 544 l 1,99,-1
 119 542 l 1,100,101
 123 516 123 516 129 489 c 128,-1,102
 135 462 135 462 143 435 c 0,103,104
 158 382 158 382 177.5 331.5 c 128,-1,105
 197 281 197 281 217 235 c 0,106,107
 241 182 241 182 263 140.5 c 128,-1,108
 285 99 285 99 300 75 c 1,0,1
EndSplineSet
EndChar

StartChar: W
Encoding: 87 87 58
Width: 797
GlyphClass: 2
Flags: W
LayerCount: 2
Fore
SplineSet
381 395 m 1,0,1
 376 368 376 368 361 311.5 c 128,-1,2
 346 255 346 255 326 192 c 2,3,-1
 304 127 l 2,4,5
 293 96 293 96 281 68 c 0,6,7
 273 48 273 48 265 31.5 c 128,-1,8
 257 15 257 15 249 2 c 2,9,-1
 241 -8 l 2,10,11
 237 -13 237 -13 233 -16 c 0,12,13
 228 -19 228 -19 224 -20.5 c 128,-1,14
 220 -22 220 -22 216 -22 c 0,15,16
 214 -22 214 -22 211.5 -21.5 c 128,-1,17
 209 -21 209 -21 207 -20 c 0,18,19
 201 -18 201 -18 196 -12 c 128,-1,20
 191 -6 191 -6 187 2 c 0,21,22
 176 23 176 23 165 52 c 2,23,-1
 142 117 l 2,24,25
 130 153 130 153 119 193 c 2,26,-1
 96 274 l 2,27,28
 74 359 74 359 57 437 c 128,-1,29
 40 515 40 515 35 556 c 0,30,31
 35 571 35 571 29 578 c 128,-1,32
 23 585 23 585 15 590 c 0,33,34
 14 591 14 591 12.5 592 c 128,-1,35
 11 593 11 593 10 594 c 0,36,37
 4 598 4 598 0 602.5 c 128,-1,38
 -4 607 -4 607 -4 615 c 128,-1,39
 -4 623 -4 623 5.5 625.5 c 128,-1,40
 15 628 15 628 27 629 c 2,41,-1
 35 629 l 1,42,-1
 41 629 l 1,43,-1
 101 629 l 2,44,45
 136 629 136 629 151.5 628 c 128,-1,46
 167 627 167 627 167 622 c 0,47,48
 167 613 167 613 162 608 c 128,-1,49
 157 603 157 603 150 600 c 0,50,51
 148 599 148 599 145.5 597.5 c 128,-1,52
 143 596 143 596 140 595 c 0,53,54
 131 589 131 589 122.5 578 c 128,-1,55
 114 567 114 567 114 542 c 0,56,57
 114 513 114 513 130.5 440.5 c 128,-1,58
 147 368 147 368 170 287 c 2,59,-1
 178 257 l 1,60,-1
 186 229 l 2,61,62
 197 189 197 189 209 153 c 2,63,-1
 229 88 l 1,64,65
 238 106 238 106 248 131 c 128,-1,66
 258 156 258 156 268 184 c 2,67,-1
 288 242 l 2,68,69
 298 273 298 273 307 304 c 0,70,71
 328 378 328 378 343.5 444 c 128,-1,72
 359 510 359 510 362 542 c 2,73,-1
 362 552 l 2,74,75
 362 572 362 572 354.5 581 c 128,-1,76
 347 590 347 590 339 594 c 0,77,78
 336 595 336 595 334 596 c 2,79,-1
 330 598 l 2,80,81
 323 601 323 601 319 604.5 c 128,-1,82
 315 608 315 608 315 615 c 0,83,84
 315 623 315 623 325.5 625.5 c 128,-1,85
 336 628 336 628 349 629 c 2,86,-1
 359 629 l 1,87,-1
 368 629 l 1,88,-1
 430 629 l 2,89,90
 450 629 450 629 463 627.5 c 128,-1,91
 476 626 476 626 476 615 c 0,92,93
 476 608 476 608 472.5 605 c 128,-1,94
 469 602 469 602 463 599 c 0,95,96
 461 598 461 598 458.5 596.5 c 128,-1,97
 456 595 456 595 453 594 c 0,98,99
 444 589 444 589 437 578 c 128,-1,100
 430 567 430 567 430 542 c 0,101,102
 430 516 430 516 447 452.5 c 128,-1,103
 464 389 464 389 487 319 c 2,104,-1
 497 288 l 1,105,-1
 507 257 l 2,106,107
 527 199 527 199 546 151.5 c 128,-1,108
 565 104 565 104 575 88 c 1,109,110
 584 108 584 108 595 140 c 128,-1,111
 606 172 606 172 616 211 c 0,112,113
 624 239 624 239 632 270 c 2,114,-1
 648 334 l 2,115,116
 663 398 663 398 674.5 457.5 c 128,-1,117
 686 517 686 517 690 556 c 1,118,-1
 690 562 l 2,119,120
 690 576 690 576 681.5 581 c 128,-1,121
 673 586 673 586 664 589 c 0,122,123
 654 592 654 592 645.5 597 c 128,-1,124
 637 602 637 602 637 615 c 0,125,126
 637 626 637 626 650.5 627.5 c 128,-1,127
 664 629 664 629 683 629 c 2,128,-1
 750 629 l 1,129,-1
 756 629 l 1,130,-1
 761 629 l 2,131,132
 769 628 769 628 776 625.5 c 128,-1,133
 783 623 783 623 783 615 c 0,134,135
 783 603 783 603 778.5 598 c 128,-1,136
 774 593 774 593 767 589 c 2,137,-1
 765 587 l 2,138,139
 764 586 764 586 762 586 c 0,140,141
 756 582 756 582 750.5 575.5 c 128,-1,142
 745 569 745 569 743 556 c 0,143,144
 738 520 738 520 722 440.5 c 128,-1,145
 706 361 706 361 684 273 c 0,146,147
 670 218 670 218 655 165 c 128,-1,148
 640 112 640 112 624 69 c 0,149,150
 617 49 617 49 609.5 32 c 128,-1,151
 602 15 602 15 595 2 c 2,152,-1
 587 -8 l 2,153,154
 583 -13 583 -13 579 -16 c 0,155,156
 574 -19 574 -19 570 -20.5 c 128,-1,157
 566 -22 566 -22 562 -22 c 0,158,159
 555 -22 555 -22 548 -16 c 128,-1,160
 541 -10 541 -10 536 2 c 0,161,162
 534 5 534 5 532.5 8.5 c 128,-1,163
 531 12 531 12 530 15 c 0,164,165
 510 54 510 54 491 98 c 2,166,-1
 454 187 l 2,167,168
 432 242 432 242 413.5 296 c 128,-1,169
 395 350 395 350 381 395 c 1,0,1
EndSplineSet
EndChar

StartChar: X
Encoding: 88 88 59
Width: 594
GlyphClass: 2
Flags: W
LayerCount: 2
Fore
SplineSet
234 315 m 1,0,1
 220 329 220 329 204 349 c 2,2,-1
 171 390 l 1,3,-1
 157 410 l 2,4,5
 150 419 150 419 144 429 c 0,6,7
 113 473 113 473 89.5 512 c 128,-1,8
 66 551 66 551 60 562 c 0,9,10
 57 567 57 567 53.5 571.5 c 128,-1,11
 50 576 50 576 47 579 c 0,12,13
 38 589 38 589 29 592.5 c 128,-1,14
 20 596 20 596 14 598 c 0,15,16
 8 601 8 601 4 604 c 128,-1,17
 0 607 0 607 0 615 c 0,18,19
 0 626 0 626 12.5 627.5 c 128,-1,20
 25 629 25 629 40 629 c 2,21,-1
 119 629 l 2,22,23
 145 629 145 629 162 628 c 128,-1,24
 179 627 179 627 179 622 c 0,25,26
 179 610 179 610 174.5 606.5 c 128,-1,27
 170 603 170 603 164 602 c 0,28,29
 164 601 164 601 164 601 c 1,30,-1
 163 601 l 2,31,32
 156 599 156 599 151 594.5 c 128,-1,33
 146 590 146 590 146 575 c 0,34,35
 146 550 146 550 183.5 500.5 c 128,-1,36
 221 451 221 451 287 375 c 1,37,-1
 315 409 l 2,38,39
 332 429 332 429 349 452 c 0,40,41
 353 456 353 456 356 460.5 c 128,-1,42
 359 465 359 465 362 469 c 0,43,44
 388 503 388 503 408 533.5 c 128,-1,45
 428 564 428 564 428 575 c 0,46,47
 428 588 428 588 419.5 591 c 128,-1,48
 411 594 411 594 401 595 c 0,49,50
 390 597 390 597 381.5 600 c 128,-1,51
 373 603 373 603 373 615 c 0,52,53
 373 624 373 624 384.5 626.5 c 128,-1,54
 396 629 396 629 409 629 c 2,55,-1
 415 629 l 1,56,-1
 421 629 l 1,57,-1
 501 629 l 2,58,59
 521 629 521 629 534 627.5 c 128,-1,60
 547 626 547 626 547 615 c 0,61,62
 547 606 547 606 542.5 602 c 128,-1,63
 538 598 538 598 531 596 c 0,64,65
 527 594 527 594 522.5 592.5 c 128,-1,66
 518 591 518 591 513 588 c 128,-1,67
 508 585 508 585 503 580.5 c 128,-1,68
 498 576 498 576 494 569 c 0,69,70
 480 546 480 546 461 518 c 2,71,-1
 420 460 l 1,72,-1
 407 443 l 2,73,74
 400 434 400 434 394 425 c 2,75,-1
 355 377 l 2,76,77
 336 353 336 353 320 335 c 1,78,-1
 323 333 l 2,79,80
 324 331 324 331 326 330 c 0,81,82
 359 302 359 302 391 264.5 c 128,-1,83
 423 227 423 227 451 188 c 0,84,85
 473 158 473 158 490.5 129 c 128,-1,86
 508 100 508 100 521 75 c 0,87,88
 525 66 525 66 534 60.5 c 128,-1,89
 543 55 543 55 553 51 c 0,90,91
 554 50 554 50 556 49.5 c 128,-1,92
 558 49 558 49 560 48 c 0,93,94
 571 43 571 43 579 37.5 c 128,-1,95
 587 32 587 32 587 22 c 0,96,97
 587 7 587 7 575.5 4.5 c 128,-1,98
 564 2 564 2 534 2 c 2,99,-1
 461 2 l 2,100,101
 425 2 425 2 412.5 4.5 c 128,-1,102
 400 7 400 7 400 22 c 0,103,104
 400 30 400 30 406.5 33.5 c 128,-1,105
 413 37 413 37 421 40 c 2,106,-1
 422 41 l 1,107,108
 430 43 430 43 435.5 46.5 c 128,-1,109
 441 50 441 50 441 56 c 0,110,111
 441 58 441 58 440 62 c 2,112,-1
 436 71 l 2,113,114
 436 72 436 72 435.5 73 c 128,-1,115
 435 74 435 74 434 75 c 2,116,-1
 406 115 l 2,117,118
 390 137 390 137 372 160 c 0,119,120
 367 167 367 167 362 174 c 2,121,-1
 351 186 l 2,122,123
 327 216 327 216 304.5 240.5 c 128,-1,124
 282 265 282 265 267 275 c 1,125,126
 258 261 258 261 238.5 235.5 c 128,-1,127
 219 210 219 210 198 179 c 0,128,129
 189 167 189 167 181 155 c 2,130,-1
 165 129 l 1,131,-1
 151 105 l 2,132,133
 144 93 144 93 139 81 c 0,134,135
 139 80 139 80 138.5 78 c 128,-1,136
 138 76 138 76 137 74 c 2,137,-1
 137 72 l 2,138,139
 136 69 136 69 135 66.5 c 128,-1,140
 134 64 134 64 134 63 c 0,141,142
 134 55 134 55 139.5 51 c 128,-1,143
 145 47 145 47 152 44 c 2,144,-1
 153 44 l 2,145,146
 160 41 160 41 166 36.5 c 128,-1,147
 172 32 172 32 172 22 c 0,148,149
 172 7 172 7 160.5 4.5 c 128,-1,150
 149 2 149 2 119 2 c 2,151,-1
 53 2 l 2,152,153
 28 2 28 2 14 4.5 c 128,-1,154
 0 7 0 7 0 22 c 0,155,156
 0 33 0 33 5.5 36.5 c 128,-1,157
 11 40 11 40 19 42 c 0,158,159
 25 44 25 44 31 45.5 c 128,-1,160
 37 47 37 47 44 51 c 0,161,162
 50 54 50 54 55.5 60 c 128,-1,163
 61 66 61 66 66 75 c 0,164,165
 78 95 78 95 98 123 c 2,166,-1
 139 181 l 2,167,168
 140 183 140 183 141.5 184.5 c 128,-1,169
 143 186 143 186 144 188 c 2,170,-1
 202 267 l 2,171,172
 228 304 228 304 234 315 c 1,0,1
EndSplineSet
EndChar

StartChar: Y
Encoding: 89 89 60
Width: 594
GlyphClass: 2
Flags: W
LayerCount: 2
Fore
SplineSet
247 255 m 1,0,-1
 208 311 l 1,1,-1
 163 377 l 1,2,-1
 159 383 l 1,3,-1
 155 389 l 1,4,-1
 86 493 l 2,5,6
 55 541 55 541 46 562 c 0,7,8
 41 572 41 572 34.5 578 c 128,-1,9
 28 584 28 584 21 588 c 0,10,11
 17 591 17 591 12.5 592.5 c 128,-1,12
 8 594 8 594 4 596 c 0,13,14
 -2 599 -2 599 -7 603 c 128,-1,15
 -12 607 -12 607 -12 615 c 0,16,17
 -12 626 -12 626 8 627.5 c 128,-1,18
 28 629 28 629 53 629 c 2,19,-1
 119 629 l 2,20,21
 139 629 139 629 152.5 627.5 c 128,-1,22
 166 626 166 626 166 615 c 0,23,24
 166 605 166 605 159.5 601 c 128,-1,25
 153 597 153 597 145 595 c 2,26,-1
 144 595 l 1,27,28
 144 595 144 595 144 594 c 0,29,30
 136 592 136 592 130 588.5 c 128,-1,31
 124 585 124 585 124 577 c 0,32,33
 124 574 124 574 126 569.5 c 128,-1,34
 128 565 128 565 131 560 c 0,35,36
 131 559 131 559 132 558 c 128,-1,37
 133 557 133 557 133 556 c 0,38,39
 142 536 142 536 163 503 c 2,40,-1
 210 435 l 1,41,-1
 214 429 l 1,42,-1
 218 423 l 1,43,-1
 265 356 l 1,44,-1
 300 308 l 1,45,-1
 332 351 l 1,46,-1
 371 403 l 2,47,48
 373 407 373 407 376 410.5 c 128,-1,49
 379 414 379 414 381 418 c 2,50,-1
 424 480 l 2,51,52
 444 509 444 509 454 529 c 0,53,54
 461 543 461 543 463.5 553 c 128,-1,55
 466 563 466 563 466 569 c 0,56,57
 466 581 466 581 459 585 c 128,-1,58
 452 589 452 589 444 592 c 0,59,60
 435 595 435 595 428 599.5 c 128,-1,61
 421 604 421 604 421 615 c 0,62,63
 421 623 421 623 431.5 626 c 128,-1,64
 442 629 442 629 455 629 c 2,65,-1
 461 629 l 1,66,-1
 468 629 l 1,67,-1
 527 629 l 2,68,69
 557 629 557 629 568.5 627.5 c 128,-1,70
 580 626 580 626 580 615 c 0,71,72
 580 603 580 603 575 599 c 128,-1,73
 570 595 570 595 564 592 c 0,74,75
 561 591 561 591 559 590 c 128,-1,76
 557 589 557 589 554 588 c 0,77,78
 549 585 549 585 543.5 579 c 128,-1,79
 538 573 538 573 534 562 c 0,80,81
 526 538 526 538 497.5 494 c 128,-1,82
 469 450 469 450 434 402 c 0,83,84
 429 396 429 396 424 389 c 2,85,-1
 414 375 l 1,86,-1
 362 308 l 1,87,-1
 320 255 l 1,88,-1
 320 88 l 2,89,90
 320 63 320 63 328.5 56 c 128,-1,91
 337 49 337 49 347 48 c 0,92,93
 347 47 347 47 348 47 c 2,94,-1
 350 47 l 2,95,96
 359 45 359 45 366 41.5 c 128,-1,97
 373 38 373 38 373 22 c 0,98,99
 373 7 373 7 361.5 4.5 c 128,-1,100
 350 2 350 2 320 2 c 2,101,-1
 240 2 l 2,102,103
 209 2 209 2 200.5 4.5 c 128,-1,104
 192 7 192 7 192 22 c 0,105,106
 192 35 192 35 199.5 39 c 128,-1,107
 207 43 207 43 216 45 c 0,108,109
 217 46 217 46 218 46 c 2,110,-1
 220 46 l 2,111,112
 230 49 230 49 238.5 55 c 128,-1,113
 247 61 247 61 247 81 c 2,114,-1
 247 255 l 1,0,-1
EndSplineSet
EndChar

StartChar: Z
Encoding: 90 90 61
Width: 492
GlyphClass: 2
Flags: W
LayerCount: 2
Fore
SplineSet
22 68 m 0,0,1
 38 102 38 102 85 170 c 2,2,-1
 187 312 l 1,3,-1
 277 441 l 2,4,5
 321 503 321 503 342 542 c 0,6,7
 347 553 347 553 350 561 c 128,-1,8
 353 569 353 569 353 574 c 0,9,10
 353 582 353 582 342.5 585.5 c 128,-1,11
 332 589 332 589 308 589 c 2,12,-1
 235 589 l 2,13,14
 221 589 221 589 205 587.5 c 128,-1,15
 189 586 189 586 172 583 c 0,16,17
 146 577 146 577 121 567 c 128,-1,18
 96 557 96 557 81 542 c 0,19,20
 79 540 79 540 76.5 538 c 128,-1,21
 74 536 74 536 72 534 c 0,22,23
 64 527 64 527 57 522 c 128,-1,24
 50 517 50 517 45 517 c 0,25,26
 41 517 41 517 38 522 c 128,-1,27
 35 527 35 527 35 536 c 2,28,-1
 48 615 l 2,29,30
 48 626 48 626 63 627.5 c 128,-1,31
 78 629 78 629 128 629 c 2,32,-1
 395 629 l 2,33,34
 427 629 427 629 439 622.5 c 128,-1,35
 451 616 451 616 451 605 c 0,36,37
 451 602 451 602 449.5 596.5 c 128,-1,38
 448 591 448 591 446 585 c 0,39,40
 445 583 445 583 444.5 580.5 c 128,-1,41
 444 578 444 578 443 575 c 0,42,43
 428 538 428 538 385 473 c 2,44,-1
 294 338 l 1,45,-1
 286 328 l 2,46,47
 282 322 282 322 279 317 c 2,48,-1
 177 175 l 2,49,50
 129 109 129 109 114 81 c 0,51,52
 110 74 110 74 107 68 c 128,-1,53
 104 62 104 62 104 58 c 0,54,55
 104 52 104 52 110.5 49 c 128,-1,56
 117 46 117 46 126 46 c 0,57,58
 131 46 131 46 136 46.5 c 128,-1,59
 141 47 141 47 146 47 c 2,60,-1
 147 47 l 1,61,-1
 149 47 l 2,62,63
 154 48 154 48 158 48 c 2,64,-1
 167 48 l 1,65,-1
 308 48 l 2,66,67
 321 48 321 48 336.5 52 c 128,-1,68
 352 56 352 56 368 64 c 0,69,70
 382 72 382 72 396 83 c 128,-1,71
 410 94 410 94 423 108 c 0,72,73
 426 112 426 112 430 115.5 c 128,-1,74
 434 119 434 119 438 121 c 0,75,76
 441 122 441 122 443.5 123 c 128,-1,77
 446 124 446 124 449 124 c 0,78,79
 454 124 454 124 458.5 120 c 128,-1,80
 463 116 463 116 463 108 c 2,81,-1
 449 15 l 2,82,83
 449 6 449 6 438.5 3 c 128,-1,84
 428 0 428 0 410 0 c 0,85,86
 404 0 404 0 396.5 0.5 c 128,-1,87
 389 1 389 1 380 1 c 0,88,89
 372 1 372 1 362.5 1.5 c 128,-1,90
 353 2 353 2 342 2 c 2,91,-1
 48 2 l 2,92,93
 29 2 29 2 18.5 9 c 128,-1,94
 8 16 8 16 8 27 c 0,95,96
 8 32 8 32 11 41 c 128,-1,97
 14 50 14 50 18 59 c 0,98,99
 19 61 19 61 20 63.5 c 128,-1,100
 21 66 21 66 22 68 c 0,0,1
EndSplineSet
EndChar

StartChar: bracketleft
Encoding: 91 91 62
Width: 206
GlyphClass: 2
Flags: W
LayerCount: 2
Fore
SplineSet
46 -98 m 1,0,-1
 46 549 l 2,1,2
 46 614 46 614 50.5 632 c 128,-1,3
 55 650 55 650 80 650 c 2,4,-1
 139 650 l 2,5,6
 159 650 159 650 169 647.5 c 128,-1,7
 179 645 179 645 179 629 c 0,8,9
 179 618 179 618 171 613 c 128,-1,10
 163 608 163 608 151 603 c 0,11,12
 149 602 149 602 147 601.5 c 128,-1,13
 145 601 145 601 143 600 c 0,14,15
 129 594 129 594 117.5 585 c 128,-1,16
 106 576 106 576 106 556 c 2,17,-1
 106 -38 l 2,18,19
 106 -60 106 -60 117.5 -68.5 c 128,-1,20
 129 -77 129 -77 143 -81 c 0,21,22
 144 -82 144 -82 146 -82.5 c 128,-1,23
 148 -83 148 -83 150 -83 c 0,24,25
 161 -87 161 -87 170 -92 c 128,-1,26
 179 -97 179 -97 179 -110 c 0,27,28
 179 -125 179 -125 171.5 -127.5 c 128,-1,29
 164 -130 164 -130 139 -130 c 2,30,-1
 73 -131 l 2,31,32
 53 -130 53 -130 49.5 -123.5 c 128,-1,33
 46 -117 46 -117 46 -97 c 2,34,-1
 46 -98 l 1,0,-1
EndSplineSet
EndChar

StartChar: backslash
Encoding: 92 92 63
Width: 531
GlyphClass: 2
Flags: W
LayerCount: 2
Fore
SplineSet
335 2 m 1,0,-1
 68 635 l 1,1,-1
 134 635 l 1,2,-1
 401 2 l 1,3,-1
 335 2 l 1,0,-1
EndSplineSet
EndChar

StartChar: bracketright
Encoding: 93 93 64
Width: 206
GlyphClass: 2
Flags: W
LayerCount: 2
Fore
SplineSet
139 -85 m 2,0,1
 139 -109 139 -109 132.5 -113 c 128,-1,2
 126 -117 126 -117 106 -117 c 2,3,-1
 46 -118 l 2,4,5
 32 -117 32 -117 22.5 -114.5 c 128,-1,6
 13 -112 13 -112 13 -97 c 128,-1,7
 13 -82 13 -82 21.5 -77.5 c 128,-1,8
 30 -73 30 -73 40 -71 c 2,9,-1
 44 -71 l 2,10,11
 45 -71 45 -71 47 -70 c 0,12,13
 59 -68 59 -68 69.5 -59.5 c 128,-1,14
 80 -51 80 -51 80 -24 c 2,15,-1
 80 556 l 2,16,17
 80 576 80 576 69.5 582 c 128,-1,18
 59 588 59 588 47 590 c 0,19,20
 45 591 45 591 44 591 c 2,21,-1
 42 591 l 2,22,23
 31 593 31 593 22 597 c 128,-1,24
 13 601 13 601 13 615 c 0,25,26
 13 630 13 630 22.5 632.5 c 128,-1,27
 32 635 32 635 46 635 c 2,28,-1
 93 635 l 2,29,30
 124 635 124 635 131.5 631 c 128,-1,31
 139 627 139 627 139 610 c 2,32,-1
 139 -85 l 2,0,1
EndSplineSet
EndChar

StartChar: asciicircum
Encoding: 94 94 65
Width: 337
GlyphClass: 2
Flags: W
LayerCount: 2
Fore
SplineSet
275 476 m 6,0,1
 275 475 275 475 275.5 474 c 132,-1,2
 276 473 276 473 276 472 c 6,3,-1
 276 471 l 5,4,-1
 277 471 l 5,5,6
 278 467 278 467 279 463.5 c 132,-1,7
 280 460 280 460 280 458 c 4,8,9
 280 453 280 453 277 450.5 c 132,-1,10
 274 448 274 448 270 448 c 4,11,12
 268 448 268 448 265 448.5 c 132,-1,13
 262 449 262 449 259 451 c 4,14,15
 256 452 256 452 253.5 453 c 4,16,17
 251.230263158 453.907894737 251.230263158 453.907894737 249 456 c 6,18,-1
 170 530.10619469 l 5,19,-1
 91 456 l 6,20,21
 89 454 89 454 86.5 453 c 132,-1,22
 84 452 84 452 81 451 c 4,23,24
 78 449 78 449 75 448.5 c 132,-1,25
 72 448 72 448 70 448 c 4,26,27
 66 448 66 448 63 450.5 c 132,-1,28
 60 453 60 453 60 458 c 4,29,30
 60 460 60 460 61 463.5 c 132,-1,31
 62 467 62 467 63 471 c 5,32,-1
 64 471 l 5,33,-1
 64 472 l 6,34,35
 64 473 64 473 64.5 474 c 132,-1,36
 65 475 65 475 65 476 c 6,37,-1
 111 562 l 6,38,39
 121 582 121 582 133 585.5 c 4,40,41
 143.798806265 588.649651827 143.798806265 588.649651827 160.266359178 588.964930346 c 4,42,43
 161.157289966 588.999999985 161.157289966 588.999999985 162 589 c 6,44,-1
 164 589 l 5,45,-1
 170 589 l 5,46,-1
 176 589 l 5,47,-1
 178 589 l 6,48,49
 178.073792655 588.994323642 178.073792655 588.994323642 178.147504757 588.988582869 c 4,50,51
 195.6853702 588.800100332 195.6853702 588.800100332 207 585.5 c 4,52,53
 218.36433121 581.884076433 218.36433121 581.884076433 229 562 c 6,54,-1
 275 476 l 6,0,1
EndSplineSet
EndChar

StartChar: underscore
Encoding: 95 95 66
Width: 432
GlyphClass: 2
Flags: W
LayerCount: 2
Fore
SplineSet
0 -104 m 1,0,-1
 0 -58 l 1,1,-1
 420 -58 l 1,2,-1
 420 -104 l 1,3,-1
 0 -104 l 1,0,-1
EndSplineSet
EndChar

StartChar: grave
Encoding: 96 96 67
Width: 269
GlyphClass: 2
Flags: W
LayerCount: 2
Fore
SplineSet
207 476 m 6,0,1
 207 475 207 475 207.5 474 c 132,-1,2
 208 473 208 473 208 472 c 6,3,-1
 208 471 l 5,4,-1
 209 471 l 4,5,6
 210 467 210 467 211 463.5 c 132,-1,7
 212 460 212 460 212 458 c 4,8,9
 212 453 212 453 209 450.5 c 132,-1,10
 206 448 206 448 202 448 c 4,11,12
 200 448 200 448 197 448.5 c 132,-1,13
 194 449 194 449 191 451 c 4,14,15
 188 452 188 452 185.5 453 c 132,-1,16
 183 454 183 454 181 456 c 6,17,-1
 68 562 l 6,18,19
 63 566 63 566 61.5 569.5 c 132,-1,20
 60 573 60 573 60 575 c 4,21,22
 60 582 60 582 70.5 585 c 132,-1,23
 81 588 81 588 94 589 c 6,24,-1
 102 589 l 5,25,-1
 108 589 l 6,26,27
 127 589 127 589 139 585.5 c 132,-1,28
 151 582 151 582 161 562 c 6,29,-1
 207 476 l 6,0,1
EndSplineSet
EndChar

StartChar: a
Encoding: 97 97 68
Width: 432
GlyphClass: 2
Flags: W
LayerCount: 2
Fore
SplineSet
307 61 m 5,0,1
 295 33 295 33 264 15.5 c 132,-1,2
 233 -2 233 -2 199 -8 c 4,3,4
 190 -10 190 -10 182 -10.5 c 132,-1,5
 174 -11 174 -11 166 -11 c 4,6,7
 106 -11 106 -11 63 22 c 132,-1,8
 20 55 20 55 20 114 c 4,9,10
 20 172 20 172 82 218 c 132,-1,11
 144 264 144 264 249 264 c 6,12,-1
 262 264 l 5,13,-1
 277 264 l 6,14,15
 283 263 283 263 289 263 c 132,-1,16
 295 263 295 263 300 262 c 5,17,18
 298 305 298 305 267 328.5 c 132,-1,19
 236 352 236 352 199 357 c 4,20,21
 194 357 194 357 189 357.5 c 132,-1,22
 184 358 184 358 179 358 c 4,23,24
 158 358 158 358 138.5 352 c 132,-1,25
 119 346 119 346 106 335 c 4,26,27
 103 332 103 332 99 329 c 6,28,-1
 92 325 l 6,29,30
 86 323 86 323 80.5 321.5 c 132,-1,31
 75 320 75 320 71 320 c 4,32,33
 61 320 61 320 52.5 327 c 132,-1,34
 44 334 44 334 43 342 c 6,35,-1
 43 343 l 5,36,-1
 43 345 l 6,37,38
 43 347 43 347 43.5 348.5 c 132,-1,39
 44 350 44 350 45 352 c 4,40,41
 47 357 47 357 51 361 c 132,-1,42
 55 365 55 365 60 368 c 4,43,44
 85 385 85 385 116 392.5 c 132,-1,45
 147 400 147 400 179 400 c 6,46,-1
 181 400 l 5,47,-1
 185 400 l 6,48,49
 253 398 253 398 310 363 c 132,-1,50
 367 328 367 328 367 262 c 6,51,-1
 367 75 l 6,52,53
 367 55 367 55 374 49 c 132,-1,54
 381 43 381 43 390 41 c 4,55,56
 391 41 391 41 392 40.5 c 132,-1,57
 393 40 393 40 395 40 c 4,58,59
 402 39 402 39 407.5 36 c 132,-1,60
 413 33 413 33 413 22 c 4,61,62
 413 7 413 7 403 4.5 c 132,-1,63
 393 2 393 2 373 2 c 6,64,-1
 353 2 l 6,65,66
 328 2 328 2 317.5 4.5 c 132,-1,67
 307 7 307 7 307 22 c 6,68,-1
 307 61 l 5,0,1
300 222 m 5,69,-1
 270 222 l 6,70,71
 262 222 262 222 253.5 221.5 c 132,-1,72
 245 221 245 221 237 221 c 4,73,74
 183 216 183 216 138 191.5 c 132,-1,75
 93 167 93 167 93 114 c 5,76,-1
 92 113 l 6,77,78
 92 112 92 112 92 111 c 132,-1,79
 92 110 92 110 92 109 c 6,80,-1
 91 108 l 5,81,82
 91 71 91 71 117.5 53 c 132,-1,83
 144 35 144 35 177 35 c 4,84,85
 182 35 182 35 187.5 35.5 c 132,-1,86
 193 36 193 36 198 37 c 4,87,88
 236 43 236 43 268 69 c 132,-1,89
 300 95 300 95 300 134 c 6,90,-1
 300 222 l 5,69,-1
EndSplineSet
EndChar

StartChar: b
Encoding: 98 98 69
Width: 452
GlyphClass: 2
Flags: W
LayerCount: 2
Fore
SplineSet
108 348 m 1,0,1
 129 371 129 371 156 385.5 c 128,-1,2
 183 400 183 400 210 406 c 0,3,4
 220 408 220 408 229 409 c 128,-1,5
 238 410 238 410 247 410 c 0,6,7
 311 410 311 410 363 360 c 128,-1,8
 415 310 415 310 415 212 c 2,9,-1
 415 201 l 1,10,11
 410 103 410 103 355.5 51 c 128,-1,12
 301 -1 301 -1 236 -10 c 0,13,14
 229 -11 229 -11 221.5 -11.5 c 128,-1,15
 214 -12 214 -12 207 -12 c 0,16,17
 145 -12 145 -12 96.5 26.5 c 128,-1,18
 48 65 48 65 48 141 c 2,19,-1
 48 556 l 2,20,21
 48 568 48 568 41 573 c 128,-1,22
 34 578 34 578 25 581 c 0,23,24
 24 581 24 581 23 581 c 2,25,-1
 23 582 l 1,26,27
 15 585 15 585 8.5 589 c 128,-1,28
 2 593 2 593 2 602 c 0,29,30
 2 605 2 605 3.5 607.5 c 128,-1,31
 5 610 5 610 8 613 c 0,32,33
 14 619 14 619 29 625 c 2,34,-1
 68 643 l 2,35,36
 76 646 76 646 81.5 647 c 128,-1,37
 87 648 87 648 91 648 c 0,38,39
 100 648 100 648 104 640 c 128,-1,40
 108 632 108 632 108 615 c 2,41,-1
 108 348 l 1,0,1
108 289 m 1,42,-1
 108 174 l 2,43,44
 108 104 108 104 143 67 c 128,-1,45
 178 30 178 30 221 30 c 2,46,-1
 227 30 l 2,47,48
 231 30 231 30 234 31 c 0,49,50
 277 37 277 37 312.5 79.5 c 128,-1,51
 348 122 348 122 348 201 c 0,52,53
 348 273 348 273 313 319 c 128,-1,54
 278 365 278 365 229 365 c 0,55,56
 215 365 215 365 199.5 360.5 c 128,-1,57
 184 356 184 356 169 347 c 0,58,59
 153 338 153 338 137.5 323.5 c 128,-1,60
 122 309 122 309 108 289 c 1,42,-1
EndSplineSet
EndChar

StartChar: c
Encoding: 99 99 70
Width: 389
GlyphClass: 2
Flags: W
LayerCount: 2
Fore
SplineSet
12 194 m 0,0,1
 12 280 12 280 74 347.5 c 128,-1,2
 136 415 136 415 212 415 c 0,3,4
 252 415 252 415 287.5 401 c 128,-1,5
 323 387 323 387 338 362 c 0,6,7
 340 360 340 360 341 357.5 c 128,-1,8
 342 355 342 355 343 353 c 0,9,10
 346 347 346 347 347 342 c 128,-1,11
 348 337 348 337 348 333 c 0,12,13
 348 321 348 321 339 313 c 128,-1,14
 330 305 330 305 319 302 c 0,15,16
 316 301 316 301 313.5 300.5 c 128,-1,17
 311 300 311 300 308 300 c 2,18,-1
 306 300 l 1,19,-1
 304 300 l 2,20,21
 298 301 298 301 293 305 c 128,-1,22
 288 309 288 309 285 315 c 0,23,24
 277 340 277 340 253.5 354 c 128,-1,25
 230 368 230 368 204 368 c 0,26,27
 199 368 199 368 194.5 367.5 c 128,-1,28
 190 367 190 367 186 366 c 0,29,30
 150 359 150 359 119.5 323 c 128,-1,31
 89 287 89 287 85 216 c 0,32,33
 85 214 85 214 84.5 211.5 c 128,-1,34
 84 209 84 209 84 206 c 128,-1,35
 84 203 84 203 83.5 200.5 c 128,-1,36
 83 198 83 198 83 196 c 0,37,38
 83 121 83 121 123 83.5 c 128,-1,39
 163 46 163 46 211 45 c 2,40,-1
 212 45 l 1,41,-1
 214 45 l 2,42,43
 219 45 219 45 224.5 45.5 c 128,-1,44
 230 46 230 46 235 47 c 0,45,46
 259 51 259 51 281 63 c 128,-1,47
 303 75 303 75 318 95 c 0,48,49
 320 99 320 99 325 102 c 128,-1,50
 330 105 330 105 335 107 c 0,51,52
 338 108 338 108 341 108.5 c 128,-1,53
 344 109 344 109 347 109 c 0,54,55
 352 109 352 109 355 105.5 c 128,-1,56
 358 102 358 102 358 96 c 0,57,58
 358 92 358 92 357 86.5 c 128,-1,59
 356 81 356 81 352 75 c 0,60,61
 332 37 332 37 296 16.5 c 128,-1,62
 260 -4 260 -4 221 -8 c 0,63,64
 217 -8 217 -8 212 -8.5 c 128,-1,65
 207 -9 207 -9 202 -9 c 2,66,-1
 195 -9 l 2,67,68
 192 -9 192 -9 188 -8 c 0,69,70
 123 -4 123 -4 68.5 46.5 c 128,-1,71
 14 97 14 97 12 194 c 0,0,1
EndSplineSet
EndChar

StartChar: d
Encoding: 100 100 71
Width: 452
GlyphClass: 2
Flags: W
LayerCount: 2
Fore
SplineSet
308 55 m 1,0,1
 287 20 287 20 253 2 c 128,-1,2
 219 -16 219 -16 182 -16 c 2,3,-1
 174 -16 l 2,4,5
 170 -16 170 -16 166 -15 c 0,6,7
 105 -9 105 -9 53.5 47 c 128,-1,8
 2 103 2 103 2 207 c 0,9,10
 2 298 2 298 62.5 356.5 c 128,-1,11
 123 415 123 415 197 415 c 0,12,13
 206 415 206 415 215.5 414 c 128,-1,14
 225 413 225 413 235 410 c 0,15,16
 254 406 254 406 273 397 c 128,-1,17
 292 388 292 388 308 375 c 1,18,-1
 308 569 l 2,19,20
 308 579 308 579 301 581.5 c 128,-1,21
 294 584 294 584 285 585 c 128,-1,22
 276 586 276 586 269 589 c 128,-1,23
 262 592 262 592 262 602 c 0,24,25
 262 615 262 615 270.5 619 c 128,-1,26
 279 623 279 623 292 626 c 0,27,28
 296 627 296 627 300.5 628 c 128,-1,29
 305 629 305 629 309 630 c 0,30,31
 312 631 312 631 315.5 632.5 c 128,-1,32
 319 634 319 634 322 635 c 0,33,34
 323 636 323 636 324.5 637 c 128,-1,35
 326 638 326 638 328 638 c 0,36,37
 335 642 335 642 341.5 644.5 c 128,-1,38
 348 647 348 647 352 647 c 0,39,40
 358 647 358 647 363 641.5 c 128,-1,41
 368 636 368 636 368 622 c 2,42,-1
 368 81 l 2,43,44
 368 61 368 61 375.5 53 c 128,-1,45
 383 45 383 45 392 41 c 0,46,47
 393 41 393 41 395 40 c 2,48,-1
 399 38 l 2,49,50
 406 36 406 36 410.5 33 c 128,-1,51
 415 30 415 30 415 22 c 0,52,53
 415 7 415 7 404 4.5 c 128,-1,54
 393 2 393 2 368 2 c 2,55,-1
 335 2 l 2,56,57
 320 2 320 2 314 5.5 c 128,-1,58
 308 9 308 9 308 28 c 2,59,-1
 308 55 l 1,0,1
308 328 m 1,60,61
 293 342 293 342 273.5 351 c 128,-1,62
 254 360 254 360 233 363 c 0,63,64
 228 364 228 364 222 364.5 c 128,-1,65
 216 365 216 365 211 365 c 0,66,67
 160 365 160 365 117.5 326 c 128,-1,68
 75 287 75 287 75 201 c 0,69,70
 75 200 75 200 74.5 199 c 128,-1,71
 74 198 74 198 74 196 c 128,-1,72
 74 194 74 194 74 192 c 2,73,-1
 73 191 l 1,74,75
 73 115 73 115 107 81 c 128,-1,76
 141 47 141 47 182 42 c 0,77,78
 186 41 186 41 190 41 c 2,79,-1
 197 41 l 1,80,-1
 199 41 l 1,81,-1
 200 41 l 2,82,83
 239 42 239 42 272.5 62 c 128,-1,84
 306 82 306 82 308 105 c 2,85,-1
 308 106 l 1,86,-1
 308 108 l 1,87,-1
 308 328 l 1,60,61
EndSplineSet
EndChar

StartChar: e
Encoding: 101 101 72
Width: 432
GlyphClass: 2
Flags: W
LayerCount: 2
Fore
SplineSet
100 148 m 1,0,1
 113 92 113 92 150.5 64.5 c 128,-1,2
 188 37 188 37 231 36 c 2,3,-1
 233 36 l 1,4,-1
 235 36 l 2,5,6
 240 36 240 36 245 36.5 c 128,-1,7
 250 37 250 37 255 37 c 0,8,9
 286 42 286 42 314.5 57.5 c 128,-1,10
 343 73 343 73 360 95 c 1,11,-1
 364 98 l 1,12,-1
 367 102 l 2,13,14
 371 105 371 105 374.5 106.5 c 128,-1,15
 378 108 378 108 381 108 c 0,16,17
 387 108 387 108 391.5 102.5 c 128,-1,18
 396 97 396 97 398 90 c 2,19,-1
 398 88 l 1,20,-1
 398 86 l 2,21,22
 398 84 398 84 397.5 81.5 c 128,-1,23
 397 79 397 79 397 77 c 0,24,25
 396 75 396 75 395 72.5 c 128,-1,26
 394 70 394 70 393 68 c 0,27,28
 368 36 368 36 337 17 c 128,-1,29
 306 -2 306 -2 274 -10 c 0,30,31
 261 -14 261 -14 248 -15.5 c 128,-1,32
 235 -17 235 -17 222 -17 c 0,33,34
 146 -17 146 -17 85.5 35.5 c 128,-1,35
 25 88 25 88 25 172 c 0,36,37
 25 173 25 173 25.5 174 c 128,-1,38
 26 175 26 175 26 177 c 0,39,40
 26 178 26 178 26.5 179 c 128,-1,41
 27 180 27 180 27 181 c 0,42,43
 27 272 27 272 73.5 324 c 128,-1,44
 120 376 120 376 176 395 c 0,45,46
 194 402 194 402 212.5 405 c 128,-1,47
 231 408 231 408 247 408 c 2,48,-1
 255 408 l 2,49,50
 311 408 311 408 351 373.5 c 128,-1,51
 391 339 391 339 391 297 c 0,52,53
 391 290 391 290 390 283 c 128,-1,54
 389 276 389 276 386 269 c 0,55,56
 382 255 382 255 372.5 241.5 c 128,-1,57
 363 228 363 228 347 216 c 0,58,59
 302 179 302 179 238 166 c 128,-1,60
 174 153 174 153 100 148 c 1,0,1
93 187 m 1,61,62
 194 187 194 187 246.5 214 c 128,-1,63
 299 241 299 241 313 275 c 0,64,65
 316 282 316 282 317 288 c 128,-1,66
 318 294 318 294 318 300 c 0,67,68
 318 325 318 325 296.5 343.5 c 128,-1,69
 275 362 275 362 240 362 c 0,70,71
 170 358 170 358 130.5 315 c 128,-1,72
 91 272 91 272 91 204 c 0,73,74
 91 202 91 202 91.5 200 c 128,-1,75
 92 198 92 198 92 196 c 0,76,77
 92 193 92 193 92.5 191 c 128,-1,78
 93 189 93 189 93 187 c 1,61,62
EndSplineSet
EndChar

StartChar: f
Encoding: 102 102 73
Width: 269
GlyphClass: 2
Flags: W
HStem: 2 35<38.188 70.7808 165 178.328> 362 39<14.1257 78 144 227.358> 579 78<189.031 236.807> 596 61<146.836 188.953>
VStem: 78 66<43.1599 362 401 584.999>
LayerCount: 2
Fore
SplineSet
78 362 m 1,0,-1
 25 362 l 2,1,2
 18 362 18 362 14 368 c 128,-1,3
 10 374 10 374 10 381 c 0,4,5
 10 389 10 389 14 395 c 128,-1,6
 18 401 18 401 25 401 c 2,7,-1
 78 401 l 1,8,-1
 78 476 l 2,9,10
 78 547 78 547 101.5 589 c 128,-1,11
 125 631 125 631 154 647 c 0,12,13
 163 652 163 652 172 654.5 c 128,-1,14
 181 657 181 657 189 657 c 2,15,-1
 197 657 l 1,16,17
 215 653 215 653 226 645 c 128,-1,18
 237 637 237 637 241 629 c 0,19,20
 243 625 243 625 244 621 c 128,-1,21
 245 617 245 617 245 614 c 0,22,23
 245 601 245 601 236 591.5 c 128,-1,24
 227 582 227 582 216 579 c 2,25,-1
 214 579 l 1,26,-1
 211 579 l 1,27,-1
 208 579 l 2,28,29
 207 579 207 579 206 580 c 0,30,31
 202 580 202 580 198 582.5 c 128,-1,32
 194 585 194 585 191 589 c 0,33,34
 190 590 190 590 189 591 c 2,35,-1
 186 592 l 1,36,-1
 182 594 l 2,37,38
 180 595 180 595 178 595 c 0,39,40
 175 596 175 596 173 596.5 c 128,-1,41
 171 597 171 597 169 597 c 0,42,43
 168 597 168 597 166.5 596.5 c 128,-1,44
 165 596 165 596 163 596 c 0,45,46
 156 593 156 593 150 582 c 128,-1,47
 144 571 144 571 144 549 c 2,48,-1
 144 401 l 1,49,-1
 212 401 l 2,50,51
 223 401 223 401 227.5 395 c 128,-1,52
 232 389 232 389 232 381 c 0,53,54
 232 374 232 374 227.5 368 c 128,-1,55
 223 362 223 362 212 362 c 2,56,-1
 144 362 l 1,57,-1
 144 61 l 2,58,59
 144 46 144 46 150.5 42 c 128,-1,60
 157 38 157 38 164 36 c 2,61,-1
 165 35 l 1,62,63
 173 34 173 34 178.5 30.5 c 128,-1,64
 184 27 184 27 184 15 c 0,65,66
 184 5 184 5 173.5 3.5 c 128,-1,67
 163 2 163 2 138 2 c 2,68,-1
 78 2 l 2,69,70
 53 2 53 2 42.5 3.5 c 128,-1,71
 32 5 32 5 32 15 c 0,72,73
 32 29 32 29 38 32 c 128,-1,74
 44 35 44 35 52 36 c 0,75,76
 53 36 53 36 53.5 36.5 c 128,-1,77
 54 37 54 37 55 37 c 0,78,79
 64 38 64 38 71 43 c 128,-1,80
 78 48 78 48 78 68 c 2,81,-1
 78 362 l 1,0,-1
EndSplineSet
EndChar

StartChar: g
Encoding: 103 103 74
Width: 452
GlyphClass: 2
Flags: W
LayerCount: 2
Fore
SplineSet
350 363 m 1,0,-1
 328 355 l 1,1,2
 353 333 353 333 368.5 294 c 0,3,4
 385 252 385 252 385 212 c 2,5,-1
 385 209 l 1,6,-1
 385 206 l 1,7,-1
 385 200 l 1,8,-1
 385 193 l 2,9,10
 385 159 385 159 364 116 c 0,11,12
 346 79 346 79 308 55 c 1,13,14
 354 40 354 40 378 14.5 c 0,15,16
 392 -1 392 -1 405 -39 c 0,17,18
 406 -42 406 -42 406 -44 c 2,19,-1
 406 -50 l 1,20,-1
 406 -56 l 2,21,22
 406 -59 406 -59 405 -63 c 0,23,24
 399 -99 399 -99 361 -131 c 128,-1,25
 323 -163 323 -163 255 -170 c 0,26,27
 245 -171 245 -171 234 -171 c 2,28,-1
 211 -171 l 1,29,-1
 203 -171 l 1,30,-1
 196 -171 l 1,31,-1
 190 -171 l 1,32,-1
 185 -171 l 2,33,34
 125 -171 125 -171 70 -153.5 c 0,35,36
 18 -137 18 -137 18 -105 c 0,37,38
 18 -99 18 -99 21 -92 c 128,-1,39
 24 -85 24 -85 28 -77 c 0,40,41
 30 -73 30 -73 32.5 -70 c 128,-1,42
 35 -67 35 -67 38 -64 c 0,43,44
 46 -55 46 -55 53 -51 c 128,-1,45
 60 -47 60 -47 65 -47 c 0,46,47
 69 -47 69 -47 72 -50 c 128,-1,48
 75 -53 75 -53 75 -57 c 2,49,-1
 75 -65 l 2,50,51
 75 -64 75 -64 74.5 -65 c 128,-1,52
 74 -66 74 -66 74 -67 c 128,-1,53
 74 -68 74 -68 73 -69 c 2,54,-1
 73 -70 l 2,55,56
 73 -92 73 -92 107 -110 c 128,-1,57
 141 -128 141 -128 192 -128 c 0,58,59
 208 -128 208 -128 227 -126 c 0,60,61
 248.75 -123.928571429 248.75 -123.928571429 266 -119 c 2,62,-1
 280 -115 l 2,63,64
 289 -112 289 -112 295 -110 c 0,65,66
 312 -104 312 -104 323.5 -87.5 c 128,-1,67
 335 -71 335 -71 335 -52 c 0,68,69
 335 -44 335 -44 332.5 -35.5 c 128,-1,70
 330 -27 330 -27 325 -19 c 0,71,72
 316 -6 316 -6 301 6 c 128,-1,73
 286 18 286 18 262 28 c 1,74,75
 249 22 249 22 230.5 17.5 c 128,-1,76
 212 13 212 13 192 13 c 0,77,78
 182 13 182 13 171.5 14 c 128,-1,79
 161 15 161 15 150 17 c 0,80,81
 111 26 111 26 76.5 49.5 c 128,-1,82
 42 73 42 73 28 114 c 0,83,84
 23 129 23 129 22.5 132.5 c 0,85,86
 21 142 21 142 19 151 c 0,87,88
 15 166 15 166 13.5 181.5 c 128,-1,89
 12 197 12 197 12 211 c 0,90,91
 12 264 12 264 37.5 310.5 c 0,92,93
 64 359 64 359 121 388 c 0,94,95
 139 397 139 397 165 401.5 c 0,96,97
 186 405 186 405 206 405 c 2,98,-1
 214 405 l 1,99,-1
 222 405 l 2,100,101
 228 404 228 404 233.5 403.5 c 128,-1,102
 239 403 239 403 245 403 c 0,103,104
 255 402 255 402 264 401.5 c 0,105,106
 289 392 l 29,107,-1
 351 408 l 1,108,-1
 388 409 l 2,109,110
 403 409 403 409 410.5 402 c 128,-1,111
 418 395 418 395 418 386 c 2,112,-1
 418 385 l 1,113,-1
 418 383 l 2,114,115
 418 377 418 377 409.5 369.5 c 0,116,117
 402 363 402 363 388 363 c 2,118,-1
 350 363 l 1,0,-1
194 61 m 0,119,120
 255 61 255 61 285 108 c 128,-1,121
 315 155 315 155 315 216 c 0,122,123
 315 275 315 275 285 321.5 c 128,-1,124
 255 368 255 368 194 368 c 0,125,126
 141 366 141 366 114 320.5 c 128,-1,127
 87 275 87 275 85 221 c 2,128,-1
 85 216 l 1,129,-1
 85 212 l 1,130,-1
 85 208 l 1,131,-1
 85 204 l 2,132,133
 87 150 87 150 114 105.5 c 128,-1,134
 141 61 141 61 194 61 c 0,119,120
EndSplineSet
EndChar

StartChar: h
Encoding: 104 104 75
Width: 492
GlyphClass: 2
Flags: W
LayerCount: 2
Fore
SplineSet
134 315 m 1,0,-1
 134 81 l 2,1,2
 134 59 134 59 141.5 51.5 c 128,-1,3
 149 44 149 44 158 42 c 0,4,5
 159 41 159 41 160.5 41 c 128,-1,6
 162 41 162 41 163 40 c 0,7,8
 170 39 170 39 175.5 35.5 c 128,-1,9
 181 32 181 32 181 22 c 0,10,11
 181 7 181 7 169 4.5 c 128,-1,12
 157 2 157 2 128 2 c 2,13,-1
 68 2 l 2,14,15
 38 2 38 2 30 4.5 c 128,-1,16
 22 7 22 7 22 22 c 0,17,18
 22 32 22 32 27 35.5 c 128,-1,19
 32 39 32 39 39 40 c 0,20,21
 41 41 41 41 42.5 41 c 128,-1,22
 44 41 44 41 45 42 c 0,23,24
 54 44 54 44 61 51.5 c 128,-1,25
 68 59 68 59 68 81 c 2,26,-1
 68 556 l 2,27,28
 68 573 68 573 61 580 c 128,-1,29
 54 587 54 587 45 590 c 0,30,31
 44 590 44 590 42.5 590.5 c 128,-1,32
 41 591 41 591 39 592 c 0,33,34
 32 594 32 594 27 597.5 c 128,-1,35
 22 601 22 601 22 609 c 0,36,37
 22 612 22 612 29.5 617.5 c 128,-1,38
 37 623 37 623 48 630 c 0,39,40
 55 633 55 633 62.5 637 c 128,-1,41
 70 641 70 641 78 644 c 0,42,43
 87 647 87 647 96 649.5 c 128,-1,44
 105 652 105 652 113 652 c 128,-1,45
 121 652 121 652 127.5 648 c 128,-1,46
 134 644 134 644 134 635 c 2,47,-1
 134 362 l 1,48,49
 142 369 142 369 150.5 375.5 c 128,-1,50
 159 382 159 382 168 387 c 0,51,52
 194 403 194 403 219 410.5 c 128,-1,53
 244 418 244 418 267 418 c 0,54,55
 327 418 327 418 370 378.5 c 128,-1,56
 413 339 413 339 415 292 c 2,57,-1
 415 291 l 1,58,-1
 415 289 l 1,59,-1
 415 81 l 2,60,61
 415 59 415 59 422.5 51.5 c 128,-1,62
 430 44 430 44 439 42 c 0,63,64
 440 41 440 41 441.5 41 c 128,-1,65
 443 41 443 41 445 40 c 0,66,67
 452 39 452 39 457.5 35.5 c 128,-1,68
 463 32 463 32 463 22 c 0,69,70
 463 7 463 7 452 4.5 c 128,-1,71
 441 2 441 2 415 2 c 2,72,-1
 348 2 l 2,73,74
 323 2 323 2 315.5 4.5 c 128,-1,75
 308 7 308 7 308 22 c 0,76,77
 308 30 308 30 313 33.5 c 128,-1,78
 318 37 318 37 324 39 c 2,79,-1
 326 39 l 2,80,81
 327 39 327 39 328 40 c 0,82,83
 336 42 336 42 342 47.5 c 128,-1,84
 348 53 348 53 348 68 c 2,85,-1
 348 282 l 2,86,87
 348 323 348 323 321.5 345 c 128,-1,88
 295 367 295 367 257 367 c 0,89,90
 243 367 243 367 227 363.5 c 128,-1,91
 211 360 211 360 196 353 c 0,92,93
 180 347 180 347 164 337 c 128,-1,94
 148 327 148 327 134 315 c 1,0,-1
EndSplineSet
EndChar

StartChar: i
Encoding: 105 105 76
Width: 206
GlyphClass: 2
Flags: W
LayerCount: 2
Fore
SplineSet
66 75 m 2,0,-1
 66 315 l 2,1,2
 66 330 66 330 57 335.5 c 128,-1,3
 48 341 48 341 37 343 c 0,4,5
 35 344 35 344 33.5 344 c 128,-1,6
 32 344 32 344 31 345 c 0,7,8
 22 347 22 347 14.5 350 c 128,-1,9
 7 353 7 353 7 362 c 0,10,11
 7 365 7 365 8 368 c 128,-1,12
 9 371 9 371 12 373 c 0,13,14
 17 379 17 379 28 385 c 2,15,-1
 60 401 l 2,16,17
 61 402 61 402 62 402.5 c 128,-1,18
 63 403 63 403 64 403 c 0,19,20
 67 405 67 405 69 406 c 128,-1,21
 71 407 71 407 74 408 c 0,22,23
 83 413 83 413 91.5 416.5 c 128,-1,24
 100 420 100 420 106 420 c 0,25,26
 117 420 117 420 125 407 c 128,-1,27
 133 394 133 394 133 362 c 2,28,-1
 133 75 l 2,29,30
 133 57 133 57 139 51.5 c 128,-1,31
 145 46 145 46 153 43 c 2,32,-1
 154 43 l 2,33,34
 155 43 155 43 156 42 c 0,35,36
 162 40 162 40 167 36.5 c 128,-1,37
 172 33 172 33 172 22 c 0,38,39
 172 7 172 7 165.5 4.5 c 128,-1,40
 159 2 159 2 139 2 c 2,41,-1
 60 2 l 2,42,43
 40 2 40 2 30 4.5 c 128,-1,44
 20 7 20 7 20 22 c 0,45,46
 20 33 20 33 26 36.5 c 128,-1,47
 32 40 32 40 39 42 c 0,48,49
 40 43 40 43 41 43 c 2,50,-1
 43 43 l 2,51,52
 52 46 52 46 59 51.5 c 128,-1,53
 66 57 66 57 66 75 c 2,0,-1
40 529 m 128,-1,55
 40 549 40 549 53.5 562 c 128,-1,56
 67 575 67 575 86 575 c 0,57,58
 89 575 89 575 92.5 574.5 c 128,-1,59
 96 574 96 574 99 573 c 0,60,61
 112 570 112 570 122.5 560.5 c 128,-1,62
 133 551 133 551 133 536 c 0,63,64
 133 512 133 512 119 500.5 c 128,-1,65
 105 489 105 489 89 488 c 2,66,-1
 87 488 l 1,67,-1
 86 488 l 2,68,69
 69 488 69 488 54.5 498.5 c 128,-1,54
 40 509 40 509 40 529 c 128,-1,55
EndSplineSet
EndChar

StartChar: j
Encoding: 106 106 77
Width: 187
GlyphClass: 2
Flags: W
LayerCount: 2
Fore
SplineSet
-23 -111 m 2,0,1
 -19 -106 -19 -106 -14.5 -103.5 c 128,-1,2
 -10 -101 -10 -101 -5 -101 c 0,3,4
 -4 -100 -4 -100 -3 -100 c 2,5,-1
 0 -100 l 2,6,7
 3 -100 3 -100 6 -100.5 c 128,-1,8
 9 -101 9 -101 12 -101 c 0,9,10
 14 -102 14 -102 17 -102.5 c 128,-1,11
 20 -103 20 -103 23 -104 c 0,12,13
 29 -105 29 -105 34 -106 c 128,-1,14
 39 -107 39 -107 43 -107 c 2,15,-1
 44 -107 l 1,16,-1
 46 -107 l 2,17,18
 55 -106 55 -106 62.5 -96.5 c 128,-1,19
 70 -87 70 -87 70 -64 c 2,20,-1
 70 322 l 2,21,22
 70 334 70 334 60.5 338 c 128,-1,23
 51 342 51 342 40 344 c 0,24,25
 39 344 39 344 38.5 344.5 c 128,-1,26
 38 345 38 345 37 345 c 0,27,28
 27 346 27 346 18.5 349 c 128,-1,29
 10 352 10 352 10 362 c 0,30,31
 10 369 10 369 15 374 c 128,-1,32
 20 379 20 379 29 384 c 2,33,-1
 51 394 l 2,34,35
 63 400 63 400 76 408 c 0,36,37
 79 410 79 410 83 411.5 c 128,-1,38
 87 413 87 413 91 414 c 128,-1,39
 95 415 95 415 98 415.5 c 128,-1,40
 101 416 101 416 104 416 c 0,41,42
 115 416 115 416 122 411 c 128,-1,43
 129 406 129 406 129 395 c 2,44,-1
 129 55 l 2,45,46
 129 -38 129 -38 104.5 -88 c 128,-1,47
 80 -138 80 -138 51 -157 c 0,48,49
 40 -164 40 -164 29.5 -167 c 128,-1,50
 19 -170 19 -170 10 -170 c 0,51,52
 -6 -170 -6 -170 -18.5 -159 c 128,-1,53
 -31 -148 -31 -148 -31 -133 c 0,54,55
 -31 -130 -31 -130 -29.5 -125.5 c 128,-1,56
 -28 -121 -28 -121 -26 -116 c 0,57,58
 -25 -115 -25 -115 -24 -113.5 c 128,-1,59
 -23 -112 -23 -112 -22 -110 c 2,60,-1
 -23 -111 l 2,0,1
36 522 m 0,61,62
 36 542 36 542 49.5 555.5 c 128,-1,63
 63 569 63 569 83 569 c 0,64,65
 86 569 86 569 89 568.5 c 128,-1,66
 92 568 92 568 95 568 c 0,67,68
 108 565 108 565 118.5 555 c 128,-1,69
 129 545 129 545 129 529 c 0,70,71
 129 504 129 504 114.5 492.5 c 128,-1,72
 100 481 100 481 83 481 c 2,73,-1
 81 481 l 1,74,-1
 80 481 l 2,75,76
 64 482 64 482 50 492.5 c 128,-1,77
 36 503 36 503 36 522 c 0,61,62
EndSplineSet
EndChar

StartChar: k
Encoding: 107 107 78
Width: 432
GlyphClass: 2
Flags: W
LayerCount: 2
Fore
SplineSet
133 207 m 1,0,-1
 150 219 l 1,1,-1
 168 233 l 2,2,3
 170 236 170 236 173 238 c 128,-1,4
 176 240 176 240 178 242 c 2,5,-1
 217 274 l 2,6,7
 234 289 234 289 240 295 c 2,8,-1
 266 326 l 2,9,10
 277 340 277 340 277 350 c 0,11,12
 277 352 277 352 276.5 354.5 c 128,-1,13
 276 357 276 357 275 359 c 0,14,15
 273 361 273 361 271.5 363.5 c 128,-1,16
 270 366 270 366 267 368 c 0,17,18
 261 373 261 373 257.5 377 c 128,-1,19
 254 381 254 381 254 385 c 0,20,21
 254 390 254 390 260 394 c 128,-1,22
 266 398 266 398 273 400 c 0,23,24
 275 400 275 400 276.5 400.5 c 128,-1,25
 278 401 278 401 280 401 c 2,26,-1
 360 401 l 2,27,28
 363 401 363 401 365.5 400.5 c 128,-1,29
 368 400 368 400 371 400 c 0,30,31
 381 397 381 397 389.5 391.5 c 128,-1,32
 398 386 398 386 398 380 c 0,33,34
 398 378 398 378 396 374.5 c 128,-1,35
 394 371 394 371 390 368 c 0,36,37
 388 367 388 367 385.5 365.5 c 128,-1,38
 383 364 383 364 380 362 c 2,39,-1
 362 351 l 1,40,-1
 344 340 l 1,41,-1
 327 326 l 1,42,-1
 313 315 l 2,43,44
 304 306 304 306 296.5 297.5 c 128,-1,45
 289 289 289 289 281 281 c 0,46,47
 274 273 274 273 266 265 c 128,-1,48
 258 257 258 257 247 249 c 1,49,50
 259 239 259 239 274 224 c 128,-1,51
 289 209 289 209 304 191 c 0,52,53
 317 176 317 176 329.5 159 c 128,-1,54
 342 142 342 142 353 125 c 0,55,56
 355 122 355 122 356.5 119.5 c 128,-1,57
 358 117 358 117 360 114 c 0,58,59
 375 89 375 89 390 67.5 c 128,-1,60
 405 46 405 46 420 41 c 0,61,62
 426 40 426 40 429 36 c 128,-1,63
 432 32 432 32 433 27 c 0,64,65
 434 25 434 25 434 24 c 2,66,-1
 434 20 l 1,67,-1
 434 18 l 2,68,69
 434 17 434 17 433 16 c 0,70,71
 432 11 432 11 427 6.5 c 128,-1,72
 422 2 422 2 413 2 c 2,73,-1
 313 2 l 2,74,75
 296 2 296 2 289 7 c 128,-1,76
 282 12 282 12 282 18 c 2,77,-1
 282 21 l 2,78,79
 282 22 282 22 283 24 c 0,80,81
 285 29 285 29 289.5 34 c 128,-1,82
 294 39 294 39 300 41 c 0,83,84
 308 44 308 44 310.5 47.5 c 128,-1,85
 313 51 313 51 313 55 c 0,86,87
 313 58 313 58 312 62 c 128,-1,88
 311 66 311 66 309 70 c 0,89,90
 309 71 309 71 308.5 72.5 c 128,-1,91
 308 74 308 74 307 75 c 0,92,93
 303 84 303 84 298 93 c 2,94,-1
 286 112 l 1,95,-1
 270 134 l 2,96,97
 261 145 261 145 251 155 c 0,98,99
 239 170 239 170 227 183 c 128,-1,100
 215 196 215 196 206 207 c 1,101,-1
 133 148 l 1,102,-1
 133 88 l 2,103,104
 133 68 133 68 138.5 57 c 128,-1,105
 144 46 144 46 159 41 c 0,106,107
 165 40 165 40 168.5 36.5 c 128,-1,108
 172 33 172 33 173 29 c 0,109,110
 174 27 174 27 174 26 c 2,111,-1
 174 23 l 1,112,-1
 174 22 l 1,113,-1
 174 20 l 2,114,115
 173 14 173 14 165.5 8 c 128,-1,116
 158 2 158 2 146 2 c 2,117,-1
 53 2 l 2,118,119
 36 2 36 2 29 7 c 128,-1,120
 22 12 22 12 22 18 c 2,121,-1
 22 21 l 2,122,123
 22 22 22 22 23 24 c 0,124,125
 25 29 25 29 29.5 34 c 128,-1,126
 34 39 34 39 40 41 c 0,127,128
 55 46 55 46 60.5 55.5 c 128,-1,129
 66 65 66 65 66 95 c 2,130,-1
 66 556 l 2,131,132
 66 572 66 572 58.5 578 c 128,-1,133
 51 584 51 584 42 587 c 0,134,135
 41 588 41 588 40 588 c 128,-1,136
 39 588 39 588 38 589 c 0,137,138
 32 591 32 591 27 593.5 c 128,-1,139
 22 596 22 596 20 602 c 0,140,141
 20 607 20 607 22.5 611 c 128,-1,142
 25 615 25 615 31 619 c 0,143,144
 36 622 36 622 45 626 c 2,145,-1
 66 635 l 2,146,147
 79 640 79 640 91 644 c 128,-1,148
 103 648 103 648 111 648 c 0,149,150
 120 648 120 648 126.5 642.5 c 128,-1,151
 133 637 133 637 133 622 c 2,152,-1
 133 207 l 1,0,-1
EndSplineSet
EndChar

StartChar: l
Encoding: 108 108 79
Width: 187
GlyphClass: 2
Flags: W
LayerCount: 2
Fore
SplineSet
56 348 m 1,0,-1
 56 549 l 2,1,2
 56 569 56 569 47 576.5 c 128,-1,3
 38 584 38 584 23 589 c 0,4,5
 19 590 19 590 16.5 592 c 128,-1,6
 14 594 14 594 13 597 c 0,7,8
 12 597 12 597 12 598 c 2,9,-1
 12 599 l 2,10,11
 12 603 12 603 16 607 c 128,-1,12
 20 611 20 611 27 615 c 0,13,14
 31 618 31 618 36 621 c 128,-1,15
 41 624 41 624 46 626 c 0,16,17
 50 629 50 629 54.5 631 c 128,-1,18
 59 633 59 633 63 635 c 0,19,20
 66 637 66 637 70 638.5 c 128,-1,21
 74 640 74 640 77 642 c 0,22,23
 83 644 83 644 89 645.5 c 128,-1,24
 95 647 95 647 100 647 c 2,25,-1
 102 647 l 1,26,-1
 103 647 l 2,27,28
 110 646 110 646 116.5 640 c 128,-1,29
 123 634 123 634 123 622 c 2,30,-1
 123 121 l 2,31,32
 123 81 123 81 128.5 63.5 c 128,-1,33
 134 46 134 46 149 41 c 0,34,35
 154 40 154 40 158.5 35.5 c 128,-1,36
 163 31 163 31 165 26 c 0,37,38
 167 23 167 23 168 20 c 128,-1,39
 169 17 169 17 169 15 c 0,40,41
 169 10 169 10 164.5 6 c 128,-1,42
 160 2 160 2 149 2 c 2,43,-1
 36 2 l 2,44,45
 26 2 26 2 20.5 6 c 128,-1,46
 15 10 15 10 15 15 c 0,47,48
 15 17 15 17 16 20 c 128,-1,49
 17 23 17 23 19 26 c 128,-1,50
 21 29 21 29 24 32.5 c 128,-1,51
 27 36 27 36 30 38 c 0,52,53
 32 39 32 39 33.5 40 c 128,-1,54
 35 41 35 41 36 41 c 0,55,56
 51 46 51 46 53.5 64.5 c 128,-1,57
 56 83 56 83 56 108 c 2,58,-1
 56 348 l 1,0,-1
EndSplineSet
EndChar

StartChar: m
Encoding: 109 109 80
Width: 707
GlyphClass: 2
Flags: W
LayerCount: 2
Fore
SplineSet
680 20 m 0,0,1
 675.5 2 675.5 2 643 2 c 2,2,-1
 555 2 l 2,3,4
 544 2 544 2 535.5 8.5 c 128,-1,5
 527 15 527 15 527 19.5 c 0,6,7
 527 33.5 527 33.5 542 41 c 0,8,9
 557 46 557 46 562.5 60 c 128,-1,10
 568 74 568 74 568 114 c 2,11,-1
 568 269 l 2,12,13
 568 325 568 325 546 346.5 c 128,-1,14
 524 368 524 368 495 368 c 0,15,16
 432.22 368 432.22 368 396.335820896 324.23880597 c 0,17,18
 374 297 374 297 374 242 c 2,19,-1
 374 95 l 2,20,21
 374 66 374 66 379 59 c 128,-1,22
 384 52 384 52 390 49.5 c 128,-1,23
 396 47 396 47 400 45.5 c 0,24,25
 411.673469388 41.1224489796 411.673469388 41.1224489796 415.5 35 c 0,26,27
 418 28 418 28 419 27 c 0,28,29
 421 25 421 25 421 19 c 128,-1,30
 421 13 421 13 413 7.5 c 128,-1,31
 405 2 405 2 388 2 c 2,32,-1
 295 2 l 2,33,34
 278 2 278 2 270 7.5 c 128,-1,35
 262 13 262 13 262 17.5 c 0,36,37
 262 32.3333333333 262 32.3333333333 275 41 c 0,38,39
 281.363636364 46.0909090909 281.363636364 46.0909090909 290.681818182 48.5454545455 c 128,-1,40
 300 51 300 51 304 56 c 128,-1,41
 308 61 308 61 308 81 c 2,42,-1
 308 229 l 2,43,44
 308 295 308 295 288.5 331.5 c 128,-1,45
 269.176470588 368 269.176470588 368 232 368 c 0,46,47
 140.333333333 368 140.333333333 368 127 278 c 0,48,49
 126 271 126 271 126 264 c 2,50,-1
 126 95 l 2,51,52
 126 75 126 75 130 60.5 c 0,53,54
 135 41 135 41 159 41 c 0,55,56
 167.75 41 167.75 41 171.5 26 c 0,57,58
 172 24 172 24 172 19.5 c 128,-1,59
 172 15 172 15 166 8.5 c 128,-1,60
 160 2 160 2 146 2 c 2,61,-1
 40 2 l 2,62,63
 29 2 29 2 22 8.5 c 128,-1,64
 15 15 15 15 15 19.5 c 0,65,66
 15 33 15 33 24.2142857143 39.6785714286 c 128,-1,67
 33.4285714286 46.3571428571 33.4285714286 46.3571428571 42.7142857143 48.6785714286 c 128,-1,68
 52 51 52 51 56 56 c 128,-1,69
 60 61 60 61 60 81 c 2,70,-1
 60 289 l 2,71,72
 60 321 60 321 49.5 331.5 c 0,73,74
 47 334 47 334 35 342 c 128,-1,75
 23 350 23 350 18 352 c 128,-1,76
 13 354 13 354 13 355 c 128,-1,77
 13 356 13 356 12.5 356 c 128,-1,78
 12 356 12 356 12 357 c 1,79,-1
 11 357 l 1,80,-1
 11 358 l 1,81,-1
 10 359 l 1,82,-1
 10 360 l 2,83,84
 10 368 10 368 18.5 375 c 128,-1,85
 27 382 27 382 33 388 c 128,-1,86
 39 394 39 394 41.5 395.5 c 128,-1,87
 44 397 44 397 47.5 400 c 128,-1,88
 51 403 51 403 56.5 407 c 128,-1,89
 62 411 62 411 64.5 413.5 c 128,-1,90
 67 416 67 416 68 416.5 c 128,-1,91
 69 417 69 417 70.5 418 c 0,92,93
 73.5 420 73.5 420 78 420 c 0,94,95
 96.6666666667 420 96.6666666667 420 110 364 c 0,96,97
 111 360 111 360 111.5 356 c 128,-1,98
 112 352 112 352 113 348 c 1,99,-1
 138 370 l 1,100,101
 191.035714286 415 191.035714286 415 241 415 c 0,102,103
 308.857142857 415 308.857142857 415 361 342 c 1,104,-1
 368 350 l 1,105,-1
 376 357 l 2,106,107
 443.28 415 443.28 415 511 415 c 4,108,109
 562 415 562 415 599 384.5 c 128,-1,110
 636 354 636 354 636 289 c 2,111,-1
 636 108 l 2,112,113
 636 75 636 75 645 58.5 c 128,-1,114
 654 42 654 42 660 42 c 1,115,116
 669.428571429 38.8571428571 669.428571429 38.8571428571 672.214285714 34.4285714286 c 128,-1,117
 675 30 675 30 677 28 c 0,118,119
 680 25 680 25 680 20 c 0,0,1
EndSplineSet
EndChar

StartChar: n
Encoding: 110 110 81
Width: 492
GlyphClass: 2
Flags: W
LayerCount: 2
Fore
SplineSet
68 194 m 1,0,-1
 68 295 l 2,1,2
 68 310 68 310 61.5 323.5 c 128,-1,3
 55 337 55 337 35 342 c 0,4,5
 28 344 28 344 23 347.5 c 128,-1,6
 18 351 18 351 18 355 c 0,7,8
 18 360 18 360 23.5 366 c 128,-1,9
 29 372 29 372 36 378 c 2,10,-1
 43 383 l 2,11,12
 46 385 46 385 49 388 c 0,13,14
 54 391 54 391 59 395 c 2,15,-1
 68 401 l 2,16,17
 73 405 73 405 77.5 407.5 c 128,-1,18
 82 410 82 410 86 410 c 0,19,20
 99 410 99 410 108.5 394.5 c 128,-1,21
 118 379 118 379 124 361 c 2,22,-1
 126 351 l 2,23,24
 127 346 127 346 128 342 c 1,25,26
 149 371 149 371 177.5 385 c 128,-1,27
 206 399 206 399 236 404 c 0,28,29
 248 406 248 406 259.5 407 c 128,-1,30
 271 408 271 408 282 408 c 0,31,32
 337 408 337 408 379 376.5 c 128,-1,33
 421 345 421 345 421 255 c 2,34,-1
 421 88 l 2,35,36
 421 68 421 68 424 57 c 128,-1,37
 427 46 427 46 443 41 c 0,38,39
 449 40 449 40 453.5 36 c 128,-1,40
 458 32 458 32 460 27 c 0,41,42
 460 25 460 25 460.5 23.5 c 128,-1,43
 461 22 461 22 461 20 c 2,44,-1
 461 18 l 2,45,46
 461 17 461 17 460 16 c 0,47,48
 459 11 459 11 453 6.5 c 128,-1,49
 447 2 447 2 436 2 c 2,50,-1
 328 2 l 2,51,52
 317 2 317 2 311 6 c 128,-1,53
 305 10 305 10 305 17 c 0,54,55
 305 19 305 19 306 21.5 c 128,-1,56
 307 24 307 24 308 26 c 0,57,58
 311 31 311 31 316.5 35.5 c 128,-1,59
 322 40 322 40 328 41 c 0,60,61
 343 41 343 41 349 52 c 128,-1,62
 355 63 355 63 355 88 c 2,63,-1
 355 289 l 2,64,65
 355 322 355 322 325.5 339.5 c 128,-1,66
 296 357 296 357 259 357 c 0,67,68
 254 357 254 357 248.5 356.5 c 128,-1,69
 243 356 243 356 238 356 c 0,70,71
 199 350 199 350 166.5 325 c 128,-1,72
 134 300 134 300 134 255 c 2,73,-1
 134 101 l 1,74,-1
 134 98 l 1,75,-1
 134 95 l 1,76,-1
 134 91 l 1,77,-1
 134 86 l 2,78,79
 133 82 133 82 133 79 c 2,80,-1
 133 73 l 2,81,82
 133 63 133 63 136 57 c 128,-1,83
 139 51 139 51 149 47 c 0,84,85
 151 45 151 45 154 43.5 c 128,-1,86
 157 42 157 42 161 41 c 0,87,88
 166 40 166 40 170 35.5 c 128,-1,89
 174 31 174 31 177 26 c 0,90,91
 178 24 178 24 178.5 21.5 c 128,-1,92
 179 19 179 19 179 17 c 0,93,94
 179 10 179 10 173.5 6 c 128,-1,95
 168 2 168 2 154 2 c 2,96,-1
 48 2 l 2,97,98
 33 2 33 2 26.5 7 c 128,-1,99
 20 12 20 12 20 18 c 2,100,-1
 20 21 l 2,101,102
 20 22 20 22 21 24 c 0,103,104
 23 29 23 29 28 34 c 128,-1,105
 33 39 33 39 41 41 c 0,106,107
 61 46 61 46 64.5 58.5 c 128,-1,108
 68 71 68 71 68 101 c 2,109,-1
 68 194 l 1,0,-1
EndSplineSet
EndChar

StartChar: o
Encoding: 111 111 82
Width: 492
GlyphClass: 2
Flags: W
LayerCount: 2
Fore
SplineSet
28 201 m 0,0,1
 28 292 28 292 85.5 347.5 c 128,-1,2
 143 403 143 403 213 413 c 0,3,4
 220 414 220 414 227.5 414.5 c 128,-1,5
 235 415 235 415 242 415 c 0,6,7
 250 415 250 415 258 414 c 2,8,-1
 275 412 l 1,9,10
 343 399 343 399 399.5 341.5 c 128,-1,11
 456 284 456 284 456 207 c 2,12,-1
 456 206 l 1,13,-1
 456 204 l 2,14,15
 455 123 455 123 396 56 c 128,-1,16
 337 -11 337 -11 240 -11 c 1,17,-1
 229 -12 l 1,18,19
 140 -7 140 -7 92.5 44 c 128,-1,20
 45 95 45 95 33 156 c 0,21,22
 30 167 30 167 29 178.5 c 128,-1,23
 28 190 28 190 28 201 c 0,0,1
381 201 m 0,24,25
 381 277 381 277 338 322.5 c 128,-1,26
 295 368 295 368 235 368 c 0,27,28
 174 368 174 368 137.5 319 c 128,-1,29
 101 270 101 270 101 194 c 0,30,31
 101 120 101 120 140.5 77.5 c 128,-1,32
 180 35 180 35 235 35 c 128,-1,33
 290 35 290 35 333.5 75.5 c 128,-1,34
 377 116 377 116 381 201 c 0,24,25
EndSplineSet
EndChar

StartChar: p
Encoding: 112 112 83
Width: 492
GlyphClass: 2
Flags: W
LayerCount: 2
Fore
SplineSet
75 154 m 1,0,-1
 75 302 l 2,1,2
 75 326 75 326 64.5 333.5 c 128,-1,3
 54 341 54 341 41 345 c 0,4,5
 40 345 40 345 38.5 345.5 c 128,-1,6
 37 346 37 346 36 346 c 0,7,8
 34 346 34 346 32 346.5 c 128,-1,9
 30 347 30 347 28 348 c 0,10,11
 25 349 25 349 23 350.5 c 128,-1,12
 21 352 21 352 19 354 c 0,13,14
 18 355 18 355 17.5 356 c 128,-1,15
 17 357 17 357 17 358 c 0,16,17
 17 362 17 362 19.5 366.5 c 128,-1,18
 22 371 22 371 27 376 c 0,19,20
 29 379 29 379 32.5 382 c 128,-1,21
 36 385 36 385 39 388 c 0,22,23
 41 390 41 390 43.5 392 c 128,-1,24
 46 394 46 394 48 395 c 0,25,26
 62 403 62 403 74 407 c 128,-1,27
 86 411 86 411 93 411 c 0,28,29
 114 411 114 411 124.5 390 c 128,-1,30
 135 369 135 369 141 342 c 1,31,32
 149 352 149 352 155 358.5 c 128,-1,33
 161 365 161 365 168 370 c 0,34,35
 171 372 171 372 174 374.5 c 128,-1,36
 177 377 177 377 181 379 c 0,37,38
 184 381 184 381 187 383.5 c 128,-1,39
 190 386 190 386 194 388 c 0,40,41
 205 394 205 394 216 399 c 128,-1,42
 227 404 227 404 238 407 c 128,-1,43
 249 410 249 410 260.5 411.5 c 128,-1,44
 272 413 272 413 282 413 c 0,45,46
 354 413 354 413 408.5 353 c 128,-1,47
 463 293 463 293 463 201 c 0,48,49
 463 111 463 111 422 65.5 c 128,-1,50
 381 20 381 20 322 -4 c 0,51,52
 314 -7 314 -7 303 -8.5 c 128,-1,53
 292 -10 292 -10 281 -11 c 0,54,55
 277 -12 277 -12 272 -12 c 2,56,-1
 264 -12 l 1,57,-1
 255 -12 l 2,58,59
 251 -12 251 -12 246 -11 c 0,60,61
 229 -10 229 -10 212 -5 c 128,-1,62
 195 0 195 0 181 8 c 0,63,64
 179 9 179 9 177 10.5 c 128,-1,65
 175 12 175 12 174 13 c 0,66,67
 167 19 167 19 164 24 c 128,-1,68
 161 29 161 29 161 33 c 2,69,-1
 161 35 l 2,70,71
 161 36 161 36 162 37 c 0,72,73
 164 42 164 42 169 46.5 c 128,-1,74
 174 51 174 51 180 54 c 0,75,76
 182 54 182 54 183.5 54.5 c 128,-1,77
 185 55 185 55 187 55 c 2,78,-1
 194 55 l 1,79,-1
 211 47 l 2,80,81
 219 43 219 43 228 41 c 0,82,83
 237 38 237 38 245.5 36.5 c 128,-1,84
 254 35 254 35 262 35 c 0,85,86
 313 35 313 35 350.5 78.5 c 128,-1,87
 388 122 388 122 388 201 c 0,88,89
 388 279 388 279 352.5 318.5 c 128,-1,90
 317 358 317 358 269 358 c 0,91,92
 253 358 253 358 235.5 354 c 128,-1,93
 218 350 218 350 201 342 c 0,94,95
 198 340 198 340 194.5 338 c 128,-1,96
 191 336 191 336 188 334 c 0,97,98
 171 321 171 321 156 293.5 c 128,-1,99
 141 266 141 266 141 216 c 2,100,-1
 141 -58 l 2,101,102
 141 -98 141 -98 148.5 -108 c 128,-1,103
 156 -118 156 -118 169 -121 c 0,104,105
 170 -122 170 -122 171.5 -122.5 c 128,-1,106
 173 -123 173 -123 174 -123 c 0,107,108
 178 -124 178 -124 181.5 -128 c 128,-1,109
 185 -132 185 -132 186 -136 c 0,110,111
 186 -137 186 -137 186.5 -139 c 128,-1,112
 187 -141 187 -141 187 -142 c 2,113,-1
 187 -144 l 1,114,-1
 187 -145 l 2,115,116
 186 -151 186 -151 179.5 -157 c 128,-1,117
 173 -163 173 -163 161 -163 c 2,118,-1
 55 -164 l 2,119,120
 46 -163 46 -163 40.5 -158 c 128,-1,121
 35 -153 35 -153 34 -147 c 0,122,123
 33 -146 33 -146 33 -145 c 2,124,-1
 33 -143 l 1,125,-1
 33 -140 l 2,126,127
 33 -139 33 -139 34 -138 c 0,128,129
 35 -133 35 -133 39 -128.5 c 128,-1,130
 43 -124 43 -124 48 -123 c 0,131,132
 66 -119 66 -119 70.5 -111 c 128,-1,133
 75 -103 75 -103 75 -94 c 2,134,-1
 75 -92 l 1,135,-1
 75 -90 l 1,136,-1
 75 154 l 1,0,-1
EndSplineSet
EndChar

StartChar: q
Encoding: 113 113 84
Width: 452
GlyphClass: 2
Flags: W
LayerCount: 2
Fore
SplineSet
322 -18 m 1,0,-1
 322 55 l 1,1,2
 311 36 311 36 291 22.5 c 128,-1,3
 271 9 271 9 250 1 c 0,4,5
 232 -5 232 -5 215.5 -8 c 128,-1,6
 199 -11 199 -11 187 -11 c 0,7,8
 116 -11 116 -11 76 27 c 128,-1,9
 36 65 36 65 20 112 c 0,10,11
 14 130 14 130 11 148 c 128,-1,12
 8 166 8 166 8 181 c 0,13,14
 8 273 8 273 41 320 c 128,-1,15
 74 367 74 367 114 387 c 0,16,17
 143 401 143 401 169.5 404.5 c 128,-1,18
 196 408 196 408 209 408 c 0,19,20
 244 408 244 408 270.5 401.5 c 128,-1,21
 297 395 297 395 322 375 c 1,22,23
 325 378 325 378 329 381.5 c 128,-1,24
 333 385 333 385 337 389 c 0,25,26
 340 391 340 391 343 393.5 c 128,-1,27
 346 396 346 396 350 399 c 0,28,29
 357 404 357 404 364 407.5 c 128,-1,30
 371 411 371 411 376 411 c 128,-1,31
 381 411 381 411 384.5 407 c 128,-1,32
 388 403 388 403 388 395 c 2,33,-1
 388 -85 l 2,34,35
 388 -104 388 -104 390.5 -113.5 c 128,-1,36
 393 -123 393 -123 408 -123 c 0,37,38
 415 -125 415 -125 420.5 -129 c 128,-1,39
 426 -133 426 -133 429 -138 c 0,40,41
 431 -141 431 -141 432 -143.5 c 128,-1,42
 433 -146 433 -146 433 -148 c 2,43,-1
 433 -149 l 1,44,-1
 433 -150 l 2,45,46
 432 -155 432 -155 426 -159 c 128,-1,47
 420 -163 420 -163 408 -163 c 2,48,-1
 302 -164 l 2,49,50
 291 -163 291 -163 285 -158 c 128,-1,51
 279 -153 279 -153 279 -147 c 0,52,53
 279 -146 279 -146 279.5 -144 c 128,-1,54
 280 -142 280 -142 280 -141 c 0,55,56
 283 -135 283 -135 288.5 -130 c 128,-1,57
 294 -125 294 -125 302 -123 c 0,58,59
 312 -123 312 -123 316 -116 c 128,-1,60
 320 -109 320 -109 321 -100 c 0,61,62
 322 -96 322 -96 322 -92 c 2,63,-1
 322 -84 l 1,64,-1
 322 -18 l 1,0,-1
322 201 m 1,65,-1
 322 249 l 2,66,67
 322 293 322 293 295.5 327.5 c 128,-1,68
 269 362 269 362 209 362 c 0,69,70
 153 362 153 362 126.5 332 c 128,-1,71
 100 302 100 302 90 265 c 0,72,73
 84 243 84 243 82.5 222 c 128,-1,74
 81 201 81 201 81 187 c 0,75,76
 81 175 81 175 83 160 c 128,-1,77
 85 145 85 145 90 129 c 0,78,79
 100 96 100 96 125.5 68 c 128,-1,80
 151 40 151 40 197 40 c 0,81,82
 205 40 205 40 215 41 c 128,-1,83
 225 42 225 42 235 45 c 0,84,85
 239 45 239 45 242.5 46 c 128,-1,86
 246 47 246 47 249 48 c 0,87,88
 299 63 299 63 310.5 87.5 c 128,-1,89
 322 112 322 112 322 161 c 2,90,-1
 322 201 l 1,65,-1
EndSplineSet
EndChar

StartChar: r
Encoding: 114 114 85
Width: 309
GlyphClass: 2
Flags: W
LayerCount: 2
Fore
SplineSet
71 194 m 1,0,-1
 71 275 l 2,1,2
 71 300 71 300 61.5 311 c 128,-1,3
 52 322 52 322 37 329 c 0,4,5
 34 331 34 331 31 332.5 c 128,-1,6
 28 334 28 334 25 335 c 0,7,8
 21 337 21 337 19 340 c 128,-1,9
 17 343 17 343 17 347 c 0,10,11
 17 352 17 352 20.5 359 c 128,-1,12
 24 366 24 366 30 373 c 0,13,14
 34 379 34 379 39.5 384.5 c 128,-1,15
 45 390 45 390 51 394 c 0,16,17
 56 399 56 399 61.5 402.5 c 128,-1,18
 67 406 67 406 71 408 c 0,19,20
 73 409 73 409 74.5 409.5 c 128,-1,21
 76 410 76 410 78 410 c 0,22,23
 80 411 80 411 82 411 c 2,24,-1
 85 411 l 2,25,26
 101 411 101 411 110.5 393 c 128,-1,27
 120 375 120 375 125 354 c 0,28,29
 128 341 128 341 129.5 328.5 c 128,-1,30
 131 316 131 316 131 308 c 1,31,32
 136 319 136 319 143 328 c 2,33,-1
 158 348 l 2,34,35
 165 356 165 356 174 364 c 2,36,-1
 191 381 l 2,37,38
 198 388 198 388 207.5 393.5 c 128,-1,39
 217 399 217 399 227 402 c 0,40,41
 233 404 233 404 239 405 c 128,-1,42
 245 406 245 406 250 406 c 0,43,44
 269 406 269 406 284 394.5 c 128,-1,45
 299 383 299 383 299 362 c 2,46,-1
 299 355 l 2,47,48
 297 341 297 341 292.5 333 c 128,-1,49
 288 325 288 325 283 322 c 0,50,51
 282 321 282 321 280.5 320.5 c 128,-1,52
 279 320 279 320 277 320 c 0,53,54
 271 320 271 320 264 323.5 c 128,-1,55
 257 327 257 327 250 331 c 2,56,-1
 238 337 l 2,57,58
 231 340 231 340 224 341 c 0,59,60
 223 342 223 342 221 342 c 2,61,-1
 217 342 l 2,62,63
 213 342 213 342 207.5 340.5 c 128,-1,64
 202 339 202 339 197 335 c 0,65,66
 193 331 193 331 185.5 322.5 c 128,-1,67
 178 314 178 314 169 301 c 0,68,69
 157 283 157 283 147.5 256 c 128,-1,70
 138 229 138 229 138 194 c 2,71,-1
 138 101 l 2,72,73
 138 71 138 71 143.5 58.5 c 128,-1,74
 149 46 149 46 164 41 c 0,75,76
 170 41 170 41 174 37.5 c 128,-1,77
 178 34 178 34 180 30 c 0,78,79
 181 28 181 28 181.5 26 c 128,-1,80
 182 24 182 24 182 22 c 0,81,82
 182 15 182 15 174.5 8.5 c 128,-1,83
 167 2 167 2 151 2 c 2,84,-1
 58 2 l 2,85,86
 46 2 46 2 38.5 6.5 c 128,-1,87
 31 11 31 11 29 16 c 0,88,89
 28 17 28 17 28 18 c 2,90,-1
 28 20 l 2,91,92
 28 22 28 22 28.5 23.5 c 128,-1,93
 29 25 29 25 30 27 c 0,94,95
 32 32 32 32 36 36 c 128,-1,96
 40 40 40 40 45 41 c 0,97,98
 65 46 65 46 68 56 c 128,-1,99
 71 66 71 66 71 81 c 2,100,-1
 71 194 l 1,0,-1
EndSplineSet
EndChar

StartChar: s
Encoding: 115 115 86
Width: 349
GlyphClass: 2
Flags: W
LayerCount: 2
Fore
SplineSet
25 55 m 0,0,1
 25 56 25 56 24.5 57 c 128,-1,2
 24 58 24 58 23 59 c 0,3,4
 21 63 21 63 19.5 67 c 128,-1,5
 18 71 18 71 18 75 c 0,6,7
 18 85 18 85 24.5 93 c 128,-1,8
 31 101 31 101 40 101 c 0,9,10
 44 101 44 101 49 99.5 c 128,-1,11
 54 98 54 98 59 94 c 0,12,13
 62 92 62 92 65 88.5 c 128,-1,14
 68 85 68 85 71 81 c 0,15,16
 86 61 86 61 110 48 c 128,-1,17
 134 35 134 35 160 33 c 0,18,19
 162 32 162 32 165 32 c 2,20,-1
 171 32 l 2,21,22
 177 32 177 32 182.5 32.5 c 128,-1,23
 188 33 188 33 194 34 c 0,24,25
 204 36 204 36 214 39.5 c 128,-1,26
 224 43 224 43 232 48 c 0,27,28
 243 54 243 54 251.5 65.5 c 128,-1,29
 260 77 260 77 263 90 c 0,30,31
 263 92 263 92 263.5 95 c 128,-1,32
 264 98 264 98 264 101 c 2,33,-1
 264 104 l 2,34,35
 264 106 264 106 263 108 c 0,36,37
 262 119 262 119 254.5 129.5 c 128,-1,38
 247 140 247 140 232 148 c 0,39,40
 218 155 218 155 202 159.5 c 128,-1,41
 186 164 186 164 169 168 c 0,42,43
 165 169 165 169 161 169.5 c 128,-1,44
 157 170 157 170 153 171 c 0,45,46
 109 182 109 182 72 203 c 128,-1,47
 35 224 35 224 32 282 c 0,48,49
 32 286 32 286 32.5 289.5 c 128,-1,50
 33 293 33 293 33 297 c 0,51,52
 39 339 39 339 75.5 373.5 c 128,-1,53
 112 408 112 408 171 408 c 0,54,55
 184 408 184 408 201 406.5 c 128,-1,56
 218 405 218 405 236 400 c 0,57,58
 253 396 253 396 269.5 388 c 128,-1,59
 286 380 286 380 299 368 c 0,60,61
 302 365 302 365 303.5 357.5 c 128,-1,62
 305 350 305 350 305 342 c 2,63,-1
 305 340 l 1,64,-1
 305 338 l 1,65,-1
 305 334 l 1,66,-1
 305 330 l 2,67,68
 304 321 304 321 302.5 312.5 c 128,-1,69
 301 304 301 304 299 302 c 0,70,71
 298 301 298 301 297 300 c 2,72,-1
 296 300 l 2,73,74
 295 299 295 299 294 299 c 2,75,-1
 292 299 l 2,76,77
 285 299 285 299 275.5 310 c 128,-1,78
 266 321 266 321 251 334 c 0,79,80
 236 346 236 346 214.5 357 c 128,-1,81
 193 368 193 368 164 368 c 0,82,83
 160 368 160 368 156 367.5 c 128,-1,84
 152 367 152 367 147 366 c 0,85,86
 126 360 126 360 108 342.5 c 128,-1,87
 90 325 90 325 90 305 c 0,88,89
 90 300 90 300 91.5 295 c 128,-1,90
 93 290 93 290 97 285 c 0,91,92
 103 277 103 277 113 269 c 128,-1,93
 123 261 123 261 138 255 c 0,94,95
 143 253 143 253 148.5 251.5 c 128,-1,96
 154 250 154 250 160 248 c 0,97,98
 174 245 174 245 189.5 241 c 128,-1,99
 205 237 205 237 221 232 c 0,100,101
 260 220 260 220 292.5 195.5 c 128,-1,102
 325 171 325 171 325 121 c 0,103,104
 325 110 325 110 320.5 94.5 c 128,-1,105
 316 79 316 79 306 62 c 0,106,107
 290 34 290 34 258 11.5 c 128,-1,108
 226 -11 226 -11 174 -11 c 1,109,-1
 164 -12 l 2,110,111
 157 -11 157 -11 150 -10.5 c 128,-1,112
 143 -10 143 -10 136 -9 c 0,113,114
 103 -5 103 -5 72 10.5 c 128,-1,115
 41 26 41 26 25 55 c 0,0,1
EndSplineSet
EndChar

StartChar: t
Encoding: 116 116 87
Width: 269
GlyphClass: 2
Flags: W
LayerCount: 2
Fore
SplineSet
71 355 m 1,0,-1
 25 355 l 2,1,2
 13 355 13 355 7 361.5 c 128,-1,3
 1 368 1 368 0 375 c 2,4,-1
 0 376 l 1,5,-1
 0 378 l 2,6,7
 0 387 0 387 6 394 c 128,-1,8
 12 401 12 401 25 401 c 0,9,10
 55 401 55 401 67.5 421.5 c 128,-1,11
 80 442 80 442 85 476 c 0,12,13
 86 487 86 487 87.5 497 c 128,-1,14
 89 507 89 507 89 515 c 0,15,16
 92 534 92 534 94.5 546.5 c 128,-1,17
 97 559 97 559 104 562 c 0,18,19
 105 563 105 563 106 563 c 128,-1,20
 107 563 107 563 108 564 c 0,21,22
 110 565 110 565 112.5 565.5 c 128,-1,23
 115 566 115 566 116 566 c 0,24,25
 125 566 125 566 131.5 555 c 128,-1,26
 138 544 138 544 138 529 c 2,27,-1
 138 401 l 1,28,-1
 226 401 l 2,29,30
 234 401 234 401 238.5 395 c 128,-1,31
 243 389 243 389 244 382 c 0,32,33
 245 380 245 380 245 378 c 2,34,-1
 245 375 l 2,35,36
 245 368 245 368 241.5 361.5 c 128,-1,37
 238 355 238 355 232 355 c 2,38,-1
 138 355 l 1,39,-1
 138 108 l 2,40,41
 138 67 138 67 144.5 56.5 c 128,-1,42
 151 46 151 46 174 46 c 0,43,44
 176 46 176 46 178.5 46.5 c 128,-1,45
 181 47 181 47 184 47 c 2,46,-1
 187 47 l 2,47,48
 188 47 188 47 190 48 c 2,49,-1
 194 48 l 1,50,-1
 197 48 l 1,51,-1
 207 48 l 2,52,53
 222 48 222 48 231 42 c 128,-1,54
 240 36 240 36 243 29 c 0,55,56
 244 27 244 27 244.5 25.5 c 128,-1,57
 245 24 245 24 245 22 c 0,58,59
 245 15 245 15 238 8.5 c 128,-1,60
 231 2 231 2 219 2 c 2,61,-1
 118 2 l 2,62,63
 83 2 83 2 77 8.5 c 128,-1,64
 71 15 71 15 71 55 c 2,65,-1
 71 355 l 1,0,-1
EndSplineSet
EndChar

StartChar: u
Encoding: 117 117 88
Width: 452
GlyphClass: 2
Flags: W
LayerCount: 2
Fore
SplineSet
322 55 m 1,0,1
 307 33 307 33 281 17 c 128,-1,2
 255 1 255 1 227 -6 c 0,3,4
 217 -8 217 -8 207 -9.5 c 128,-1,5
 197 -11 197 -11 187 -11 c 0,6,7
 103 -11 103 -11 75.5 36 c 128,-1,8
 48 83 48 83 48 148 c 2,9,-1
 48 322 l 2,10,11
 48 340 48 340 41.5 347 c 128,-1,12
 35 354 35 354 27 359 c 1,13,-1
 26 359 l 1,14,-1
 26 360 l 2,15,16
 23 362 23 362 20.5 363.5 c 128,-1,17
 18 365 18 365 15 368 c 2,18,-1
 14 369 l 1,19,-1
 13 370 l 2,20,21
 12 372 12 372 11 373.5 c 128,-1,22
 10 375 10 375 10 376 c 0,23,24
 10 383 10 383 19 389 c 128,-1,25
 28 395 28 395 39 400 c 0,26,27
 45 402 45 402 51 404.5 c 128,-1,28
 57 407 57 407 61 408 c 2,29,-1
 75 411 l 2,30,31
 82 413 82 413 86 413 c 0,32,33
 101 413 101 413 107.5 402 c 128,-1,34
 114 391 114 391 114 368 c 2,35,-1
 114 181 l 1,36,-1
 114 160 l 2,37,38
 114 148 114 148 115 136 c 0,39,40
 117 98 117 98 132.5 66.5 c 128,-1,41
 148 35 148 35 194 35 c 2,42,-1
 201 35 l 2,43,44
 205 35 205 35 209 36 c 0,45,46
 251 40 251 40 286.5 66.5 c 128,-1,47
 322 93 322 93 322 134 c 2,48,-1
 322 322 l 2,49,50
 322 336 322 336 315 344 c 128,-1,51
 308 352 308 352 300 359 c 1,52,-1
 299 359 l 2,53,54
 297 361 297 361 294 363.5 c 128,-1,55
 291 366 291 366 289 368 c 2,56,-1
 287 370 l 2,57,58
 285 372 285 372 284.5 373.5 c 128,-1,59
 284 375 284 375 284 376 c 0,60,61
 284 383 284 383 293 389 c 128,-1,62
 302 395 302 395 313 400 c 0,63,64
 319 402 319 402 325 404.5 c 128,-1,65
 331 407 331 407 335 408 c 0,66,67
 337 408 337 408 338.5 408.5 c 128,-1,68
 340 409 340 409 341 409 c 0,69,70
 346 410 346 410 350.5 410.5 c 128,-1,71
 355 411 355 411 358 411 c 0,72,73
 373 411 373 411 380.5 399.5 c 128,-1,74
 388 388 388 388 388 362 c 2,75,-1
 388 95 l 2,76,77
 388 75 388 75 390.5 60.5 c 128,-1,78
 393 46 393 46 408 41 c 0,79,80
 415 40 415 40 420.5 35.5 c 128,-1,81
 426 31 426 31 429 26 c 0,82,83
 431 24 431 24 432 21.5 c 128,-1,84
 433 19 433 19 433 17 c 0,85,86
 433 10 433 10 425.5 6 c 128,-1,87
 418 2 418 2 401 2 c 2,88,-1
 355 2 l 2,89,90
 336 2 336 2 331.5 12 c 128,-1,91
 327 22 327 22 325 36 c 0,92,93
 324 41 324 41 323.5 45.5 c 128,-1,94
 323 50 323 50 322 55 c 1,0,1
EndSplineSet
EndChar

StartChar: v
Encoding: 118 118 89
Width: 389
GlyphClass: 2
Flags: W
LayerCount: 2
Fore
SplineSet
78 401 m 1,0,-1
 111 401 l 2,1,2
 119 401 119 401 124 396 c 128,-1,3
 129 391 129 391 131 385 c 2,4,-1
 131 383 l 1,5,-1
 131 381 l 1,6,-1
 131 379 l 1,7,-1
 131 377 l 2,8,9
 129 371 129 371 126 367 c 128,-1,10
 123 363 123 363 118 362 c 0,11,12
 107 359 107 359 101.5 348 c 128,-1,13
 96 337 96 337 96 322 c 0,14,15
 96 299 96 299 105.5 268.5 c 128,-1,16
 115 238 115 238 129 205 c 2,17,-1
 145 172 l 1,18,-1
 161 140 l 1,19,-1
 185 99 l 2,20,21
 197 80 197 80 206 68 c 1,22,23
 214 80 214 80 224 98 c 2,24,-1
 245 137 l 2,25,26
 253 153 253 153 260 170 c 2,27,-1
 275 204 l 2,28,29
 288 240 288 240 297.5 273 c 128,-1,30
 307 306 307 306 307 328 c 0,31,32
 307 341 307 341 303.5 351 c 128,-1,33
 300 361 300 361 292 362 c 0,34,35
 286 364 286 364 282 368.5 c 128,-1,36
 278 373 278 373 276 377 c 0,37,38
 276 379 276 379 275.5 380.5 c 128,-1,39
 275 382 275 382 275 383 c 2,40,-1
 275 385 l 2,41,42
 275 386 275 386 276 387 c 0,43,44
 277 392 277 392 282.5 396.5 c 128,-1,45
 288 401 288 401 299 401 c 2,46,-1
 371 401 l 2,47,48
 382 401 382 401 386 396 c 128,-1,49
 390 391 390 391 390 385 c 2,50,-1
 390 384 l 1,51,-1
 390 382 l 2,52,53
 389 380 389 380 388.5 377.5 c 128,-1,54
 388 375 388 375 387 373 c 0,55,56
 387 371 387 371 386 370 c 128,-1,57
 385 369 385 369 385 368 c 0,58,59
 375 359 375 359 366 329 c 2,60,-1
 346 266 l 2,61,62
 346 265 346 265 345.5 264 c 128,-1,63
 345 263 345 263 345 262 c 0,64,65
 341 242 341 242 329.5 212.5 c 128,-1,66
 318 183 318 183 303 152 c 0,67,68
 299 142 299 142 294 132 c 128,-1,69
 289 122 289 122 284 113 c 0,70,71
 269 82 269 82 255 57.5 c 128,-1,72
 241 33 241 33 232 22 c 0,73,74
 221 8 221 8 210 0.5 c 128,-1,75
 199 -7 199 -7 191 -7 c 0,76,77
 181 -7 181 -7 168 4.5 c 128,-1,78
 155 16 155 16 138 41 c 0,79,80
 126 59 126 59 115 78.5 c 128,-1,81
 104 98 104 98 95 118 c 0,82,83
 73 163 73 163 59 205 c 128,-1,84
 45 247 45 247 38 275 c 0,85,86
 28 315 28 315 18.5 336.5 c 128,-1,87
 9 358 9 358 -1 368 c 0,88,89
 -2 369 -2 369 -3 371 c 2,90,-1
 -5 375 l 2,91,92
 -6 376 -6 376 -6.5 378 c 128,-1,93
 -7 380 -7 380 -7 381 c 2,94,-1
 -7 383 l 2,95,96
 -7 384 -7 384 -6 385 c 0,97,98
 -4 391 -4 391 2 396 c 128,-1,99
 8 401 8 401 18 401 c 2,100,-1
 78 401 l 1,0,-1
EndSplineSet
EndChar

StartChar: w
Encoding: 119 119 90
Width: 614
GlyphClass: 2
Flags: W
LayerCount: 2
Fore
SplineSet
56 401 m 1,0,-1
 96 401 l 2,1,2
 107 401 107 401 114 394 c 128,-1,3
 121 387 121 387 121 378 c 0,4,5
 121 376 121 376 120.5 374.5 c 128,-1,6
 120 373 120 373 120 371 c 0,7,8
 118 366 118 366 114 362 c 128,-1,9
 110 358 110 358 103 355 c 0,10,11
 98 354 98 354 94.5 346 c 128,-1,12
 91 338 91 338 91 327 c 0,13,14
 91 302 91 302 102.5 259 c 128,-1,15
 114 216 114 216 132 169 c 0,16,17
 141 144 141 144 151.5 119.5 c 128,-1,18
 162 95 162 95 173 74 c 0,19,20
 174 72 174 72 174.5 70.5 c 128,-1,21
 175 69 175 69 176 68 c 1,22,23
 196 91 196 91 213 124 c 128,-1,24
 230 157 230 157 243 191 c 0,25,26
 257 230 257 230 265.5 266 c 128,-1,27
 274 302 274 302 274 325 c 0,28,29
 274 338 274 338 271.5 346.5 c 128,-1,30
 269 355 269 355 264 355 c 0,31,32
 256 356 256 356 250.5 362 c 128,-1,33
 245 368 245 368 244 375 c 2,34,-1
 244 376 l 1,35,-1
 244 378 l 2,36,37
 244 379 244 379 244.5 380.5 c 128,-1,38
 245 382 245 382 245 384 c 0,39,40
 247 390 247 390 253.5 395.5 c 128,-1,41
 260 401 260 401 270 401 c 2,42,-1
 343 401 l 2,43,44
 357 401 357 401 362.5 395 c 128,-1,45
 368 389 368 389 368 381 c 0,46,47
 368 379 368 379 367.5 377.5 c 128,-1,48
 367 376 367 376 367 374 c 0,49,50
 365 368 365 368 360.5 362.5 c 128,-1,51
 356 357 356 357 350 355 c 0,52,53
 345 353 345 353 342 345 c 128,-1,54
 339 337 339 337 338 328 c 2,55,-1
 338 326 l 1,56,-1
 338 325 l 2,57,58
 338 311 338 311 342 292.5 c 128,-1,59
 346 274 346 274 352 255 c 2,60,-1
 356 243 l 2,61,62
 358 237 358 237 360 230 c 0,63,64
 363 223 363 223 365.5 215.5 c 128,-1,65
 368 208 368 208 370 201 c 0,66,67
 374 192 374 192 377 184 c 128,-1,68
 380 176 380 176 384 167 c 0,69,70
 394 141 394 141 406 116 c 128,-1,71
 418 91 418 91 438 68 c 1,72,73
 448 86 448 86 457 105 c 128,-1,74
 466 124 466 124 474 143 c 0,75,76
 496 195 496 195 509 244 c 128,-1,77
 522 293 522 293 522 322 c 0,78,79
 522 334 522 334 519 344 c 128,-1,80
 516 354 516 354 511 355 c 0,81,82
 504 358 504 358 499 362 c 128,-1,83
 494 366 494 366 491 371 c 0,84,85
 490 373 490 373 489.5 374.5 c 128,-1,86
 489 376 489 376 489 378 c 0,87,88
 489 379 489 379 489.5 380.5 c 128,-1,89
 490 382 490 382 490 384 c 0,90,91
 492 389 492 389 496.5 394 c 128,-1,92
 501 399 501 399 507 400 c 0,93,94
 508 401 508 401 509 401 c 2,95,-1
 511 401 l 1,96,-1
 577 401 l 2,97,98
 590 401 590 401 595 394.5 c 128,-1,99
 600 388 600 388 600 380 c 0,100,101
 600 377 600 377 599.5 373.5 c 128,-1,102
 599 370 599 370 598 366 c 0,103,104
 596 361 596 361 594 356.5 c 128,-1,105
 592 352 592 352 590 348 c 0,106,107
 586 338 586 338 580 315 c 128,-1,108
 574 292 574 292 564 262 c 0,109,110
 544 191 544 191 516 128 c 128,-1,111
 488 65 488 65 458 15 c 0,112,113
 456 12 456 12 453.5 9 c 128,-1,114
 451 6 451 6 449 3 c 0,115,116
 442 -3 442 -3 435.5 -7 c 128,-1,117
 429 -11 429 -11 423 -11 c 0,118,119
 418 -11 418 -11 411.5 -7.5 c 128,-1,120
 405 -4 405 -4 399 1 c 2,121,-1
 391 11 l 2,122,123
 387 16 387 16 383 22 c 0,124,125
 376 32 376 32 364 53.5 c 128,-1,126
 352 75 352 75 340 102 c 0,127,128
 336 110 336 110 332 118 c 2,129,-1
 326 133 l 2,130,131
 317 153 317 153 309.5 172 c 128,-1,132
 302 191 302 191 297 207 c 1,133,134
 292 191 292 191 286 173 c 2,135,-1
 272 138 l 2,136,137
 265 121 265 121 257 105 c 2,138,-1
 242 74 l 2,139,140
 231 54 231 54 221 38.5 c 128,-1,141
 211 23 211 23 202 15 c 0,142,143
 191 2 191 2 180.5 -5 c 128,-1,144
 170 -12 170 -12 163 -12 c 0,145,146
 154 -12 154 -12 144.5 -4 c 128,-1,147
 135 4 135 4 123 22 c 0,148,149
 117 30 117 30 106 52.5 c 128,-1,150
 95 75 95 75 83 105 c 0,151,152
 77 119 77 119 72 134 c 2,153,-1
 62 163 l 2,154,155
 58 172 58 172 55.5 182 c 128,-1,156
 53 192 53 192 50 201 c 0,157,158
 40 231 40 231 35 258 c 128,-1,159
 30 285 30 285 27 307 c 0,160,161
 23 328 23 328 18 342.5 c 128,-1,162
 13 357 13 357 3 362 c 0,163,164
 0 365 0 365 -3 368.5 c 128,-1,165
 -6 372 -6 372 -7 376 c 0,166,167
 -8 377 -8 377 -8.5 379 c 128,-1,168
 -9 381 -9 381 -9 383 c 2,169,-1
 -9 385 l 2,170,171
 -9 386 -9 386 -8 387 c 0,172,173
 -7 392 -7 392 -2.5 396.5 c 128,-1,174
 2 401 2 401 10 401 c 2,175,-1
 56 401 l 1,0,-1
EndSplineSet
EndChar

StartChar: x
Encoding: 120 120 91
Width: 432
GlyphClass: 2
Flags: W
LayerCount: 2
Fore
SplineSet
166 201 m 1,0,-1
 66 322 l 2,1,2
 56 337 56 337 42 349.5 c 128,-1,3
 28 362 28 362 13 362 c 0,4,5
 6 363 6 363 3 367 c 128,-1,6
 0 371 0 371 -1 375 c 2,7,-1
 -1 377 l 1,8,-1
 -1 378 l 2,9,10
 -1 379 -1 379 -0.5 380.5 c 128,-1,11
 0 382 0 382 0 384 c 0,12,13
 1 390 1 390 8 395.5 c 128,-1,14
 15 401 15 401 27 401 c 2,15,-1
 119 401 l 2,16,17
 132 401 132 401 139 396 c 128,-1,18
 146 391 146 391 147 385 c 0,19,20
 148 384 148 384 148 383 c 2,21,-1
 148 381 l 1,22,-1
 148 379 l 2,23,24
 148 378 148 378 147 377 c 0,25,26
 146 371 146 371 142 367 c 128,-1,27
 138 363 138 363 133 362 c 0,28,29
 131 362 131 362 128.5 360 c 128,-1,30
 126 358 126 358 125 356 c 0,31,32
 124 355 124 355 123.5 354 c 128,-1,33
 123 353 123 353 123 352 c 0,34,35
 123 343 123 343 133.5 328.5 c 128,-1,36
 144 314 144 314 158 298 c 0,37,38
 161 294 161 294 164 291 c 2,39,-1
 172 283 l 2,40,41
 181 273 181 273 190 265 c 2,42,-1
 206 249 l 1,43,-1
 274 328 l 2,44,45
 278 335 278 335 280 339.5 c 128,-1,46
 282 344 282 344 282 348 c 0,47,48
 282 350 282 350 281 353 c 128,-1,49
 280 356 280 356 277 359 c 0,50,51
 275 362 275 362 272.5 364 c 128,-1,52
 270 366 270 366 267 368 c 128,-1,53
 264 370 264 370 262 372 c 128,-1,54
 260 374 260 374 258 377 c 2,55,-1
 256 381 l 2,56,57
 255 383 255 383 255 385 c 0,58,59
 255 391 255 391 262 396 c 128,-1,60
 269 401 269 401 280 401 c 2,61,-1
 360 401 l 2,62,63
 371 401 371 401 376 395 c 128,-1,64
 381 389 381 389 381 381 c 0,65,66
 381 379 381 379 380.5 377.5 c 128,-1,67
 380 376 380 376 380 374 c 0,68,69
 378 368 378 368 373 362.5 c 128,-1,70
 368 357 368 357 360 355 c 0,71,72
 352 355 352 355 343 345 c 2,73,-1
 325 321 l 2,74,75
 322 318 322 318 319 314.5 c 128,-1,76
 316 311 316 311 313 308 c 2,77,-1
 234 216 l 1,78,-1
 320 114 l 2,79,80
 345 85 345 85 365 65.5 c 128,-1,81
 385 46 385 46 400 41 c 0,82,83
 407 40 407 40 412 36 c 128,-1,84
 417 32 417 32 419 27 c 0,85,86
 419 25 419 25 419.5 23.5 c 128,-1,87
 420 22 420 22 420 20 c 2,88,-1
 420 18 l 2,89,90
 420 17 420 17 419 16 c 0,91,92
 417 11 417 11 410.5 6.5 c 128,-1,93
 404 2 404 2 393 2 c 2,94,-1
 287 2 l 2,95,96
 277 2 277 2 271 6 c 128,-1,97
 265 10 265 10 265 15 c 0,98,99
 265 17 265 17 266 20 c 128,-1,100
 267 23 267 23 269 26 c 0,101,102
 272 30 272 30 275.5 33.5 c 128,-1,103
 279 37 279 37 283 39 c 0,104,105
 284 40 284 40 285 40.5 c 128,-1,106
 286 41 286 41 287 41 c 0,107,108
 289 41 289 41 290 42.5 c 128,-1,109
 291 44 291 44 292 46 c 2,110,-1
 292 48 l 2,111,112
 292 61 292 61 268 90 c 2,113,-1
 213 151 l 1,114,-1
 213 152 l 1,115,-1
 212 152 l 1,116,-1
 202 164 l 1,117,-1
 192 174 l 1,118,119
 188 168 188 168 183 162 c 128,-1,120
 178 156 178 156 174 150 c 0,121,122
 150 119 150 119 130.5 91 c 128,-1,123
 111 63 111 63 111 50 c 2,124,-1
 111 49 l 1,125,-1
 111 48 l 2,126,127
 112 46 112 46 114 45 c 2,128,-1
 116 42 l 2,129,130
 117 42 117 42 117.5 41.5 c 128,-1,131
 118 41 118 41 119 41 c 0,132,133
 127 38 127 38 132 34 c 128,-1,134
 137 30 137 30 140 26 c 0,135,136
 142 23 142 23 143 20 c 128,-1,137
 144 17 144 17 144 15 c 0,138,139
 144 10 144 10 139.5 6 c 128,-1,140
 135 2 135 2 126 2 c 2,141,-1
 20 2 l 2,142,143
 10 2 10 2 5 7 c 128,-1,144
 0 12 0 12 0 18 c 2,145,-1
 0 21 l 2,146,147
 0 22 0 22 1 24 c 0,148,149
 2 29 2 29 7 34 c 128,-1,150
 12 39 12 39 20 41 c 0,151,152
 32 44 32 44 39 49 c 128,-1,153
 46 54 46 54 53 61 c 0,154,155
 57 67 57 67 62 74 c 2,156,-1
 73 88 l 1,157,-1
 166 201 l 1,0,-1
EndSplineSet
EndChar

StartChar: y
Encoding: 121 121 92
Width: 412
GlyphClass: 2
Flags: W
LayerCount: 2
Fore
SplineSet
237 28 m 1,0,1
 233 27 233 27 229 26 c 0,2,3
 224 25 224 25 219 24 c 128,-1,4
 214 23 214 23 208.5 22.5 c 128,-1,5
 203 22 203 22 199 22 c 0,6,7
 150 22 150 22 116 66 c 128,-1,8
 82 110 82 110 56 181 c 0,9,10
 50 196 50 196 46.5 216.5 c 128,-1,11
 43 237 43 237 40 259 c 0,12,13
 39 263 39 263 38.5 266.5 c 128,-1,14
 38 270 38 270 37 274 c 0,15,16
 33 307 33 307 27 333 c 128,-1,17
 21 359 21 359 10 362 c 0,18,19
 4 364 4 364 0.5 368.5 c 128,-1,20
 -3 373 -3 373 -5 377 c 0,21,22
 -5 379 -5 379 -5.5 380.5 c 128,-1,23
 -6 382 -6 382 -6 383 c 2,24,-1
 -6 385 l 2,25,26
 -6 386 -6 386 -5 387 c 0,27,28
 -4 392 -4 392 1 396.5 c 128,-1,29
 6 401 6 401 17 401 c 2,30,-1
 109 401 l 2,31,32
 118 401 118 401 124 396.5 c 128,-1,33
 130 392 130 392 132 387 c 0,34,35
 133 386 133 386 133 385 c 2,36,-1
 133 383 l 2,37,38
 133 381 133 381 132.5 379 c 128,-1,39
 132 377 132 377 131 376 c 0,40,41
 129 372 129 372 125.5 368.5 c 128,-1,42
 122 365 122 365 116 362 c 0,43,44
 107 358 107 358 103.5 348 c 128,-1,45
 100 338 100 338 100 325 c 0,46,47
 100 315 100 315 101.5 302.5 c 128,-1,48
 103 290 103 290 105 277 c 2,49,-1
 107 263 l 1,50,-1
 109 249 l 2,51,52
 112 238 112 238 115 225.5 c 128,-1,53
 118 213 118 213 122 201 c 0,54,55
 133 164 133 164 149.5 130 c 128,-1,56
 166 96 166 96 189 81 c 0,57,58
 191 80 191 80 193 78.5 c 128,-1,59
 195 77 195 77 197 76 c 0,60,61
 205 72 205 72 212.5 69 c 128,-1,62
 220 66 220 66 226 66 c 0,63,64
 258 66 258 66 280 116.5 c 128,-1,65
 302 167 302 167 317 255 c 0,66,67
 321 273 321 273 323 288.5 c 128,-1,68
 325 304 325 304 325 317 c 0,69,70
 325 334 325 334 319.5 346.5 c 128,-1,71
 314 359 314 359 303 362 c 0,72,73
 299 363 299 363 295.5 366.5 c 128,-1,74
 292 370 292 370 290 374 c 0,75,76
 290 376 290 376 289.5 377.5 c 128,-1,77
 289 379 289 379 289 380 c 2,78,-1
 289 382 l 1,79,-1
 289 383 l 2,80,81
 290 389 290 389 297.5 395 c 128,-1,82
 305 401 305 401 317 401 c 2,83,-1
 376 401 l 2,84,85
 391 401 391 401 397 395 c 128,-1,86
 403 389 403 389 403 381 c 0,87,88
 403 377 403 377 402 373 c 128,-1,89
 401 369 401 369 399 365 c 2,90,-1
 396 358 l 2,91,92
 394 355 394 355 392 352 c 0,93,94
 392 351 392 351 391.5 350 c 128,-1,95
 391 349 391 349 390 348 c 128,-1,96
 389 347 389 347 388 344 c 128,-1,97
 387 341 387 341 386 337 c 0,98,99
 378 303 378 303 356.5 195.5 c 128,-1,100
 335 88 335 88 250 -37 c 0,101,102
 229 -68 229 -68 204.5 -91.5 c 128,-1,103
 180 -115 180 -115 155 -131 c 128,-1,104
 130 -147 130 -147 106.5 -155 c 128,-1,105
 83 -163 83 -163 63 -163 c 2,106,-1
 60 -163 l 1,107,-1
 57 -163 l 2,108,109
 49 -162 49 -162 42 -160.5 c 128,-1,110
 35 -159 35 -159 30 -157 c 128,-1,111
 25 -155 25 -155 22 -150 c 128,-1,112
 19 -145 19 -145 18 -139 c 0,113,114
 17 -138 17 -138 17 -137 c 2,115,-1
 17 -133 l 2,116,117
 17 -130 17 -130 17.5 -127.5 c 128,-1,118
 18 -125 18 -125 19 -122 c 0,119,120
 22 -112 22 -112 31 -103.5 c 128,-1,121
 40 -95 40 -95 51 -95 c 2,122,-1
 53 -95 l 2,123,124
 54 -95 54 -95 55 -96 c 2,125,-1
 56 -96 l 1,126,-1
 57 -96 l 2,127,128
 59 -96 59 -96 60.5 -96.5 c 128,-1,129
 62 -97 62 -97 63 -97 c 0,130,131
 65 -98 65 -98 67.5 -98.5 c 128,-1,132
 70 -99 70 -99 73 -99 c 0,133,134
 77 -100 77 -100 80 -100 c 2,135,-1
 86 -100 l 2,136,137
 89 -100 89 -100 92.5 -99.5 c 128,-1,138
 96 -99 96 -99 99 -99 c 0,139,140
 139 -93 139 -93 176 -56 c 128,-1,141
 213 -19 213 -19 237 28 c 1,0,1
EndSplineSet
EndChar

StartChar: z
Encoding: 122 122 93
Width: 369
GlyphClass: 2
Flags: W
LayerCount: 2
Fore
SplineSet
174 401 m 1,0,-1
 315 401 l 2,1,2
 330 401 330 401 340 394 c 128,-1,3
 350 387 350 387 350 376 c 0,4,5
 350 366 350 366 341 350.5 c 128,-1,6
 332 335 332 335 315 315 c 2,7,-1
 154 121 l 2,8,9
 151 117 151 117 147.5 113 c 128,-1,10
 144 109 144 109 141 104 c 0,11,12
 140 103 140 103 139 101.5 c 128,-1,13
 138 100 138 100 137 98 c 0,14,15
 128 86 128 86 121 75.5 c 128,-1,16
 114 65 114 65 114 58 c 0,17,18
 114 53 114 53 119 50.5 c 128,-1,19
 124 48 124 48 134 48 c 2,20,-1
 194 48 l 2,21,22
 235 48 235 48 253.5 50.5 c 128,-1,23
 272 53 272 53 287 68 c 2,24,-1
 294 77 l 2,25,26
 298 82 298 82 302 88 c 0,27,28
 310 99 310 99 317 104 c 128,-1,29
 324 109 324 109 328 109 c 0,30,31
 333 109 333 109 337.5 103 c 128,-1,32
 342 97 342 97 342 86 c 2,33,-1
 342 75 l 1,34,-1
 335 41 l 2,35,36
 330 16 330 16 319.5 9 c 128,-1,37
 309 2 309 2 289 2 c 2,38,-1
 81 2 l 2,39,40
 50 2 50 2 33.5 8.5 c 128,-1,41
 17 15 17 15 17 30 c 0,42,43
 17 46 17 46 36.5 77 c 128,-1,44
 56 108 56 108 95 154 c 2,45,-1
 235 315 l 2,46,47
 244 324 244 324 248 331 c 128,-1,48
 252 338 252 338 252 342 c 0,49,50
 252 350 252 350 239 352.5 c 128,-1,51
 226 355 226 355 201 355 c 2,52,-1
 141 355 l 2,53,54
 128 355 128 355 118 352 c 128,-1,55
 108 349 108 349 99 342 c 2,56,-1
 91 334 l 2,57,58
 86 329 86 329 81 322 c 0,59,60
 78 318 78 318 74.5 314.5 c 128,-1,61
 71 311 71 311 67 308 c 0,62,63
 62 305 62 305 58 303.5 c 128,-1,64
 54 302 54 302 51 302 c 2,65,-1
 50 302 l 1,66,-1
 49 302 l 2,67,68
 46 303 46 303 43 307.5 c 128,-1,69
 40 312 40 312 40 318 c 2,70,-1
 40 320 l 2,71,72
 40 321 40 321 41 323 c 2,73,-1
 41 324 l 1,74,-1
 41 326 l 1,75,-1
 41 328 l 1,76,-1
 48 362 l 2,77,78
 49 365 49 365 49.5 367.5 c 128,-1,79
 50 370 50 370 50 372 c 0,80,81
 54 390 54 390 63.5 395.5 c 128,-1,82
 73 401 73 401 108 401 c 2,83,-1
 174 401 l 1,0,-1
EndSplineSet
EndChar

StartChar: braceleft
Encoding: 123 123 94
Width: 269
GlyphClass: 2
Flags: W
LayerCount: 2
Fore
SplineSet
25 275 m 1,0,1
 65 275 65 275 81.5 296.5 c 128,-1,2
 98 318 98 318 98 348 c 2,3,-1
 98 522 l 2,4,5
 98 590 98 590 125.5 616.5 c 128,-1,6
 153 643 153 643 204 643 c 2,7,-1
 226 643 l 2,8,9
 225 643 225 643 224.5 642.5 c 128,-1,10
 224 642 224 642 223 642 c 0,11,12
 193 626 193 626 175.5 605 c 128,-1,13
 158 584 158 584 158 536 c 2,14,-1
 158 401 l 2,15,16
 158 327 158 327 142 307 c 128,-1,17
 126 287 126 287 100 278 c 0,18,19
 98 277 98 277 95.5 276.5 c 128,-1,20
 93 276 93 276 91 275 c 1,21,22
 94 273 94 273 97 272 c 128,-1,23
 100 271 100 271 103 269 c 0,24,25
 128 256 128 256 143 237 c 128,-1,26
 158 218 158 218 158 167 c 2,27,-1
 158 22 l 2,28,29
 158 -47 158 -47 176.5 -67 c 128,-1,30
 195 -87 195 -87 226 -97 c 1,31,-1
 202 -98 l 2,32,33
 136 -97 136 -97 117 -66.5 c 128,-1,34
 98 -36 98 -36 98 28 c 2,35,-1
 98 187 l 2,36,37
 98 191 98 191 97.5 195 c 128,-1,38
 97 199 97 199 96 204 c 0,39,40
 92 226 92 226 75.5 246.5 c 128,-1,41
 59 267 59 267 25 275 c 1,0,1
EndSplineSet
EndChar

StartChar: bar
Encoding: 124 124 95
Width: 571
GlyphClass: 2
Flags: W
LayerCount: 2
Fore
SplineSet
255 643 m 1,0,-1
 308 643 l 1,1,-1
 308 2 l 1,2,-1
 255 2 l 1,3,-1
 255 643 l 1,0,-1
EndSplineSet
EndChar

StartChar: braceright
Encoding: 125 125 96
Width: 269
GlyphClass: 2
Flags: W
LayerCount: 2
Fore
SplineSet
164 269 m 1,0,1
 115 279 115 279 103 314.5 c 128,-1,2
 91 350 91 350 91 395 c 2,3,-1
 91 536 l 2,4,5
 91 576 91 576 75.5 604.5 c 128,-1,6
 60 633 60 633 25 643 c 1,7,8
 114 643 114 643 136 611 c 128,-1,9
 158 579 158 579 158 509 c 2,10,-1
 158 375 l 2,11,12
 158 327 158 327 161.5 311 c 128,-1,13
 165 295 165 295 186 285 c 0,14,15
 193 281 193 281 203 277.5 c 128,-1,16
 213 274 213 274 226 269 c 1,17,18
 189 259 189 259 173.5 238 c 128,-1,19
 158 217 158 217 158 181 c 2,20,-1
 158 8 l 2,21,22
 158 -52 158 -52 131 -76 c 128,-1,23
 104 -100 104 -100 71 -104 c 0,24,25
 66 -104 66 -104 61 -104.5 c 128,-1,26
 56 -105 56 -105 51 -105 c 0,27,28
 48 -105 48 -105 44.5 -104.5 c 128,-1,29
 41 -104 41 -104 38 -104 c 128,-1,30
 35 -104 35 -104 31.5 -103.5 c 128,-1,31
 28 -103 28 -103 25 -103 c 1,32,33
 28 -102 28 -102 31.5 -100.5 c 128,-1,34
 35 -99 35 -99 38 -97 c 0,35,36
 66 -85 66 -85 78.5 -68 c 128,-1,37
 91 -51 91 -51 91 -11 c 2,38,-1
 91 174 l 2,39,40
 91 206 91 206 107.5 232.5 c 128,-1,41
 124 259 124 259 164 269 c 1,0,1
EndSplineSet
EndChar

StartChar: asciitilde
Encoding: 126 126 97
Width: 472
GlyphClass: 2
Flags: W
LayerCount: 2
Fore
SplineSet
245.240234375 283 m 1,0,1
 290.740234375 249 290.740234375 249 305.740234375 249 c 0,2,3
 372.740234375 249 372.740234375 249 399.740234375 266.5 c 0,4,5
 420.740234375 280 420.740234375 280 421.240234375 280 c 0,6,7
 442.740234375 287 442.740234375 287 442.740234375 261 c 0,8,9
 442.740234375 256 442.740234375 256 434.249023438 243.689453125 c 0,10,11
 425.740234375 232 425.740234375 232 392.249023438 214.30078125 c 0,12,13
 358.740234375 197 358.740234375 197 333.690429688 190.400390625 c 0,14,15
 291.740234375 179 291.740234375 179 211.240234375 219 c 1,16,17
 163.740234375 253 163.740234375 253 150.240234375 253 c 0,18,19
 83.740234375 254 83.740234375 254 56.240234375 236 c 0,20,-1
 34.240234375 222 l 0,21,22
 10.740234375 214 10.740234375 214 13.240234375 241 c 0,23,24
 13.740234375 246 13.740234375 246 21.740234375 258 c 128,-1,25
 29.740234375 270 29.740234375 270 63.740234375 287.5 c 128,-1,26
 97.740234375 305 97.740234375 305 122.240234375 312 c 0,27,28
 164.740234375 323 164.740234375 323 245.240234375 283 c 1,0,1
EndSplineSet
EndChar

StartChar: exclamdown
Encoding: 161 161 99
Width: 269
GlyphClass: 2
Flags: W
LayerCount: 2
Fore
SplineSet
104 222 m 2,0,1
 104 231 104 231 108.5 236 c 128,-1,2
 113 241 113 241 119 242 c 2,3,-1
 120 242 l 1,4,-1
 121 242 l 1,5,-1
 122 242 l 1,6,-1
 123 242 l 2,7,8
 129 241 129 241 133.5 236 c 128,-1,9
 138 231 138 231 138 222 c 2,10,-1
 158 -124 l 2,11,12
 158 -158 158 -158 148 -167 c 128,-1,13
 138 -176 138 -176 118 -176 c 2,14,-1
 112 -176 l 2,15,16
 108 -176 108 -176 105 -175 c 0,17,18
 92 -173 92 -173 81.5 -162 c 128,-1,19
 71 -151 71 -151 71 -123 c 2,20,-1
 104 222 l 2,0,1
71 355 m 0,21,22
 71 375 71 375 84.5 388 c 128,-1,23
 98 401 98 401 118 401 c 0,24,25
 121 401 121 401 124 400.5 c 128,-1,26
 127 400 127 400 130 400 c 0,27,28
 143 397 143 397 153.5 387.5 c 128,-1,29
 164 378 164 378 164 362 c 0,30,31
 164 337 164 337 149.5 325 c 128,-1,32
 135 313 135 313 118 313 c 2,33,-1
 116 313 l 1,34,-1
 115 313 l 2,35,36
 99 314 99 314 85 325 c 128,-1,37
 71 336 71 336 71 355 c 0,21,22
EndSplineSet
EndChar

StartChar: cent
Encoding: 162 162 100
Width: 531
GlyphClass: 2
Flags: W
LayerCount: 2
Fore
SplineSet
262 114 m 1,0,1
 165 121 165 121 119 180.5 c 128,-1,2
 73 240 73 240 73 310 c 2,3,-1
 73 318 l 2,4,5
 73 323 73 323 74 328 c 0,6,7
 79 402 79 402 128.5 465.5 c 128,-1,8
 178 529 178 529 262 536 c 1,9,-1
 262 635 l 2,10,11
 262 643 262 643 268.5 646.5 c 128,-1,12
 275 650 275 650 282 650 c 0,13,14
 290 650 290 650 296 646.5 c 128,-1,15
 302 643 302 643 302 635 c 2,16,-1
 302 536 l 1,17,18
 367 531 367 531 398.5 505 c 128,-1,19
 430 479 430 479 430 449 c 0,20,21
 430 437 430 437 419.5 428.5 c 128,-1,22
 409 420 409 420 396 420 c 2,23,-1
 393 420 l 2,24,25
 391 420 391 420 390 421 c 0,26,27
 384 422 384 422 378 426 c 128,-1,28
 372 430 372 430 368 436 c 0,29,30
 364 441 364 441 360.5 446 c 128,-1,31
 357 451 357 451 353 455 c 0,32,33
 343 468 343 468 331.5 477 c 128,-1,34
 320 486 320 486 302 489 c 1,35,-1
 302 167 l 1,36,37
 332 167 332 167 357 184 c 128,-1,38
 382 201 382 201 401 222 c 0,39,40
 408 227 408 227 413.5 229.5 c 128,-1,41
 419 232 419 232 423 232 c 0,42,43
 428 232 428 232 432 227.5 c 128,-1,44
 436 223 436 223 437 218 c 0,45,46
 438 217 438 217 438 216 c 2,47,-1
 438 214 l 1,48,-1
 438 211 l 1,49,-1
 438 208 l 2,50,51
 438 206 438 206 437.5 204 c 128,-1,52
 437 202 437 202 436 201 c 0,53,54
 415 170 415 170 396.5 154.5 c 128,-1,55
 378 139 378 139 359 131 c 2,56,-1
 342 125 l 2,57,58
 333 122 333 122 324 120 c 0,59,60
 318 119 318 119 313 117.5 c 128,-1,61
 308 116 308 116 302 114 c 1,62,-1
 302 28 l 2,63,64
 302 18 302 18 296 13 c 128,-1,65
 290 8 290 8 282 8 c 0,66,67
 275 8 275 8 268.5 13 c 128,-1,68
 262 18 262 18 262 28 c 2,69,-1
 262 114 l 1,0,1
262 167 m 1,70,-1
 262 489 l 1,71,72
 232 489 232 489 210.5 475 c 128,-1,73
 189 461 189 461 174 436 c 0,74,75
 159 415 159 415 153.5 386.5 c 128,-1,76
 148 358 148 358 148 328 c 2,77,-1
 148 324 l 1,78,-1
 148 320 l 2,79,80
 150 262 150 262 176.5 214.5 c 128,-1,81
 203 167 203 167 262 167 c 1,70,-1
EndSplineSet
EndChar

StartChar: sterling
Encoding: 163 163 101
Width: 355
GlyphClass: 2
Flags: W
LayerCount: 2
Fore
SplineSet
55 44 m 2,0,-1
 57 44 l 2,1,2
 60 44 60 44 67.5 47 c 128,-1,3
 75 50 75 50 76.7035616612 53.563879516 c 0,4,5
 78 59 78 59 78 68 c 2,6,-1
 78 362 l 1,7,-1
 25 362 l 2,8,9
 18 362 18 362 14 368 c 128,-1,10
 10 374 10 374 10 381 c 0,11,12
 10 401 10 401 25 401 c 2,13,-1
 78 401 l 1,14,-1
 78 476 l 2,15,16
 78 547 78 547 104.959671104 595.183241973 c 0,17,18
 142.03237858 661.440846824 142.03237858 661.440846824 200 655 c 1,19,20
 248 644.333333333 248 644.333333333 248 607 c 0,21,22
 248 599 248 599 237.5 588 c 128,-1,23
 227 577 227 577 218.5 577 c 128,-1,24
 210 577 210 577 209 578 c 0,25,26
 197 578 197 578 191 590 c 0,27,28
 184 597 184 597 169 597 c 1,29,30
 144 592.833333333 144 592.833333333 144 549 c 2,31,-1
 144 401 l 1,32,-1
 212 401 l 2,33,34
 232 401 232 401 232 381 c 0,35,36
 232 374 232 374 227.5 368 c 128,-1,37
 223 362 223 362 212 362 c 2,38,-1
 144 362 l 1,39,-1
 144 61 l 2,40,41
 144 49 144 49 154 51 c 0,42,43
 224 60 224 60 236.25 65.25 c 128,-1,44
 248.5 70.5 248.5 70.5 261.25 83.75 c 0,45,46
 292.75483871 116.490322581 292.75483871 116.490322581 302 98 c 0,47,48
 306.137931034 89.724137931 306.137931034 89.724137931 305 81 c 2,49,-1
 299 35 l 2,50,51
 296 9 296 9 285 5.5 c 128,-1,52
 274 2 274 2 239 2 c 2,53,-1
 78 2 l 2,54,55
 62 2 62 2 46.5 4.5 c 128,-1,56
 31 7 31 7 31 22 c 0,57,58
 31 44 31 44 55 44 c 2,0,-1
EndSplineSet
EndChar

StartChar: currency
Encoding: 164 164 102
Width: 531
GlyphClass: 2
Flags: W
LayerCount: 2
Fore
SplineSet
81 174 m 1,0,1
 54 215 54 215 42 252.5 c 128,-1,2
 30 290 30 290 30 322 c 0,3,4
 30 359 30 359 43 392.5 c 128,-1,5
 56 426 56 426 75 456 c 1,6,-1
 22 509 l 2,7,8
 20 511 20 511 18.5 513 c 128,-1,9
 17 515 17 515 16 517 c 0,10,11
 15 518 15 518 15 519 c 2,12,-1
 15 521 l 2,13,14
 15 522 15 522 15.5 523.5 c 128,-1,15
 16 525 16 525 16 527 c 0,16,17
 20 533 20 533 28 538.5 c 128,-1,18
 36 544 36 544 45 544 c 0,19,20
 47 544 47 544 50 543.5 c 128,-1,21
 53 543 53 543 56 542 c 128,-1,22
 59 541 59 541 62.5 539.5 c 128,-1,23
 66 538 66 538 68 536 c 2,24,-1
 114 489 l 1,25,26
 126 498 126 498 138 505.5 c 128,-1,27
 150 513 150 513 162 519 c 0,28,29
 186 531 186 531 209.5 536.5 c 128,-1,30
 233 542 233 542 255 542 c 0,31,32
 293 542 293 542 328.5 529 c 128,-1,33
 364 516 364 516 395 496 c 1,34,-1
 449 549 l 2,35,36
 450 549 450 549 451 549 c 2,37,-1
 452 551 l 2,38,39
 453 552 453 552 455 552.5 c 128,-1,40
 457 553 457 553 458 554 c 0,41,42
 460 555 460 555 462 555.5 c 128,-1,43
 464 556 464 556 466 556 c 2,44,-1
 468 556 l 1,45,-1
 469 556 l 2,46,47
 477 555 477 555 484 547.5 c 128,-1,48
 491 540 491 540 491 532 c 0,49,50
 491 530 491 530 490.5 528 c 128,-1,51
 490 526 490 526 489 524 c 128,-1,52
 488 522 488 522 486.5 520 c 128,-1,53
 485 518 485 518 483 516 c 2,54,-1
 430 463 l 1,55,56
 453 433 453 433 467.5 401 c 128,-1,57
 482 369 482 369 486 336 c 0,58,59
 487 330 487 330 487.5 323.5 c 128,-1,60
 488 317 488 317 488 310 c 0,61,62
 488 290 488 290 483 268 c 128,-1,63
 478 246 478 246 468 224 c 2,64,-1
 457 203 l 2,65,66
 451 192 451 192 443 181 c 1,67,-1
 489 134 l 2,68,69
 491 132 491 132 492.5 129.5 c 128,-1,70
 494 127 494 127 495 124 c 0,71,72
 497 121 497 121 497.5 118.5 c 128,-1,73
 498 116 498 116 498 114 c 2,74,-1
 498 112 l 1,75,-1
 498 111 l 2,76,77
 497 101 497 101 488 93 c 128,-1,78
 479 85 479 85 468 85 c 0,79,80
 466 85 466 85 463.5 86 c 128,-1,81
 461 87 461 87 459 88 c 0,82,83
 456 90 456 90 453.5 91.5 c 128,-1,84
 451 93 451 93 449 95 c 2,85,-1
 401 141 l 1,86,87
 376 118 376 118 341 105 c 128,-1,88
 306 92 306 92 269 91 c 2,89,-1
 265 91 l 1,90,-1
 260 91 l 2,91,92
 252 91 252 91 244 91.5 c 128,-1,93
 236 92 236 92 227 93 c 0,94,95
 197 97 197 97 167.5 109 c 128,-1,96
 138 121 138 121 114 141 c 1,97,-1
 61 88 l 2,98,99
 59 86 59 86 56.5 84 c 128,-1,100
 54 82 54 82 51 81 c 0,101,102
 48 79 48 79 45 78.5 c 128,-1,103
 42 78 42 78 40 78 c 0,104,105
 31 78 31 78 24.5 84.5 c 128,-1,106
 18 91 18 91 18 100 c 0,107,108
 18 102 18 102 18.5 104.5 c 128,-1,109
 19 107 19 107 21 110 c 0,110,111
 22 113 22 113 24 116 c 128,-1,112
 26 119 26 119 28 121 c 2,113,-1
 81 174 l 1,0,1
95 308 m 1,114,115
 100 232 100 232 150.5 193 c 128,-1,116
 201 154 201 154 262 154 c 0,117,118
 322 154 322 154 371.5 192 c 128,-1,119
 421 230 421 230 421 315 c 0,120,121
 421 386 421 386 372 427.5 c 128,-1,122
 323 469 323 469 263 473 c 0,123,124
 260 474 260 474 257 474 c 2,125,-1
 250 474 l 1,126,-1
 248 474 l 1,127,-1
 244 474 l 2,128,129
 189 472 189 472 142.5 432 c 128,-1,130
 96 392 96 392 95 308 c 1,114,115
EndSplineSet
EndChar

StartChar: yen
Encoding: 165 165 103
Width: 531
GlyphClass: 2
Flags: W
LayerCount: 2
Fore
SplineSet
181 328 m 1,0,1
 176 336 176 336 171 345 c 128,-1,2
 166 354 166 354 160 362 c 2,3,-1
 97 472 l 2,4,5
 68 525 68 525 55 556 c 0,6,7
 52 562 52 562 48.5 566.5 c 128,-1,8
 45 571 45 571 42 574 c 0,9,10
 36 580 36 580 30.5 583 c 128,-1,11
 25 586 25 586 21 589 c 0,12,13
 15 592 15 592 11.5 596 c 128,-1,14
 8 600 8 600 8 609 c 0,15,16
 8 624 8 624 17.5 626.5 c 128,-1,17
 27 629 27 629 41 629 c 2,18,-1
 108 629 l 2,19,20
 133 629 133 629 140.5 626.5 c 128,-1,21
 148 624 148 624 148 609 c 0,22,23
 148 599 148 599 142.5 594 c 128,-1,24
 137 589 137 589 131 585 c 0,25,26
 130 585 130 585 129 585 c 2,27,-1
 128 584 l 2,28,29
 122 581 122 581 117.5 577 c 128,-1,30
 113 573 113 573 113 566 c 0,31,32
 113 562 113 562 115 556 c 128,-1,33
 117 550 117 550 121 542 c 2,34,-1
 148 491 l 1,35,-1
 186 425 l 2,36,37
 188 421 188 421 190 417.5 c 128,-1,38
 192 414 192 414 194 411 c 2,39,-1
 232 348 l 2,40,41
 250 318 250 318 262 302 c 1,42,43
 274 317 274 317 288 339 c 2,44,-1
 318 384 l 1,45,-1
 332 407 l 1,46,-1
 346 431 l 2,47,48
 362 459 362 459 375 486.5 c 128,-1,49
 388 514 388 514 395 536 c 0,50,51
 397 546 397 546 399 553.5 c 128,-1,52
 401 561 401 561 401 566 c 0,53,54
 401 578 401 578 395 582 c 128,-1,55
 389 586 389 586 382 589 c 2,56,-1
 381 589 l 1,57,-1
 380 589 l 2,58,59
 373 592 373 592 367.5 595.5 c 128,-1,60
 362 599 362 599 362 609 c 0,61,62
 362 624 362 624 371 626.5 c 128,-1,63
 380 629 380 629 395 629 c 2,64,-1
 443 629 l 2,65,66
 478 629 478 629 487 627.5 c 128,-1,67
 496 626 496 626 496 615 c 128,-1,68
 496 604 496 604 493.5 598 c 128,-1,69
 491 592 491 592 487 587 c 2,70,-1
 473 571 l 2,71,72
 465 562 465 562 456 542 c 0,73,74
 443 513 443 513 422 478 c 2,75,-1
 379 405 l 2,76,77
 377 401 377 401 375 397.5 c 128,-1,78
 373 394 373 394 371 391 c 2,79,-1
 352 359 l 2,80,81
 343 343 343 343 335 328 c 1,82,-1
 401 328 l 2,83,84
 412 328 412 328 416.5 321 c 128,-1,85
 421 314 421 314 421 305 c 2,86,-1
 421 304 l 1,87,-1
 421 302 l 2,88,89
 420 295 420 295 415.5 288.5 c 128,-1,90
 411 282 411 282 401 282 c 2,91,-1
 302 282 l 1,92,-1
 289 262 l 1,93,-1
 289 229 l 1,94,-1
 401 229 l 2,95,96
 409 229 409 229 413 223.5 c 128,-1,97
 417 218 417 218 418 211 c 2,98,-1
 418 209 l 1,99,-1
 418 207 l 1,100,-1
 418 204 l 2,101,102
 418 202 418 202 417 200 c 0,103,104
 415 193 415 193 411 187 c 128,-1,105
 407 181 407 181 401 181 c 2,106,-1
 289 181 l 1,107,-1
 289 68 l 2,108,109
 289 58 289 58 296 53 c 128,-1,110
 303 48 303 48 312 45 c 0,111,112
 321 41 321 41 328 36.5 c 128,-1,113
 335 32 335 32 335 22 c 0,114,115
 335 7 335 7 327.5 4.5 c 128,-1,116
 320 2 320 2 295 2 c 2,117,-1
 216 2 l 2,118,119
 194 2 194 2 187.5 4.5 c 128,-1,120
 181 7 181 7 181 22 c 0,121,122
 181 32 181 32 188.5 36.5 c 128,-1,123
 196 41 196 41 205 45 c 0,124,125
 214 48 214 48 221.5 53 c 128,-1,126
 229 58 229 58 229 68 c 2,127,-1
 229 181 l 1,128,-1
 108 181 l 2,129,130
 102 181 102 181 98.5 187.5 c 128,-1,131
 95 194 95 194 95 201 c 0,132,133
 95 203 95 203 95.5 205.5 c 128,-1,134
 96 208 96 208 96 210 c 0,135,136
 98 217 98 217 101 223 c 128,-1,137
 104 229 104 229 108 229 c 2,138,-1
 229 229 l 1,139,-1
 229 255 l 1,140,-1
 207 282 l 1,141,-1
 108 282 l 2,142,143
 101 282 101 282 97.5 288.5 c 128,-1,144
 94 295 94 295 93 302 c 2,145,-1
 93 304 l 1,146,-1
 93 305 l 2,147,148
 93 314 93 314 97 321 c 128,-1,149
 101 328 101 328 108 328 c 2,150,-1
 181 328 l 1,0,1
EndSplineSet
EndChar

StartChar: brokenbar
Encoding: 166 166 104
Width: 571
GlyphClass: 2
Flags: W
LayerCount: 2
Fore
SplineSet
255 643 m 1,0,-1
 308 643 l 1,1,-1
 308 350 l 1,2,-1
 255 350 l 1,3,-1
 255 643 l 1,0,-1
308 297 m 1,4,-1
 308 2 l 1,5,-1
 255 2 l 1,6,-1
 255 297 l 1,7,-1
 308 297 l 1,4,-1
EndSplineSet
EndChar

